<svg width="19" height="19" viewBox="0 0 19 19" fill="none" xmlns="http://www.w3.org/2000/svg">
<path d="M9.50008 9.5C8.62925 9.5 7.88376 9.18993 7.26362 8.56979C6.64348 7.94965 6.33341 7.20417 6.33341 6.33333C6.33341 5.4625 6.64348 4.71702 7.26362 4.09688C7.88376 3.47674 8.62925 3.16667 9.50008 3.16667C10.3709 3.16667 11.1164 3.47674 11.7365 4.09688C12.3567 4.71702 12.6667 5.4625 12.6667 6.33333C12.6667 7.20417 12.3567 7.94965 11.7365 8.56979C11.1164 9.18993 10.3709 9.5 9.50008 9.5ZM3.16675 15.8333V13.6167C3.16675 13.1681 3.2822 12.7557 3.5131 12.3797C3.744 12.0036 4.05078 11.7167 4.43341 11.5188C5.25147 11.1097 6.08272 10.803 6.92716 10.5984C7.77161 10.3939 8.62925 10.2917 9.50008 10.2917C10.3709 10.2917 11.2286 10.3939 12.073 10.5984C12.9174 10.803 13.7487 11.1097 14.5667 11.5188C14.9494 11.7167 15.2562 12.0036 15.4871 12.3797C15.718 12.7557 15.8334 13.1681 15.8334 13.6167V15.8333H3.16675ZM4.75008 14.25H14.2501V13.6167C14.2501 13.4715 14.2138 13.3396 14.1412 13.2208C14.0687 13.1021 13.973 13.0097 13.8542 12.9438C13.1417 12.5875 12.4227 12.3203 11.697 12.1422C10.9713 11.9641 10.239 11.875 9.50008 11.875C8.76119 11.875 8.0289 11.9641 7.30321 12.1422C6.57751 12.3203 5.85841 12.5875 5.14591 12.9438C5.02716 13.0097 4.9315 13.1021 4.85894 13.2208C4.78637 13.3396 4.75008 13.4715 4.75008 13.6167V14.25ZM9.50008 7.91667C9.9355 7.91667 10.3082 7.76163 10.6183 7.45156C10.9284 7.14149 11.0834 6.76875 11.0834 6.33333C11.0834 5.89792 10.9284 5.52517 10.6183 5.21511C10.3082 4.90504 9.9355 4.75 9.50008 4.75C9.06466 4.75 8.69192 4.90504 8.38185 5.21511C8.07178 5.52517 7.91675 5.89792 7.91675 6.33333C7.91675 6.76875 8.07178 7.14149 8.38185 7.45156C8.69192 7.76163 9.06466 7.91667 9.50008 7.91667Z" fill="#1D1D1D"/>
</svg>
