<svg width="19" height="19" viewBox="0 0 19 19" fill="none" xmlns="http://www.w3.org/2000/svg">
<path d="M9.49992 17.4167C8.41797 17.4167 7.3954 17.2089 6.43221 16.7932C5.46902 16.3776 4.62787 15.8102 3.90877 15.0911C3.18968 14.372 2.62231 13.5309 2.20669 12.5677C1.79106 11.6045 1.58325 10.5819 1.58325 9.5C1.58325 8.40486 1.79106 7.37899 2.20669 6.42239C2.62231 5.4658 3.18968 4.62795 3.90877 3.90885C4.62787 3.18976 5.46902 2.62239 6.43221 2.20677C7.3954 1.79114 8.41797 1.58333 9.49992 1.58333C10.5951 1.58333 11.6209 1.79114 12.5775 2.20677C13.5341 2.62239 14.372 3.18976 15.0911 3.90885C15.8102 4.62795 16.3775 5.4658 16.7931 6.42239C17.2088 7.37899 17.4166 8.40486 17.4166 9.5C17.4166 10.5819 17.2088 11.6045 16.7931 12.5677C16.3775 13.5309 15.8102 14.372 15.0911 15.0911C14.372 15.8102 13.5341 16.3776 12.5775 16.7932C11.6209 17.2089 10.5951 17.4167 9.49992 17.4167ZM9.49992 15.7937C9.84297 15.3187 10.1398 14.824 10.3905 14.3094C10.6412 13.7948 10.8458 13.2472 11.0041 12.6667H7.99575C8.15409 13.2472 8.3586 13.7948 8.60929 14.3094C8.85999 14.824 9.15686 15.3187 9.49992 15.7937ZM7.44159 15.4771C7.20409 15.0417 6.99627 14.5898 6.81815 14.1214C6.64002 13.653 6.49159 13.1681 6.37284 12.6667H4.03742C4.42006 13.3264 4.89836 13.9003 5.47231 14.3885C6.04627 14.8767 6.7027 15.2396 7.44159 15.4771ZM11.5583 15.4771C12.2971 15.2396 12.9536 14.8767 13.5275 14.3885C14.1015 13.9003 14.5798 13.3264 14.9624 12.6667H12.627C12.5083 13.1681 12.3598 13.653 12.1817 14.1214C12.0036 14.5898 11.7958 15.0417 11.5583 15.4771ZM3.3645 11.0833H6.05617C6.01659 10.8194 5.9869 10.5589 5.96711 10.3016C5.94731 10.0443 5.93742 9.77708 5.93742 9.5C5.93742 9.22292 5.94731 8.95573 5.96711 8.69844C5.9869 8.44114 6.01659 8.18055 6.05617 7.91667H3.3645C3.29853 8.18055 3.24905 8.44114 3.21606 8.69844C3.18308 8.95573 3.16659 9.22292 3.16659 9.5C3.16659 9.77708 3.18308 10.0443 3.21606 10.3016C3.24905 10.5589 3.29853 10.8194 3.3645 11.0833ZM7.6395 11.0833H11.3603C11.3999 10.8194 11.4296 10.5589 11.4494 10.3016C11.4692 10.0443 11.4791 9.77708 11.4791 9.5C11.4791 9.22292 11.4692 8.95573 11.4494 8.69844C11.4296 8.44114 11.3999 8.18055 11.3603 7.91667H7.6395C7.59992 8.18055 7.57023 8.44114 7.55044 8.69844C7.53065 8.95573 7.52075 9.22292 7.52075 9.5C7.52075 9.77708 7.53065 10.0443 7.55044 10.3016C7.57023 10.5589 7.59992 10.8194 7.6395 11.0833ZM12.9437 11.0833H15.6353C15.7013 10.8194 15.7508 10.5589 15.7838 10.3016C15.8168 10.0443 15.8333 9.77708 15.8333 9.5C15.8333 9.22292 15.8168 8.95573 15.7838 8.69844C15.7508 8.44114 15.7013 8.18055 15.6353 7.91667H12.9437C12.9833 8.18055 13.0129 8.44114 13.0327 8.69844C13.0525 8.95573 13.0624 9.22292 13.0624 9.5C13.0624 9.77708 13.0525 10.0443 13.0327 10.3016C13.0129 10.5589 12.9833 10.8194 12.9437 11.0833ZM12.627 6.33333H14.9624C14.5798 5.67361 14.1015 5.09965 13.5275 4.61146C12.9536 4.12326 12.2971 3.76042 11.5583 3.52292C11.7958 3.95833 12.0036 4.41024 12.1817 4.87864C12.3598 5.34705 12.5083 5.83194 12.627 6.33333ZM7.99575 6.33333H11.0041C10.8458 5.75278 10.6412 5.20521 10.3905 4.69062C10.1398 4.17604 9.84297 3.68125 9.49992 3.20625C9.15686 3.68125 8.85999 4.17604 8.60929 4.69062C8.3586 5.20521 8.15409 5.75278 7.99575 6.33333ZM4.03742 6.33333H6.37284C6.49159 5.83194 6.64002 5.34705 6.81815 4.87864C6.99627 4.41024 7.20409 3.95833 7.44159 3.52292C6.7027 3.76042 6.04627 4.12326 5.47231 4.61146C4.89836 5.09965 4.42006 5.67361 4.03742 6.33333Z" fill="#1D1D1D"/>
</svg>
