<svg width="199" height="66" viewBox="0 0 199 66" fill="none" xmlns="http://www.w3.org/2000/svg">
<g clip-path="url(#clip0_7_154)">
<path d="M58.2129 50.1846C56.8531 49.6988 56.5954 49.375 56.5954 48.8178C56.5954 48.2606 56.9867 47.8177 57.9171 47.8177C58.5993 47.8177 59.0526 48.0416 59.5488 48.4511L60.0354 47.8558C59.4629 47.3987 58.8808 47.132 57.9648 47.132C56.6956 47.132 55.8368 47.7796 55.8368 48.8654C55.8368 49.8465 56.333 50.3227 57.8025 50.8465C59.0478 51.2942 59.4247 51.6513 59.4247 52.28C59.4247 52.9991 58.8617 53.4467 57.96 53.4467C57.2586 53.4467 56.667 53.1229 56.1517 52.6324L55.6508 53.1943C56.1851 53.7372 57.0105 54.1372 57.9361 54.1372C59.3532 54.1372 60.1881 53.3086 60.1881 52.2466C60.1881 51.1846 59.7253 50.7322 58.2176 50.1893L58.2129 50.1846Z" fill="white"/>
<path d="M63.2703 48.8321C62.6072 48.8321 62.006 48.994 61.5575 49.2369L61.8342 49.8274C62.2493 49.5845 62.6883 49.4369 63.2226 49.4369C63.9669 49.4369 64.3295 49.8036 64.3295 50.5656V51.1656C64.029 50.9989 63.5662 50.8703 63.0556 50.8703C62.0489 50.8703 61.1042 51.3561 61.1042 52.499C61.1042 53.7277 61.9392 54.1277 62.7312 54.1277C63.466 54.1277 63.9669 53.7848 64.3295 53.3991V54.0229H65.0548V50.4703C65.0548 49.2893 64.3677 48.8226 63.2703 48.8226V48.8321ZM64.3295 52.78C64.0194 53.2038 63.5232 53.542 62.8648 53.542C62.2398 53.542 61.8199 53.2134 61.8199 52.4562C61.8199 51.818 62.2684 51.4561 63.0175 51.4561C63.6377 51.4561 63.9956 51.5704 64.3295 51.7514V52.7848V52.78Z" fill="white"/>
<path d="M72.3737 51.0465V54.0277H73.0989V50.9275C73.0989 49.4417 72.45 48.8321 71.4099 48.8321C70.5797 48.8321 70.1646 49.2178 69.864 49.7036C69.6207 49.2178 69.1865 48.8321 68.4661 48.8321C67.8649 48.8321 67.4355 49.1226 67.1731 49.5607V48.9416H66.4384V54.0325H67.1731V51.0513C67.1731 49.9226 67.6073 49.4607 68.3086 49.4607C69.01 49.4607 69.406 49.8846 69.406 51.0513V54.0325H70.136V51.0513C70.136 49.9226 70.5797 49.4607 71.2715 49.4607C72.0063 49.4607 72.3689 49.8846 72.3689 51.0513L72.3737 51.0465Z" fill="white"/>
<path d="M76.0236 51.0656C75.16 50.6751 74.9024 50.5084 74.9024 50.075C74.9024 49.7036 75.2077 49.4464 75.7468 49.4464C76.286 49.4464 76.62 49.5893 77.016 49.9036L77.4215 49.3655C77.0351 49.0464 76.4911 48.8273 75.7946 48.8273C74.8642 48.8273 74.201 49.3512 74.201 50.1227C74.201 50.937 74.6256 51.2466 75.6514 51.6847C76.5532 52.0704 76.8537 52.3038 76.8537 52.7229C76.8537 53.2181 76.5245 53.5086 75.8232 53.5086C75.3174 53.5086 74.8403 53.3038 74.4348 52.9467L74.0054 53.4753C74.492 53.8658 75.1027 54.1277 75.8041 54.1277C76.6868 54.1277 77.5503 53.6943 77.5503 52.6895C77.5503 51.7799 76.9873 51.499 76.0188 51.0608L76.0236 51.0656Z" fill="white"/>
<path d="M81.8062 51.9133C81.8062 53.0276 81.2479 53.4991 80.5466 53.4991C79.7259 53.4991 79.3395 53.0086 79.3395 51.9133V48.9369H78.6143V52.0371C78.6143 53.4991 79.3252 54.1325 80.3987 54.1325C81.0428 54.1325 81.5151 53.8325 81.8062 53.4039V54.0277H82.5361V48.9369H81.8062V51.9133Z" fill="white"/>
<path d="M87.689 54.0277V50.9275C87.689 49.4607 86.9781 48.8321 85.8998 48.8321C85.2605 48.8321 84.7834 49.1321 84.4971 49.5607V48.9416H83.7623V54.0325H84.4971V51.0513C84.4971 49.9369 85.0458 49.4607 85.7519 49.4607C86.5678 49.4607 86.959 49.956 86.959 51.0513V54.0325H87.689V54.0277Z" fill="white"/>
<path d="M89.984 55.3421L90.2178 55.8945C92.1119 55.8374 92.799 55.0992 92.799 53.5658V48.9321H92.069V49.5036C91.7111 49.094 91.2722 48.8273 90.6329 48.8273C89.5641 48.8273 88.7053 49.756 88.7053 51.5609C88.7053 53.3658 89.5164 54.1277 90.5327 54.1277C91.2245 54.1277 91.7111 53.7848 92.069 53.3991V53.661C92.069 54.8468 91.6825 55.2945 89.9792 55.3373L89.984 55.3421ZM90.7187 53.4991C89.9124 53.4991 89.4258 52.8324 89.4258 51.5513C89.4258 50.1846 89.8409 49.4559 90.6901 49.4559C91.2961 49.4559 91.7875 49.7941 92.069 50.2179V52.7657C91.7111 53.2134 91.2627 53.4991 90.7187 53.4991Z" fill="white"/>
<path d="M100.843 50.5846C100.843 48.2559 99.5263 47.2367 97.7418 47.2367H95.9431V54.0277H97.6083C99.4261 54.0277 100.843 53.0467 100.843 50.5846ZM96.7017 47.9225H97.6846C99.2495 47.9225 100.084 48.875 100.084 50.6084C100.084 52.5609 99.1684 53.3372 97.7037 53.3372H96.7017V47.9225Z" fill="white"/>
<path d="M102.785 49.5655V48.9369H102.055V54.0277H102.785V51.037C102.785 50.0655 103.186 49.4988 103.897 49.4988C104.235 49.4988 104.455 49.575 104.66 49.6941L104.841 48.9607C104.67 48.8845 104.426 48.8369 104.045 48.8369C103.496 48.8369 103.014 49.1655 102.785 49.5702V49.5655Z" fill="white"/>
<path d="M109.202 53.542L108.859 53.0181C108.391 53.3277 108.043 53.5039 107.446 53.5039C106.616 53.5039 106.096 52.8133 106.029 51.7323H109.426C109.45 51.6132 109.46 51.5085 109.46 51.337C109.46 49.8846 108.735 48.8369 107.403 48.8369C106.192 48.8369 105.299 49.8417 105.299 51.4561C105.299 53.461 106.435 54.1372 107.37 54.1372C108.138 54.1372 108.587 53.9325 109.202 53.5467V53.542ZM107.403 49.4607C108.296 49.4607 108.725 50.1512 108.782 51.137H106.029C106.115 49.9988 106.645 49.4607 107.403 49.4607Z" fill="white"/>
<path d="M111.893 54.1325C112.623 54.1325 113.124 53.7896 113.482 53.4039V54.0277H114.212V50.4751C114.212 49.294 113.525 48.8273 112.427 48.8273C111.764 48.8273 111.163 48.9892 110.715 49.2321L110.987 49.8226C111.406 49.5798 111.841 49.4321 112.375 49.4321C113.124 49.4321 113.482 49.7988 113.482 50.5608V51.1608C113.181 50.9942 112.723 50.8656 112.213 50.8656C111.201 50.8656 110.252 51.3513 110.252 52.4943C110.252 53.7229 111.092 54.123 111.888 54.123L111.893 54.1325ZM112.175 51.4513C112.795 51.4513 113.157 51.5656 113.487 51.7466V52.78C113.177 53.2038 112.68 53.542 112.022 53.542C111.402 53.542 110.977 53.2134 110.977 52.4562C110.977 51.818 111.43 51.4561 112.175 51.4561V51.4513Z" fill="white"/>
<path d="M121.531 51.0465V54.0277H122.261V50.9275C122.261 49.4417 121.612 48.8321 120.572 48.8321C119.746 48.8321 119.327 49.2178 119.031 49.7036C118.787 49.2178 118.353 48.8321 117.633 48.8321C117.027 48.8321 116.602 49.1226 116.34 49.5607V48.9416H115.615V54.0325H116.34V51.0513C116.34 49.9226 116.779 49.4607 117.48 49.4607C118.181 49.4607 118.582 49.8846 118.582 51.0513V54.0325H119.307V51.0513C119.307 49.9226 119.751 49.4607 120.448 49.4607C121.183 49.4607 121.545 49.8846 121.545 51.0513L121.531 51.0465Z" fill="white"/>
<path d="M58.2129 60.2853C56.8483 59.7996 56.6002 59.4805 56.6002 58.9185C56.6002 58.3566 56.9915 57.9232 57.9218 57.9232C58.6041 57.9232 59.0621 58.1423 59.5536 58.5518L60.0402 57.9613C59.4677 57.5089 58.8808 57.2375 57.9695 57.2375C56.6956 57.2375 55.8416 57.8756 55.8416 58.9709C55.8416 59.9519 56.3378 60.4234 57.8073 60.9473C59.0526 61.3997 59.4295 61.7521 59.4295 62.3855C59.4295 63.0998 58.8665 63.5474 57.96 63.5474C57.2586 63.5474 56.667 63.2236 56.1517 62.7331L55.6508 63.295C56.1851 63.8379 57.0105 64.2332 57.9361 64.2332C59.3532 64.2332 60.1834 63.4093 60.1834 62.3426C60.1834 61.2759 59.7205 60.8282 58.2176 60.2853H58.2129Z" fill="white"/>
<path d="M63.2798 59.5614C63.7951 59.5614 64.1339 59.7424 64.5013 60.0758L64.9402 59.5329C64.5394 59.1805 64.0098 58.9281 63.3276 58.9281C62.2588 58.9281 61.1281 59.7234 61.1281 61.6044C61.1281 63.3808 62.1538 64.2284 63.2751 64.2284C63.9907 64.2284 64.4869 63.957 64.9163 63.5189L64.4774 63.0569C64.1291 63.3951 63.7999 63.5951 63.3037 63.5951C62.4019 63.5951 61.8628 62.7902 61.8628 61.5378C61.8628 60.2853 62.4783 59.5519 63.2751 59.5519L63.2798 59.5614Z" fill="white"/>
<path d="M68.0558 58.9328C67.4165 58.9328 66.9346 59.2329 66.6435 59.6615V57.2708H65.9183V64.138H66.6435V61.1568C66.6435 60.0424 67.2018 59.5662 67.9079 59.5662C68.7285 59.5662 69.115 60.0567 69.115 61.1568V64.138H69.845V61.0282C69.845 59.5662 69.1341 58.9328 68.0558 58.9328Z" fill="white"/>
<path d="M73.0989 58.9328C71.8584 58.9328 70.8707 59.8615 70.8707 61.5902C70.8707 63.3189 71.8202 64.238 73.0607 64.238C74.3012 64.238 75.2984 63.2808 75.2984 61.5521C75.2984 59.8234 74.3394 58.9328 73.0989 58.9328ZM73.0845 63.6046C72.1971 63.6046 71.6007 62.9093 71.6007 61.5711C71.6007 60.2329 72.1971 59.5662 73.0845 59.5662C73.972 59.5662 74.5684 60.2329 74.5684 61.5711C74.5684 62.9093 73.9672 63.6046 73.0845 63.6046Z" fill="white"/>
<path d="M77.1257 57.266H76.3958V64.1332H77.1257V57.266Z" fill="white"/>
<path d="M80.4608 58.9328C79.7976 58.9328 79.1964 59.0995 78.7527 59.3424L79.0247 59.9377C79.4445 59.6948 79.8835 59.5472 80.4178 59.5472C81.1621 59.5472 81.5247 59.9186 81.5247 60.6711V61.2759C81.2242 61.1092 80.7661 60.9806 80.2556 60.9806C79.2441 60.9806 78.2994 61.4663 78.2994 62.614C78.2994 63.8427 79.1344 64.238 79.9312 64.238C80.6612 64.238 81.1621 63.8999 81.5247 63.5141V64.138H82.2547V60.5901C82.2547 59.3995 81.5629 58.9376 80.4655 58.9376L80.4608 58.9328ZM81.52 62.8807C81.2146 63.2998 80.7089 63.6427 80.0552 63.6427C79.435 63.6427 79.0151 63.3141 79.0151 62.5569C79.0151 61.914 79.4636 61.5616 80.2127 61.5616C80.8329 61.5616 81.1908 61.6664 81.52 61.8521V62.8807Z" fill="white"/>
<path d="M84.3683 59.671V59.0328H83.6383V64.1284H84.3683V61.1377C84.3683 60.171 84.7595 59.5948 85.4752 59.5948C85.8187 59.5948 86.0382 59.671 86.2434 59.79L86.4294 59.0519C86.2529 58.9757 86.0143 58.9233 85.6326 58.9233C85.0887 58.9233 84.5973 59.2519 84.3731 59.6662L84.3683 59.671Z" fill="white"/>
<path d="M89.2254 61.1711C88.3618 60.7806 88.0994 60.6044 88.0994 60.1805C88.0994 59.8138 88.4095 59.5519 88.9439 59.5519C89.4782 59.5519 89.8218 59.6996 90.2178 60.0091L90.6233 59.4757C90.2321 59.1567 89.6929 58.9328 88.9916 58.9328C88.066 58.9328 87.3932 59.4567 87.3932 60.2329C87.3932 61.0092 87.8226 61.3568 88.8437 61.7902C89.7454 62.1759 90.046 62.414 90.046 62.8283C90.046 63.3284 89.7168 63.6141 89.0202 63.6141C88.5097 63.6141 88.0373 63.4093 87.627 63.0522L87.2024 63.5855C87.6891 63.9761 88.2998 64.2332 89.0011 64.2332C89.8838 64.2332 90.7474 63.7951 90.7474 62.7998C90.7474 61.8854 90.1844 61.6092 89.2206 61.1711H89.2254Z" fill="white"/>
<path d="M94.0777 58.9328C93.4288 58.9328 92.9565 59.2329 92.6654 59.6615V57.2708H91.9354V64.138H92.6654V61.1568C92.6654 60.0424 93.2189 59.5662 93.9298 59.5662C94.7456 59.5662 95.1321 60.0567 95.1321 61.1568V64.138H95.8621V61.0282C95.8621 59.5662 95.1559 58.9328 94.0777 58.9328Z" fill="white"/>
<path d="M98.0282 59.0328H97.303V64.1284H98.0282V59.0328Z" fill="white"/>
<path d="M97.6799 57.0898C97.3841 57.0898 97.1503 57.3232 97.1503 57.6184C97.1503 57.9137 97.3841 58.1328 97.6799 58.1328C97.9518 58.1328 98.1856 57.8947 98.1856 57.6184C98.1856 57.3232 97.9518 57.0898 97.6799 57.0898Z" fill="white"/>
<path d="M101.764 58.9328C101.077 58.9328 100.59 59.2757 100.228 59.6615V59.0376H99.4977V66.0048H100.228V63.5617C100.586 63.9665 101.024 64.238 101.669 64.238C102.733 64.238 103.591 63.3046 103.591 61.5044C103.591 59.7043 102.78 58.9328 101.764 58.9328ZM101.607 63.6046C101.005 63.6046 100.509 63.2665 100.228 62.8379V60.2948C100.586 59.8519 101.034 59.5614 101.578 59.5614C102.389 59.5614 102.876 60.2282 102.876 61.5092C102.876 62.876 102.456 63.5998 101.611 63.5998L101.607 63.6046Z" fill="white"/>
<path d="M107.451 58.028H110.686V57.3422H106.693V64.1332H107.451V60.9663H109.317V60.2805H107.451V58.028Z" fill="white"/>
<path d="M112.9 58.9328C111.659 58.9328 110.667 59.8615 110.667 61.5902C110.667 63.3189 111.621 64.238 112.862 64.238C114.102 64.238 115.099 63.2808 115.099 61.5521C115.099 59.8234 114.15 58.9328 112.9 58.9328ZM112.881 63.6046C111.993 63.6046 111.406 62.9093 111.406 61.5711C111.406 60.2329 111.998 59.5662 112.881 59.5662C113.763 59.5662 114.369 60.2329 114.369 61.5711C114.369 62.9093 113.768 63.6046 112.881 63.6046Z" fill="white"/>
<path d="M119.121 62.014C119.121 63.1284 118.573 63.6046 117.862 63.6046C117.046 63.6046 116.655 63.1141 116.655 62.014V59.0328H115.929V62.1378C115.929 63.5998 116.64 64.2332 117.719 64.2332C118.353 64.2332 118.83 63.938 119.121 63.5094V64.1332H119.856V59.0376H119.121V62.0188V62.014Z" fill="white"/>
<path d="M123.215 58.9328C122.576 58.9328 122.099 59.2328 121.808 59.6614V59.0376H121.078V64.1332H121.808V61.152C121.808 60.0377 122.361 59.5614 123.072 59.5614C123.888 59.5614 124.274 60.052 124.274 61.152V64.1332H125.004V61.0235C125.004 59.5614 124.293 58.9281 123.215 58.9281V58.9328Z" fill="white"/>
<path d="M129.389 59.6138C129.026 59.2043 128.592 58.9281 127.948 58.9281C126.879 58.9281 126.025 59.8567 126.025 61.6664C126.025 63.476 126.832 64.2332 127.853 64.2332C128.544 64.2332 129.026 63.8951 129.384 63.5094V64.1332H130.114V57.266H129.384V59.6138H129.389ZM129.389 62.8664C129.026 63.3093 128.583 63.5998 128.039 63.5998C127.232 63.5998 126.746 62.9331 126.746 61.6521C126.746 60.2806 127.161 59.5567 128.01 59.5567C128.611 59.5567 129.103 59.8948 129.389 60.3234V62.8617V62.8664Z" fill="white"/>
<path d="M133.206 58.9328C132.547 58.9328 131.946 59.0995 131.498 59.3424L131.765 59.9377C132.185 59.6948 132.624 59.5472 133.158 59.5472C133.902 59.5472 134.26 59.9186 134.26 60.6711V61.2759C133.96 61.1092 133.502 60.9806 132.986 60.9806C131.98 60.9806 131.035 61.4663 131.035 62.614C131.035 63.8427 131.875 64.238 132.671 64.238C133.401 64.238 133.902 63.8999 134.26 63.5141V64.138H134.99V60.5901C134.99 59.3995 134.303 58.9376 133.201 58.9376L133.206 58.9328ZM134.26 62.8807C133.95 63.2998 133.459 63.6427 132.791 63.6427C132.175 63.6427 131.76 63.3141 131.76 62.5569C131.76 61.914 132.204 61.5616 132.953 61.5616C133.573 61.5616 133.936 61.6664 134.26 61.8521V62.8807Z" fill="white"/>
<path d="M137.319 57.266H136.584V59.0328H135.954V59.6472H136.584V63.0808C136.584 63.9237 136.927 64.2284 137.562 64.2284C137.944 64.2284 138.215 64.1713 138.497 64.057L138.549 63.4284C138.316 63.5236 138.125 63.5713 137.829 63.5713C137.443 63.5713 137.319 63.4141 137.319 62.9617V59.6472H138.583V59.0328H137.319V57.266Z" fill="white"/>
<path d="M140.238 57.0898C139.938 57.0898 139.699 57.3232 139.699 57.6184C139.699 57.9137 139.938 58.1328 140.238 58.1328C140.51 58.1328 140.739 57.8947 140.739 57.6184C140.739 57.3232 140.506 57.0898 140.238 57.0898Z" fill="white"/>
<path d="M140.587 59.0328H139.857V64.1284H140.587V59.0328Z" fill="white"/>
<path d="M143.917 58.9328C142.677 58.9328 141.684 59.8615 141.684 61.5902C141.684 63.3189 142.634 64.238 143.879 64.238C145.124 64.238 146.112 63.2808 146.112 61.5521C146.112 59.8234 145.158 58.9328 143.917 58.9328ZM143.898 63.6046C143.015 63.6046 142.419 62.9093 142.419 61.5711C142.419 60.2329 143.015 59.5662 143.898 59.5662C144.781 59.5662 145.387 60.2329 145.387 61.5711C145.387 62.9093 144.785 63.6046 143.898 63.6046Z" fill="white"/>
<path d="M149.304 58.9328C148.664 58.9328 148.187 59.2328 147.891 59.6614V59.0376H147.161V64.1332H147.891V61.152C147.891 60.0377 148.445 59.5614 149.156 59.5614C149.972 59.5614 150.363 60.052 150.363 61.152V64.1332H151.088V61.0235C151.088 59.5614 150.377 58.9281 149.304 58.9281V58.9328Z" fill="white"/>
<path d="M83.7194 33.8691C80.7899 33.8739 78.3757 36.1597 78.3757 39.0266C78.3757 41.8935 80.7899 44.1556 83.7194 44.1651C86.6775 44.1556 89.0679 41.8649 89.0679 39.0266C89.0679 36.1883 86.6775 33.8739 83.7194 33.8691ZM83.6479 41.8125C82.1163 41.8125 80.9617 40.5648 80.9617 39.0266C80.9617 37.4884 82.1974 36.2169 83.7242 36.2169C85.251 36.2169 86.4437 37.4646 86.4437 39.0266C86.4437 40.5886 85.1937 41.8125 83.6526 41.8125H83.6479Z" fill="white"/>
<path d="M59.2004 30.3212C60.0163 31.1261 60.9515 31.8309 61.8723 32.2833L61.9677 32.3357L63.547 30.4736L63.3943 30.3879C61.8961 29.5783 60.7224 28.5544 59.9543 27.2639C59.1909 25.9923 58.7997 24.5161 58.7997 22.7493V21.092H55.9751V22.5731C55.9751 24.4875 55.541 25.9923 54.7251 27.3115C53.8138 28.7735 52.4636 29.9498 50.7364 31.0403L50.5837 31.1356L52.2966 32.9071L52.392 32.8547C53.413 32.3023 54.4961 31.4499 55.436 30.4974C56.2519 29.664 56.958 28.7735 57.3874 27.9306C57.8025 28.7592 58.4371 29.6021 59.2004 30.326V30.3212Z" fill="white"/>
<path d="M56.1421 42.946H67.965V34.8835H56.1421V42.946ZM58.7996 37.1598H65.3075V40.6696H58.7996V37.1598Z" fill="white"/>
<path d="M95.5614 42.946H108.93V34.8835H95.5614V42.946ZM98.1903 37.1598H106.306V40.6696H98.1903V37.1598Z" fill="white"/>
<path d="M68.0128 20.6158H65.3839V33.9596H68.0128V28.0544H71.0902V25.6828H68.0128V20.6158Z" fill="white"/>
<path d="M122.518 31.0022C123.382 31.7499 124.37 32.3785 125.3 32.7833L125.395 32.8262L126.817 30.907L126.665 30.8308C125.31 30.1403 124.102 29.2831 123.234 28.2354C122.351 27.1686 121.827 25.8828 121.827 24.3351V23.8827H125.739V21.5873H115.118V23.8827H119.026V24.4351C119.026 25.8447 118.558 27.1591 117.781 28.2973C116.869 29.664 115.538 30.7641 114.245 31.4785L114.073 31.5689L115.82 33.3738L115.915 33.3262C116.855 32.7928 117.895 31.988 118.783 31.0832C119.494 30.3403 120.133 29.5545 120.524 28.7687C120.996 29.5307 121.722 30.2927 122.523 31.0022H122.518Z" fill="white"/>
<path d="M141.531 37.2122H151.088V42.9412H153.741V34.9359H141.531V37.2122Z" fill="white"/>
<path d="M148.125 28.0354C148.125 26.7734 147.557 25.6114 146.718 24.7256H149.342V22.454H144.332V19.9538H141.484V22.454H136.355V24.7256H139.036C138.215 25.6114 137.648 26.7638 137.648 28.0354C137.648 30.8498 139.971 33.1357 142.877 33.1452C145.783 33.1357 148.12 30.8498 148.125 28.0354ZM140.181 27.9306C140.181 26.3733 141.498 25.0542 142.877 25.0542C144.256 25.0542 145.568 26.3781 145.573 27.9306C145.573 29.464 144.256 30.7879 142.877 30.7927C141.493 30.7879 140.186 29.464 140.181 27.9306Z" fill="white"/>
<path d="M153.741 20.6158H151.117V34.0072H153.741V28.8973H156.828V26.5257H153.741V20.6158Z" fill="white"/>
<path d="M131.474 20.6158H128.85V34.0072H131.474V28.0544H134.556V25.6828H131.474V20.6158Z" fill="white"/>
<path d="M86.9304 24.5875H82.7986V26.9353H86.9304V34.4311H89.5593V20.6158H86.9304V24.5875Z" fill="white"/>
<path d="M80.2556 30.6689C81.0762 31.4689 82.0352 32.1737 82.9513 32.65L83.0515 32.7071L84.6307 30.8451L84.478 30.7594C82.9799 29.9736 81.83 28.9545 81.0571 27.6829C80.2746 26.421 79.8834 24.8875 79.8834 23.1207V21.092H77.0541V22.9493C77.0541 24.8637 76.6247 26.3638 75.8279 27.6591C74.9214 29.145 73.5425 30.3308 71.8154 31.4118L71.6675 31.507L73.3899 33.2834L73.4757 33.2262C74.492 32.669 75.5512 31.8642 76.4911 30.9451C77.3404 30.1022 78.0465 29.1831 78.4759 28.302C78.8815 29.1069 79.5017 29.926 80.2556 30.6736V30.6689Z" fill="white"/>
<path d="M125.839 33.8691C122.91 33.8739 120.495 36.1597 120.491 39.0266C120.495 41.8649 122.905 44.1556 125.839 44.1651C128.793 44.1556 131.188 41.8649 131.188 39.0266C131.188 36.1883 128.793 33.8739 125.839 33.8691ZM125.763 41.8125C124.236 41.8125 123.072 40.5648 123.072 39.0266C123.072 37.4884 124.303 36.2169 125.839 36.2169C127.375 36.2169 128.554 37.4646 128.559 39.0266C128.559 40.5601 127.304 41.8125 125.763 41.8125Z" fill="white"/>
<path d="M98.7628 28.2687H101.392V21.4539H94.297V23.7208H98.7628V28.2687Z" fill="white"/>
<path d="M106.654 28.2687H109.288V21.4539H102.193V23.7208H106.654V28.2687Z" fill="white"/>
<path d="M173.665 26.6495H171.456V20.9872H168.97V42.3697H171.456V29.2212H173.665V42.9412H176.242V20.6158H173.665V26.6495Z" fill="white"/>
<path d="M165.325 29.6069C164.734 28.3163 164.49 26.8734 164.49 25.1018V24.2589H167.472V21.854H158.808V24.2589H161.885V25.1494C161.885 26.8257 161.666 28.1973 161.136 29.4688C160.521 30.9308 159.485 32.2452 157.834 33.6548L157.72 33.7596L159.352 35.374L159.452 35.2978C160.273 34.693 161.131 33.8167 161.847 32.9119C162.453 32.1499 162.963 31.3594 163.283 30.6641C163.612 31.3404 164.128 32.1166 164.729 32.8405C165.425 33.6881 166.213 34.493 166.966 34.974L167.067 35.0406L168.441 33.4024L168.331 33.3024C166.852 32.0166 165.936 30.8689 165.335 29.6021L165.325 29.6069Z" fill="white"/>
<path d="M92.0975 31.4404H100.824V33.9834H103.672V31.4404H112.537V29.1592H92.0975V31.4404Z" fill="white"/>
<path d="M191.209 30.7117H182.325V23.9636H189.09V21.5873H179.662V33.0167H191.209V30.7117Z" fill="white"/>
<path d="M186.185 35.8264H183.527V42.9412H195.956V40.5982H186.185V35.8264Z" fill="white"/>
<path d="M195.894 26.7972V20.611H193.27V37.0836H195.894V29.1688H199V26.7972H195.894Z" fill="white"/>
<path d="M55.7318 13.7248L48.9233 10.9103L55.7318 8.09582L54.5199 5.18609L47.7162 8.00058L50.536 1.20485L47.6161 0L44.8011 6.79573L41.9813 0L39.0614 1.20485L41.8811 8.00058L35.0775 5.18609L33.8704 8.09582L40.674 10.9103L33.8704 13.7248L35.0775 16.6345L41.8811 13.82L39.0614 20.6158L41.9813 21.8206L44.8011 15.0297L47.6161 21.8206L50.536 20.611L47.7162 13.82L54.5199 16.6345L55.7318 13.7248Z" fill="#009FE3"/>
<path d="M11.6798 32.6833H16.2076V20.6158H0.72522V24.6827H11.6798V32.6833Z" fill="#009FE3"/>
<path d="M29.3426 32.6833H33.8705V20.6158H18.3881V24.6827H29.3426V32.6833Z" fill="#009FE3"/>
<path d="M0 38.9266H29.3426V45.1414H33.8704V34.8597H0V38.9266Z" fill="#009FE3"/>
<path d="M10.9546 64.1332H33.8704V47.232H10.9546V64.1332ZM15.4824 51.2989H29.3474V60.0662H15.4824V51.2989Z" fill="#009FE3"/>
</g>
<defs>
<clipPath id="clip0_7_154">
<rect width="199" height="66" fill="white"/>
</clipPath>
</defs>
</svg>
