<svg width="51" height="48" viewBox="0 0 51 48" fill="none" xmlns="http://www.w3.org/2000/svg">
<g clip-path="url(#clip0_30_1329)">
<path d="M45.0585 1.08289C46.5144 1.08289 47.6842 2.24011 47.6842 3.67011C47.6842 5.10011 46.506 6.25733 45.0585 6.25733C43.611 6.25733 42.4243 5.10011 42.4243 3.67011C42.4243 2.24011 43.6025 1.08289 45.0585 1.08289Z" fill="white"/>
<path d="M3.22333 31.3361C4.39461 31.3361 5.34412 30.4035 5.34412 29.253C5.34412 28.1026 4.39461 27.17 3.22333 27.17C2.05205 27.17 1.10254 28.1026 1.10254 29.253C1.10254 30.4035 2.05205 31.3361 3.22333 31.3361Z" fill="white"/>
<path d="M14.8541 25.0043V36.5022H9.51001V25.0043C9.67833 25.0043 9.84664 25.087 10.0234 25.087C10.8734 25.087 11.6392 24.6737 12.1442 24.0042C12.6491 24.6737 13.415 25.087 14.265 25.087C14.5174 25.087 14.6858 25.0043 14.8625 25.0043H14.8541Z" fill="white"/>
<path d="M28.0836 25.0043V36.5022H22.7395V25.0043C22.9078 25.0043 23.0761 25.087 23.2445 25.087C24.0945 25.087 24.8603 24.6737 25.3652 24.0042C25.8786 24.6737 26.636 25.087 27.486 25.087C27.7385 25.087 27.9068 25.0043 28.0836 25.0043Z" fill="white"/>
<path d="M41.4058 25.0043V36.5022H36.0618V25.0043C36.2301 25.0043 36.3984 25.087 36.5667 25.087C37.4167 25.087 38.1826 24.6737 38.6875 24.0042C39.2009 24.6737 39.9583 25.087 40.8083 25.087C40.9766 25.087 41.1449 25.0043 41.4058 25.0043Z" fill="white"/>
<path d="M15.9564 36.5022V39.668H8.48315V36.5022H9.58563H14.8539H15.9564Z" fill="white"/>
<path d="M29.186 36.5022V39.668H21.7212V36.5022H22.8237H28.0836H29.186Z" fill="white"/>
<path d="M42.4242 36.5022V39.668H35.0435V36.5022H36.0618H41.4058H42.4242Z" fill="white"/>
<path d="M40.8168 19.8381C42.2559 19.8381 43.4509 21.0036 43.4509 22.4254C43.4509 23.6735 42.5168 24.7563 41.3302 25.0126C41.1618 25.0126 40.9935 25.0952 40.8168 25.0952C39.9668 25.0952 39.2009 24.6819 38.696 24.0124C38.191 24.6819 37.4252 25.0952 36.5752 25.0952C36.4069 25.0952 36.2386 25.0952 36.0703 25.0126C34.8836 24.7646 33.9495 23.7644 33.9495 22.4254C33.9495 21.0119 35.1361 19.8381 36.5752 19.8381H40.8168Z" fill="white"/>
<path d="M27.5786 19.8381C29.0177 19.8381 30.2044 21.0036 30.2044 22.4254C30.2044 23.6735 29.2702 24.7563 28.0836 25.0126C27.9153 25.0126 27.7469 25.0952 27.5786 25.0952C26.7286 25.0952 25.9628 24.6819 25.4578 24.0124C24.9445 24.6819 24.187 25.0952 23.337 25.0952C23.1687 25.0952 23.0004 25.0952 22.8237 25.0126C21.637 24.7646 20.7029 23.7644 20.7029 22.4254C20.7029 21.0119 21.8895 19.8381 23.337 19.8381H27.5786Z" fill="white"/>
<path d="M14.3407 19.8381C15.7798 19.8381 16.9664 21.0036 16.9664 22.4254C16.9664 23.6735 16.0323 24.7563 14.8457 25.0126C14.6773 25.0126 14.509 25.0952 14.3323 25.0952C13.4823 25.0952 12.7164 24.6819 12.2115 24.0124C11.7065 24.6819 10.9407 25.0952 10.0907 25.0952C9.92238 25.0952 9.75407 25.0952 9.57734 25.0126C8.3907 24.7646 7.45654 23.7644 7.45654 22.4254C7.45654 21.0119 8.64318 19.8381 10.0907 19.8381H14.3323H14.3407Z" fill="white"/>
<path d="M3.22339 42.7512V46.9172H47.7769V42.7512H3.22339ZM37.0382 45.8344V43.7514H42.517C42.6432 43.801 42.7863 43.834 42.9377 43.834C43.165 43.834 43.3754 43.801 43.5773 43.7514H46.6744V45.8344H37.0382Z" fill="white"/>
<path d="M46.6742 43.7513V45.8343H37.0381V43.7513H42.5168C42.643 43.8009 42.7861 43.834 42.9376 43.834C43.1648 43.834 43.3752 43.8009 43.5772 43.7513H46.6742Z" fill="#313AF4"/>
<path d="M6.3623 14.6637V19.8299H44.545V14.6637H6.3623ZM43.5267 18.8297H41.5994L41.3217 18.7801C41.1534 18.7553 40.9851 18.747 40.8168 18.747C40.6737 18.747 40.539 18.7718 40.4212 18.8297H37.038V15.6639H43.5267V18.8297Z" fill="white"/>
<path d="M42.9376 39.668C43.7876 39.668 44.5534 40.3375 44.5534 41.255C44.5534 41.6683 44.3851 42.0899 44.0484 42.3379C43.796 42.5858 43.3668 42.7512 42.946 42.7512H7.97815C7.12815 42.7512 6.3623 42.0816 6.3623 41.1641C6.3623 40.7508 6.53062 40.3293 6.7831 40.0813C7.03557 39.8333 7.46478 39.5853 7.88557 39.5853H42.9291V39.668H42.9376Z" fill="white"/>
<path d="M25.458 2.16565L22.3189 3.84362L19.7605 5.21576L18.7758 5.74478L15.7713 7.34836L2.12085 14.6637H44.5451L45.656 14.6389L48.7951 14.581L25.458 2.16565ZM33.2931 13.4982L30.011 11.7458L23.7664 8.40639L25.458 7.49715L32.7545 11.3325C33.2679 11.5805 33.9411 11.4152 34.1936 10.9192C34.303 10.7126 34.3367 10.4729 34.2946 10.2497C34.2525 9.93558 34.0758 9.64628 33.7728 9.49749L25.9629 5.33148C25.66 5.1827 25.3486 5.16617 25.0372 5.29842C25.0035 5.30669 24.9783 5.31495 24.9446 5.33148L21.4773 7.18304L20.7535 6.79455L19.8614 6.31512L20.1897 6.14154L23.4045 4.4305L25.458 3.33114L44.3936 13.4982H33.2931Z" fill="white"/>
<path d="M44.3935 13.4982H33.293L30.0108 11.7458L23.7663 8.40643L25.4579 7.49718L32.7544 11.3326C33.2678 11.5805 33.941 11.4152 34.1935 10.9193C34.3029 10.7126 34.3366 10.4729 34.2945 10.2497C34.2524 9.93562 34.0757 9.64631 33.7727 9.49753L25.9628 5.33152C25.6598 5.18273 25.3485 5.1662 25.0371 5.29846C25.0034 5.30672 24.9782 5.31499 24.9445 5.33152L21.4772 7.18308L20.7534 6.79458L19.8613 6.31516L20.1895 6.14158L23.4044 4.43054L25.4579 3.33118L44.3935 13.4982Z" fill="#313AF4"/>
<path d="M47.7683 34.5018C48.3322 34.5018 48.7866 34.9482 48.7866 35.502C48.7866 36.0558 48.3322 36.5022 47.7683 36.5022C47.2045 36.5022 46.75 36.0558 46.75 35.502C46.75 34.9482 47.2045 34.5018 47.7683 34.5018Z" fill="black" fill-opacity="0.8"/>
<path d="M45.6475 27.17C46.2113 27.17 46.6658 27.6164 46.6658 28.1702C46.6658 28.724 46.2113 29.1704 45.6475 29.1704C45.0836 29.1704 44.6292 28.724 44.6292 28.1702C44.6292 27.6164 45.0836 27.17 45.6475 27.17Z" fill="black" fill-opacity="0.8"/>
<path d="M36.0618 3.24854C36.6256 3.24854 37.0801 3.69489 37.0801 4.24871C37.0801 4.80252 36.6256 5.24888 36.0618 5.24888C35.4979 5.24888 35.0435 4.80252 35.0435 4.24871C35.0435 3.69489 35.4979 3.24854 36.0618 3.24854Z" fill="black" fill-opacity="0.8"/>
<path d="M13.8357 1.16553C14.3996 1.16553 14.854 1.61189 14.854 2.1657C14.854 2.71951 14.3996 3.16587 13.8357 3.16587C13.2718 3.16587 12.8174 2.71951 12.8174 2.1657C12.8174 1.61189 13.2718 1.16553 13.8357 1.16553Z" fill="black" fill-opacity="0.8"/>
<path d="M5.344 6.33167C5.90786 6.33167 6.36232 6.77802 6.36232 7.33184C6.36232 7.88565 5.90786 8.33201 5.344 8.33201C4.78014 8.33201 4.32568 7.88565 4.32568 7.33184C4.32568 6.77802 4.78014 6.33167 5.344 6.33167Z" fill="black" fill-opacity="0.8"/>
<path d="M29.1862 40.6682C28.5886 40.6682 28.0837 40.1722 28.0837 39.5853V37.5023C27.4861 37.5023 26.9812 36.9981 26.9812 36.4195C26.9812 35.8409 27.4946 35.3367 28.0837 35.3367H29.1862C29.7837 35.3367 30.2886 35.8326 30.2886 36.4195V39.5853C30.2045 40.1722 29.7837 40.6682 29.1862 40.6682Z" fill="black" fill-opacity="0.8"/>
<path d="M21.7214 40.6682C21.1238 40.6682 20.6189 40.1722 20.6189 39.5853V36.5021C20.6189 35.9153 21.1238 35.4193 21.7214 35.4193H22.8238C23.4214 35.4193 23.9263 35.9153 23.9263 36.5021C23.9263 37.089 23.4214 37.585 22.8238 37.585V39.668C22.8238 40.1722 22.3189 40.6682 21.7214 40.6682Z" fill="black" fill-opacity="0.8"/>
<path d="M14.8539 37.585C14.2564 37.585 13.7515 37.0808 13.7515 36.5022V25.0043C13.7515 24.4175 14.2648 23.9215 14.8539 23.9215C15.443 23.9215 15.9564 24.4257 15.9564 25.0043V36.5022C15.9564 37.0891 15.443 37.585 14.8539 37.585Z" fill="black" fill-opacity="0.8"/>
<path d="M9.58563 37.585C8.99652 37.585 8.48315 37.0808 8.48315 36.5022V25.0043C8.48315 24.4175 8.99652 23.9215 9.58563 23.9215C10.1747 23.9215 10.6881 24.4257 10.6881 25.0043V36.5022C10.6039 37.0891 10.0906 37.585 9.58563 37.585Z" fill="black" fill-opacity="0.8"/>
<path d="M14.3405 26.0872C13.5747 26.0872 12.8173 25.8392 12.2197 25.4176C11.6222 25.8309 10.8648 26.0872 10.0989 26.0872C9.84646 26.0872 9.58557 26.0872 9.3331 26.0045C7.6331 25.6739 6.3623 24.1695 6.3623 22.4171C6.3623 20.4168 8.0623 18.7471 10.0989 18.7471C10.6965 18.7471 11.2014 19.2513 11.2014 19.8299C11.2014 20.4085 10.6965 20.9127 10.0989 20.9127C9.24894 20.9127 8.4831 21.5823 8.4831 22.4998C8.4831 23.252 8.99646 23.9132 9.75389 23.9959H10.0905C10.5955 23.9959 11.0247 23.7479 11.3613 23.3264C11.5296 23.0784 11.8663 22.9131 12.2113 22.9131C12.5564 22.9131 12.893 23.0784 13.0613 23.3264C13.3979 23.7397 13.8272 23.9959 14.3321 23.9959H14.6687C15.4346 23.8306 15.9395 23.2437 15.9395 22.4998C15.9395 21.6649 15.2579 20.9127 14.3237 20.9127C13.7262 20.9127 13.2212 20.4085 13.2212 19.8299C13.2212 19.2513 13.7262 18.7471 14.3237 18.7471C16.3603 18.7471 18.0603 20.4168 18.0603 22.4171C18.0603 24.1695 16.7895 25.6656 15.0895 26.0045C14.8371 26.0872 14.5846 26.0872 14.3237 26.0872H14.3405Z" fill="black" fill-opacity="0.8"/>
<path d="M15.9564 40.6682C15.3589 40.6682 14.8539 40.1722 14.8539 39.5853V37.5023H9.50988V39.5853C9.50988 40.1722 9.00493 40.6682 8.40741 40.6682C7.80988 40.6682 7.30493 40.1722 7.30493 39.5853V36.5021C7.30493 35.9153 7.80988 35.4193 8.40741 35.4193H15.8723C16.4698 35.4193 16.9747 35.9153 16.9747 36.5021V39.668C16.9747 40.1722 16.4698 40.6682 15.9564 40.6682Z" fill="black" fill-opacity="0.8"/>
<path d="M28.0837 37.585H22.7397C22.1422 37.585 21.6372 37.0808 21.6372 36.5022V25.0043C21.6372 24.4175 22.1422 23.9215 22.7397 23.9215C23.3372 23.9215 23.8422 24.4257 23.8422 25.0043V35.502H27.0654V25.0043C27.0654 24.4175 27.5788 23.9215 28.1679 23.9215C28.757 23.9215 29.2704 24.4257 29.2704 25.0043V36.5022C29.1862 37.0891 28.6729 37.585 28.0837 37.585Z" fill="black" fill-opacity="0.8"/>
<path d="M27.5788 26.0872C26.813 26.0872 26.0471 25.8392 25.458 25.4176C24.8605 25.8309 24.1031 26.0872 23.3372 26.0872C23.0847 26.0872 22.8239 26.0872 22.5714 26.0045C20.8714 25.6739 19.6006 24.1695 19.6006 22.4171C19.6006 20.4168 21.3006 18.7471 23.3372 18.7471C23.9347 18.7471 24.4397 19.2513 24.4397 19.8299C24.4397 20.4085 23.9263 20.9127 23.3372 20.9127C22.4872 20.9127 21.7214 21.5823 21.7214 22.4998C21.7214 23.252 22.2347 23.9132 22.9922 23.9959H23.3288C23.8338 23.9959 24.263 23.7479 24.5996 23.3264C24.7679 23.0784 25.113 22.9131 25.4496 22.9131C25.7862 22.9131 26.1313 23.0784 26.2996 23.3264C26.6362 23.7397 27.0654 23.9959 27.5704 23.9959H27.907C28.6729 23.8306 29.1778 23.2437 29.1778 22.4998C29.1778 21.6649 28.4961 20.9127 27.562 20.9127C26.9644 20.9127 26.4595 20.4085 26.4595 19.8299C26.4595 19.2513 26.9644 18.7471 27.562 18.7471C29.5986 18.7471 31.2986 20.4168 31.2986 22.4171C31.2986 24.1695 30.0278 25.6656 28.3278 26.0045C28.0753 26.0872 27.8144 26.0872 27.562 26.0872H27.5788Z" fill="black" fill-opacity="0.8"/>
<path d="M41.4059 37.585C40.8084 37.585 40.3035 37.0808 40.3035 36.5022V25.0043C40.3035 24.4175 40.8084 23.9215 41.4059 23.9215C42.0035 23.9215 42.5084 24.4257 42.5084 25.0043V36.5022C42.4243 37.0891 41.9109 37.585 41.4059 37.585Z" fill="black" fill-opacity="0.8"/>
<path d="M36.0619 37.585C35.4644 37.585 34.9595 37.0808 34.9595 36.5022V25.0043C34.9595 24.4175 35.4644 23.9215 36.0619 23.9215C36.6595 23.9215 37.1644 24.4257 37.1644 25.0043V36.5022C37.1644 37.0891 36.6595 37.585 36.0619 37.585Z" fill="black" fill-opacity="0.8"/>
<path d="M44.5451 22.4171C44.5451 23.8306 43.7203 25.0787 42.5084 25.6739C42.2223 25.8227 41.9109 25.9301 41.5827 25.9963C41.5238 26.021 41.4649 26.0293 41.406 26.0376C41.3807 26.0541 41.347 26.0541 41.3218 26.0541C41.1535 26.0872 40.9852 26.0872 40.8168 26.0872C40.6485 26.0872 40.4718 26.0706 40.3035 26.0458C39.7144 25.9632 39.1505 25.74 38.696 25.4176C38.25 25.7235 37.7198 25.9467 37.1644 26.0376C37.1223 26.0458 37.0802 26.0541 37.0381 26.0541C36.8866 26.0789 36.7267 26.0872 36.5753 26.0872C36.4069 26.0872 36.2302 26.0872 36.0619 26.0541C35.9777 26.0458 35.8936 26.0293 35.8094 25.9963C35.5149 25.9384 35.2287 25.8475 34.9594 25.7152C33.7055 25.1366 32.8386 23.8637 32.8386 22.4171C32.8386 21.8798 32.9564 21.3756 33.1753 20.9127C33.3604 20.5077 33.6213 20.144 33.9411 19.8299C34.2609 19.5158 34.6228 19.2678 35.0267 19.086C35.1109 19.0529 35.1951 19.0116 35.2792 18.9868C35.4475 18.9207 35.6158 18.8711 35.7926 18.8297C36.0451 18.7719 36.3059 18.7471 36.5753 18.7471C36.7099 18.7471 36.8446 18.7719 36.9708 18.8297C36.996 18.8297 37.0213 18.8463 37.0381 18.8628C37.4084 19.0364 37.6777 19.4083 37.6777 19.8299C37.6777 20.2597 37.4084 20.6317 37.0381 20.8053C36.8951 20.8714 36.7352 20.9127 36.5753 20.9127C35.7253 20.9127 34.9594 21.5823 34.9594 22.4998C34.9594 23.1445 35.3381 23.7149 35.9188 23.9298C35.9188 23.9298 35.9244 23.9325 35.9357 23.938C36.0198 23.9628 36.1292 23.9876 36.2302 24.0042H36.5753C36.7352 24.0042 36.8951 23.9794 37.0381 23.9298C37.3495 23.8223 37.6188 23.6157 37.846 23.3346C38.0144 23.0867 38.351 22.9131 38.696 22.9131C39.0411 22.9131 39.3693 23.0867 39.5461 23.3346C39.8827 23.7479 40.3035 24.0042 40.8168 24.0042H41.1535C41.2124 23.9876 41.2713 23.9794 41.3218 23.9546C41.3555 23.9463 41.3807 23.938 41.406 23.9215H41.4144C41.4144 23.9215 41.4312 23.9132 41.4396 23.9132C42.0456 23.6818 42.4243 23.1528 42.4243 22.4998C42.4243 21.8468 41.9866 21.202 41.3218 20.9871C41.1619 20.9375 40.9936 20.9127 40.8168 20.9127C40.2193 20.9127 39.7228 20.425 39.7144 19.8382C39.7144 19.3835 40.0089 18.9868 40.4213 18.8297C40.5391 18.7719 40.6738 18.7471 40.8168 18.7471C40.9852 18.7471 41.1535 18.7553 41.3218 18.7801L41.5995 18.8297C42.3064 18.9868 42.946 19.3422 43.4426 19.8299C43.7624 20.144 44.0233 20.5077 44.2084 20.9127C44.4272 21.3756 44.5451 21.8798 44.5451 22.4171Z" fill="black" fill-opacity="0.8"/>
<path d="M42.4242 40.6682C41.8267 40.6682 41.3217 40.1722 41.3217 39.5853V37.5023H35.9777V39.5853C35.9777 40.1722 35.4643 40.6682 34.8752 40.6682C34.2861 40.6682 33.7727 40.1722 33.7727 39.5853V36.5021C33.7727 35.9153 34.2861 35.4193 34.8752 35.4193H42.4242C43.0217 35.4193 43.5267 35.9153 43.5267 36.5021V39.668C43.5267 40.1722 43.0217 40.6682 42.4242 40.6682Z" fill="black" fill-opacity="0.8"/>
<path d="M10.5031 18.8297C10.5031 18.8297 10.5367 18.8462 10.5536 18.8545C10.6041 18.871 10.6461 18.8958 10.6882 18.9206C10.6966 18.9289 10.7051 18.9371 10.7135 18.9454C10.7724 18.9785 10.8313 19.028 10.8734 19.0776C10.966 19.1603 11.0333 19.2595 11.0838 19.3669C11.109 19.4 11.1174 19.4331 11.1343 19.4661C11.1511 19.5075 11.1595 19.5488 11.1679 19.5901C11.1763 19.6067 11.1763 19.6149 11.1763 19.6315C11.1932 19.6976 11.2016 19.7637 11.2016 19.8298H14.3407C14.4333 19.8298 14.5259 19.8381 14.61 19.8464C14.6689 19.8464 14.7278 19.8546 14.7783 19.8712C14.812 19.8712 14.8372 19.8794 14.8709 19.8877C14.8877 19.8877 14.913 19.896 14.9298 19.896C14.9635 19.9042 14.9971 19.9125 15.0308 19.9208C15.0645 19.929 15.0897 19.9373 15.1234 19.9538C15.1739 19.9704 15.2244 19.9869 15.2664 20.0034C15.3674 20.0365 15.46 20.0778 15.5526 20.1274C15.5694 20.1357 15.5862 20.1439 15.5947 20.1522C15.6283 20.1605 15.662 20.177 15.6872 20.2018C15.7293 20.2266 15.7714 20.2514 15.8135 20.2762C15.8808 20.3258 15.9481 20.3754 16.007 20.425C16.0239 20.4332 16.0323 20.4498 16.0491 20.458L16.0996 20.5076C16.1585 20.5572 16.2174 20.6151 16.2679 20.673C16.3353 20.7391 16.4026 20.8217 16.4615 20.9044H33.1669C33.3521 20.4994 33.613 20.1357 33.9328 19.8216C34.2526 19.5075 34.6145 19.2595 35.0184 19.0776C35.1026 19.0446 35.1867 19.0032 35.2709 18.9785C35.4392 18.9123 35.6075 18.8627 35.7843 18.8214H10.5031V18.8297ZM15.0897 18.8297C15.5442 18.9206 15.965 19.1024 16.3437 19.3339C16.411 19.3835 16.4699 19.4248 16.5288 19.4661C16.6887 19.5736 16.8318 19.6976 16.9664 19.8298H21.5531L21.7803 20.3258V20.3423L22.0496 20.9127H27.4778C27.4778 20.9127 27.4189 20.9044 27.3853 20.8961C27.3684 20.8961 27.3432 20.8879 27.3179 20.8796C27.2422 20.8631 27.1749 20.8383 27.1075 20.8052C27.0486 20.7804 26.9981 20.7474 26.9476 20.7143C26.8887 20.673 26.8382 20.6316 26.7962 20.582C26.7457 20.5407 26.7036 20.4828 26.6699 20.4332C26.6447 20.4002 26.6278 20.3754 26.6194 20.3423C26.611 20.3258 26.5942 20.3093 26.5858 20.2845C26.5773 20.2679 26.5605 20.2514 26.5605 20.2349C26.5353 20.177 26.51 20.1109 26.5016 20.053C26.4848 19.9786 26.4763 19.9125 26.4763 19.8381L33.9412 19.8298C34.2526 19.524 34.6229 19.2678 35.0268 19.0859C35.111 19.0528 35.1952 19.0115 35.2793 18.9867C35.4476 18.9206 35.616 18.871 35.7927 18.8297H15.0897ZM15.0897 18.8297C15.5442 18.9206 15.965 19.1024 16.3437 19.3339C16.411 19.3835 16.4699 19.4248 16.5288 19.4661C16.6887 19.5736 16.8318 19.6976 16.9664 19.8298H21.5531L21.7803 20.3258V20.3423L22.0496 20.9127H27.4778C27.4778 20.9127 27.4189 20.9044 27.3853 20.8961C27.3684 20.8961 27.3432 20.8879 27.3179 20.8796C27.2422 20.8631 27.1749 20.8383 27.1075 20.8052C27.0486 20.7804 26.9981 20.7556 26.9476 20.7143C26.8887 20.6812 26.8382 20.6316 26.7962 20.582C26.7457 20.5407 26.7036 20.4828 26.6699 20.4332C26.6447 20.4002 26.6278 20.3754 26.6194 20.3423C26.611 20.3258 26.5942 20.3093 26.5858 20.2845C26.5689 20.2679 26.5689 20.2514 26.5605 20.2349C26.5353 20.177 26.51 20.1109 26.5016 20.053C26.4848 19.9786 26.4763 19.9125 26.4763 19.8381L33.9412 19.8298C34.2526 19.524 34.6229 19.2678 35.0268 19.0859C35.111 19.0528 35.1952 19.0115 35.2793 18.9867C35.4476 18.9206 35.616 18.871 35.7927 18.8297H15.0897ZM44.5452 13.4982H6.36249C5.77338 13.4982 5.26001 14.0024 5.26001 14.581V19.8298C5.26001 20.4167 5.77338 20.9127 6.36249 20.9127H44.5452C45.1427 20.9127 45.6561 20.4167 45.6561 19.8298V14.581C45.6561 14.0024 45.1427 13.4982 44.5452 13.4982ZM7.47338 18.8297V15.6638H43.5268V18.8297H7.47338ZM15.0897 18.8297C15.5442 18.9206 15.965 19.1024 16.3437 19.3339C16.411 19.3835 16.4699 19.4248 16.5288 19.4661C16.6887 19.5736 16.8318 19.6976 16.9664 19.8298H21.5531L21.7803 20.3258V20.3423L22.0496 20.9127H27.4778C27.4778 20.9127 27.4189 20.9044 27.3853 20.8961C27.3684 20.8961 27.3432 20.8879 27.3179 20.8796C27.2422 20.8631 27.1749 20.8383 27.1075 20.8052C27.0486 20.7804 26.9981 20.7474 26.9476 20.7143C26.8887 20.673 26.8382 20.6316 26.7962 20.582C26.7457 20.5407 26.7036 20.4828 26.6699 20.4332C26.6447 20.4002 26.6278 20.3754 26.6194 20.3423C26.611 20.3258 26.5942 20.3093 26.5858 20.2845C26.5773 20.2679 26.5605 20.2514 26.5605 20.2349C26.5353 20.177 26.51 20.1109 26.5016 20.053C26.4848 19.9786 26.4763 19.9125 26.4763 19.8381L33.9412 19.8298C34.2526 19.524 34.6229 19.2678 35.0268 19.0859C35.111 19.0528 35.1952 19.0115 35.2793 18.9867C35.4476 18.9206 35.616 18.871 35.7927 18.8297H15.0897ZM10.5031 18.8297C10.5031 18.8297 10.5367 18.8462 10.5536 18.8545C10.6041 18.871 10.6461 18.8958 10.6882 18.9206C10.6966 18.9289 10.7051 18.9371 10.7135 18.9454C10.7724 18.9785 10.8313 19.028 10.8734 19.0776C10.966 19.1603 11.0333 19.2595 11.0838 19.3669C11.109 19.4 11.1174 19.4331 11.1343 19.4661C11.1511 19.5075 11.1595 19.5488 11.1679 19.5901C11.1763 19.6067 11.1763 19.6149 11.1763 19.6315C11.1932 19.6976 11.2016 19.7637 11.2016 19.8298H14.3407C14.4333 19.8298 14.5259 19.8381 14.61 19.8464C14.6689 19.8464 14.7278 19.8546 14.7783 19.8712C14.812 19.8712 14.8372 19.8794 14.8709 19.8877C14.8877 19.8877 14.913 19.896 14.9298 19.896C14.9635 19.9042 14.9971 19.9125 15.0308 19.9208C15.0645 19.929 15.0897 19.9373 15.1234 19.9538C15.1739 19.9704 15.2244 19.9869 15.2664 20.0034C15.3674 20.0365 15.46 20.0778 15.5526 20.1274C15.5694 20.1357 15.5862 20.1439 15.5947 20.1522C15.6283 20.1605 15.662 20.177 15.6872 20.2018C15.7293 20.2266 15.7714 20.2514 15.8135 20.2762C15.8808 20.3258 15.9481 20.3754 16.007 20.425C16.0239 20.4332 16.0323 20.4498 16.0491 20.458L16.0996 20.5076C16.1585 20.5572 16.2174 20.6151 16.2679 20.673C16.3353 20.7391 16.4026 20.8217 16.4615 20.9044H33.1669C33.3521 20.4994 33.613 20.1357 33.9328 19.8216C34.2526 19.5075 34.6145 19.2595 35.0184 19.0776C35.1026 19.0446 35.1867 19.0032 35.2709 18.9785C35.4392 18.9123 35.6075 18.8627 35.7843 18.8214H10.5031V18.8297Z" fill="black" fill-opacity="0.8"/>
<path d="M43.5267 15.6639V18.8298H41.5995L41.3217 18.7802C41.1534 18.7554 40.9851 18.7471 40.8168 18.7471C40.6737 18.7471 40.5391 18.7719 40.4213 18.8298H37.0381V15.6639H43.5267Z" fill="#313AF4"/>
<path d="M45.6559 41.2551C45.6559 41.3956 45.6475 41.5278 45.6222 41.6684C45.5549 42.0486 45.4118 42.4288 45.1678 42.7512C45.092 42.8669 44.991 42.9826 44.89 43.0818C44.4692 43.3794 44.0569 43.6274 43.5772 43.7514C43.3752 43.801 43.1648 43.834 42.9376 43.834C42.7861 43.834 42.643 43.801 42.5168 43.7514C42.1212 43.5778 41.8351 43.1893 41.8351 42.7512C41.8351 42.1643 42.34 41.6684 42.9376 41.6684C43.1059 41.6684 43.19 41.5857 43.2742 41.503C43.3583 41.4204 43.4425 41.2551 43.4425 41.1641C43.4425 40.9162 43.19 40.6682 42.9376 40.6682H7.97815C7.80984 40.6682 7.72568 40.7509 7.64152 40.8335C7.55736 40.9162 7.4732 40.9988 7.4732 41.1641C7.4732 41.4204 7.72568 41.6684 7.97815 41.6684C8.57568 41.6684 9.08063 42.1643 9.08063 42.7512C9.08063 43.1893 8.79449 43.5778 8.39894 43.7514C8.27271 43.801 8.12964 43.834 7.97815 43.834C7.75092 43.834 7.53211 43.8092 7.32172 43.7514C6.72419 43.5943 6.19399 43.2389 5.84053 42.7512C5.60489 42.4371 5.44498 42.0651 5.37766 41.6684C5.35241 41.5361 5.34399 41.3956 5.34399 41.2551C5.34399 40.5855 5.60489 39.916 6.10984 39.42C6.44647 39.0894 6.85885 38.8662 7.29647 38.7588C7.51528 38.6926 7.75092 38.6678 7.97815 38.6678H43.0217C43.19 38.6678 43.3584 38.6844 43.5267 38.7174C44.7301 38.9489 45.6559 39.9987 45.6559 41.2551Z" fill="black" fill-opacity="0.8"/>
<path d="M48.795 42.7512V46.9172C48.795 47.504 48.2817 48 47.7767 48C47.1792 48 46.6742 47.504 46.6742 46.9172V43.7513H4.24157V46.9172C4.24157 47.504 3.73662 48 3.1391 48C2.54157 48 2.03662 47.504 2.03662 46.9172V42.7512C2.03662 42.1643 2.54999 41.6683 3.1391 41.6683H47.6926C48.2817 41.6683 48.795 42.1643 48.795 42.7512Z" fill="black" fill-opacity="0.8"/>
<path d="M51 46.9172C50.9158 47.5041 50.4025 48 49.8975 48H1.10248C0.513366 48 0 47.5041 0 46.9172C0 46.3303 0.513366 45.8344 1.10248 45.8344H49.8975C50.4866 45.8344 51 46.3386 51 46.9172Z" fill="black" fill-opacity="0.8"/>
<path d="M49.8134 15.0027C49.7292 15.4986 49.3 15.7466 48.795 15.7466L45.6559 15.6887L44.545 15.6639C43.9559 15.6639 43.5267 15.168 43.4426 14.6638C43.4426 14.0852 43.9559 13.5809 44.4609 13.5809H44.545L44.3936 13.4983L25.4579 3.33124L23.4044 4.4306L20.1896 6.14164L19.8614 6.31523L16.2005 8.27424L6.42969 13.4983L6.27821 13.5809H6.36236C6.95989 13.5809 7.47326 14.0852 7.47326 14.6638C7.47326 15.2424 6.95989 15.7466 6.36236 15.7466H2.12078C1.61583 15.7466 1.19504 15.416 1.10246 15.0027C1.0183 14.4985 1.19504 14.0852 1.61583 13.8289L15.3589 6.46401L17.749 5.19107L19.348 4.33141L21.2837 3.28991L24.9445 1.3309C25.2896 1.16558 25.6262 1.16558 25.9629 1.3309L49.3 13.8289C49.7292 14.0852 49.9817 14.5811 49.8134 15.0027Z" fill="black" fill-opacity="0.8"/>
<path d="M34.1936 10.9192C33.9411 11.4152 33.2679 11.5805 32.7545 11.3325L25.458 7.49714L23.7664 8.40639L21.7382 9.48922L18.1614 11.4152C18.01 11.4896 17.8501 11.4978 17.6902 11.4978H17.6481C17.3114 11.4978 16.8907 11.3325 16.7223 10.9192C16.5204 10.5225 16.5793 10.0265 16.8654 9.7124C16.9411 9.62148 17.0337 9.55535 17.1431 9.49749L20.8293 7.53021L21.4773 7.18304L24.9446 5.33148C24.9446 5.33148 25.0035 5.30668 25.0372 5.29842C25.3486 5.16616 25.66 5.1827 25.9629 5.33148L33.7728 9.49749C34.0758 9.64627 34.2525 9.93558 34.2946 10.2497C34.3367 10.4729 34.303 10.7126 34.1936 10.9192Z" fill="black" fill-opacity="0.8"/>
<path d="M3.22327 32.3362C1.44752 32.3362 0 30.9145 0 29.1704C0 27.4263 1.43911 26.0045 3.22327 26.0045C5.00743 26.0045 6.44653 27.418 6.44653 29.1704C6.44653 30.9227 4.91485 32.3362 3.22327 32.3362ZM3.22327 28.1702C2.62574 28.1702 2.12079 28.6661 2.12079 29.253C2.12079 29.8399 2.63416 30.3358 3.22327 30.3358C3.81238 30.3358 4.32574 29.8316 4.32574 29.253C4.32574 28.6744 3.72822 28.1702 3.22327 28.1702Z" fill="black" fill-opacity="0.8"/>
<path d="M45.0584 7.33193C43.0218 7.33193 41.3218 5.66222 41.3218 3.66187C41.3218 1.66153 43.0218 -0.00817871 45.0584 -0.00817871C47.095 -0.00817871 48.795 1.66153 48.795 3.66187C48.795 5.66222 47.095 7.33193 45.0584 7.33193ZM45.0584 2.16575C44.2084 2.16575 43.4426 2.83529 43.4426 3.7528C43.4426 4.67031 44.1243 5.33985 45.0584 5.33985C45.9084 5.33985 46.6658 4.67031 46.6658 3.7528C46.6658 2.83529 45.9842 2.16575 45.0584 2.16575Z" fill="black" fill-opacity="0.8"/>
</g>
<defs>
<clipPath id="clip0_30_1329">
<rect width="51" height="48" fill="white"/>
</clipPath>
</defs>
</svg>
