<svg width="51" height="49" viewBox="0 0 51 49" fill="none" xmlns="http://www.w3.org/2000/svg">
<g clip-path="url(#clip0_30_1460)">
<path d="M27.5833 3.24306V4.32407H23.3411V3.24306C23.3411 2.07954 24.2754 1.16357 25.4622 1.16357C26.0598 1.16357 26.5649 1.41113 26.9857 1.74946C27.3224 2.16206 27.5833 2.66543 27.5833 3.24306Z" fill="white"/>
<path d="M47.7762 8.40051C48.9462 8.40051 49.8973 9.33298 49.8973 10.48C49.8973 11.627 48.9462 12.5595 47.7762 12.5595C46.6062 12.5595 45.655 11.627 45.655 10.48C45.655 9.33298 46.6062 8.40051 47.7762 8.40051Z" fill="white"/>
<path d="M3.22368 26.1173C4.39516 26.1173 5.34482 25.1863 5.34482 24.0379C5.34482 22.8894 4.39516 21.9584 3.22368 21.9584C2.05221 21.9584 1.10254 22.8894 1.10254 24.0379C1.10254 25.1863 2.05221 26.1173 3.22368 26.1173Z" fill="white"/>
<path d="M40.5712 46.838H37.5157L34.1572 43.5455V39.6011H36.4972L40.5712 46.838Z" fill="#FACB3F"/>
<path d="M41.8168 46.838L37.7344 39.601L37.1705 38.6025H27.5833L28.3324 39.3287L34.1571 44.9895L36.0594 46.838L37.1705 47.919H42.4312L41.8168 46.838ZM37.5156 46.838L34.1571 43.5455V39.601H36.4971L40.571 46.838H37.5156Z" fill="white"/>
<path d="M24.4436 38.6025L14.8479 47.919H9.58716L14.8479 38.6025H24.4436Z" fill="white"/>
<path d="M46.7662 36.3498C46.7662 36.6881 46.5979 36.9357 46.4211 37.1007C46.1686 37.3483 45.9161 37.4391 45.6636 37.4391H37.1706C37.0275 37.4391 36.8844 37.4721 36.7497 37.5216H34.1572V35.4421H42.4314C42.6586 35.4421 42.8775 35.3843 43.0542 35.2688H45.6636C46.2528 35.2688 46.7662 35.7722 46.7662 36.3498Z" fill="#FACB3F"/>
<path d="M45.6634 34.4436H5.35332C4.7557 34.4436 4.25066 34.6086 3.82138 35.0212C3.48469 35.4421 3.23218 35.9372 3.23218 36.5231C3.23218 37.6866 4.15807 38.6026 5.35332 38.6026H45.6634C46.2526 38.6026 46.8503 38.4293 47.187 38.0167C47.5236 37.6041 47.7846 37.1007 47.7846 36.5231C47.7846 35.3513 46.8503 34.4436 45.6634 34.4436ZM46.421 37.1007C46.1685 37.3483 45.916 37.4391 45.6634 37.4391H37.1705C37.0274 37.4391 36.8843 37.4721 36.7496 37.5216H34.1571V35.4421H42.4312C42.6585 35.4421 42.8773 35.3843 43.0541 35.2688H45.6634C46.2526 35.2688 46.7661 35.7722 46.7661 36.3498C46.7661 36.6881 46.5978 36.9357 46.421 37.1007Z" fill="white"/>
<path d="M13.2404 19.3013C13.2404 25.9524 18.7621 31.2749 25.4622 31.2749C25.7568 31.2749 26.043 31.2749 26.3544 31.2583C26.8342 31.6627 27.4402 31.8607 28.0968 31.8607C29.2331 31.8607 30.2011 31.1511 30.6219 30.2351C31.9687 29.6327 33.1555 28.8158 34.1572 27.8173V33.4451H9.5957V31.2749H14.8565C15.4457 31.2749 15.9591 30.7797 15.9591 30.1938C15.9591 29.608 15.4457 29.1128 14.8565 29.1128H9.5957V5.32251H34.1572V10.9586C31.935 8.75532 28.8459 7.402 25.4622 7.402C18.7621 7.402 13.2404 12.642 13.2404 19.3013Z" fill="white"/>
<path d="M8.49292 4.24146V34.4435H42.4312V4.24146H8.49292ZM9.59558 33.4451V31.2748H14.8563C15.4456 31.2748 15.959 30.7797 15.959 30.1938C15.959 29.6079 15.4456 29.1128 14.8563 29.1128H9.59558V5.32246H34.1571V10.9585C31.9349 8.75526 28.8458 7.40195 25.4621 7.40195C18.7619 7.40195 13.2402 12.6419 13.2402 19.3012C13.2402 25.9606 18.7619 31.2748 25.4621 31.2748C25.7567 31.2748 26.0428 31.2748 26.3543 31.2583C26.8341 31.6626 27.4401 31.8607 28.0967 31.8607C29.233 31.8607 30.201 31.151 30.6218 30.2351C31.9686 29.6327 33.1554 28.8157 34.1571 27.8172V33.4451H9.59558Z" fill="#FACB3F"/>
<path d="M36.5729 19.3838C36.5729 23.9554 33.6857 27.8668 29.696 29.4512V21.3808C30.967 20.6298 31.8171 19.3013 31.8171 17.7994C31.8171 15.4724 29.9485 13.6404 27.5748 13.6404C25.622 13.6404 24.0143 14.8865 23.5009 16.6359C22.9033 16.05 22.1457 15.7199 21.2114 15.7199C19.427 15.7199 17.9876 17.131 17.9876 18.8804C17.9876 20.6298 19.427 22.0409 21.2114 22.0409C22.4824 22.0409 23.5851 21.29 24.0985 20.209C24.6961 21.0424 25.5379 21.6201 26.5563 21.8759V29.2779C26.5563 29.6079 26.6405 29.9463 26.893 30.1938C26.4722 30.2763 25.9587 30.2763 25.5379 30.2763C19.427 30.2763 14.4187 25.3664 14.4187 19.3755C14.4187 13.3846 19.3428 8.39221 25.4537 8.39221C31.5646 8.39221 36.5729 13.3021 36.5729 19.3755V19.3838Z" fill="white"/>
<path d="M29.7044 29.4512C29.6202 30.2021 28.9384 30.7798 28.0883 30.7798C27.5833 30.7798 27.154 30.5322 26.8173 30.1939C26.649 29.9463 26.4806 29.608 26.4806 29.2779V21.8759C25.4621 21.6284 24.612 21.0425 24.0228 20.209C23.5177 21.29 22.4067 22.041 21.1357 22.041C19.3512 22.041 17.9119 20.6299 17.9119 18.8805C17.9119 17.1311 19.3512 15.72 21.1357 15.72C22.07 15.72 22.8359 16.0501 23.4252 16.636C23.9302 14.8865 25.5463 13.6405 27.4991 13.6405C29.8727 13.6405 31.7414 15.4724 31.7414 17.7995C31.7414 19.3838 30.8912 20.7124 29.6202 21.3808V29.2037C29.7044 29.2862 29.7044 29.3687 29.7044 29.4512Z" fill="white"/>
<path d="M45.655 15.72C46.2189 15.72 46.6734 16.1656 46.6734 16.7185C46.6734 17.2713 46.2189 17.7169 45.655 17.7169C45.091 17.7169 44.6365 17.2713 44.6365 16.7185C44.6365 16.1656 45.091 15.72 45.655 15.72Z" fill="black" fill-opacity="0.8"/>
<path d="M45.655 27.1984C46.2189 27.1984 46.6734 27.644 46.6734 28.1968C46.6734 28.7497 46.2189 29.1953 45.655 29.1953C45.091 29.1953 44.6365 28.7497 44.6365 28.1968C44.6365 27.644 45.091 27.1984 45.655 27.1984Z" fill="black" fill-opacity="0.8"/>
<path d="M3.22381 11.4784C3.7863 11.4784 4.24229 11.0314 4.24229 10.4799C4.24229 9.92848 3.7863 9.48145 3.22381 9.48145C2.66131 9.48145 2.20532 9.92848 2.20532 10.4799C2.20532 11.0314 2.66131 11.4784 3.22381 11.4784Z" fill="black" fill-opacity="0.8"/>
<path d="M14.8479 39.601H5.34489C3.56044 39.601 2.12109 38.1899 2.12109 36.4405C2.12109 35.6071 2.45778 34.8561 3.05541 34.196C3.65303 33.6101 4.49475 33.28 5.34489 33.28H8.48452C9.08214 33.28 9.58718 33.7834 9.58718 34.361C9.58718 34.9387 9.08214 35.442 8.48452 35.442H5.26072C5.0082 35.442 4.74727 35.5246 4.49475 35.7721C4.32641 35.9372 4.24224 36.1847 4.24224 36.523C4.24224 37.1089 4.74727 37.604 5.34489 37.604H14.9321C15.5297 37.604 16.0348 38.1074 16.0348 38.685C15.9506 39.1802 15.4372 39.601 14.8479 39.601Z" fill="black" fill-opacity="0.8"/>
<path d="M27.5833 39.6011H24.3595C23.7619 39.6011 23.2568 39.0977 23.2568 38.5201C23.2568 37.9425 23.7619 37.4391 24.3595 37.4391H27.5833C28.1809 37.4391 28.686 37.9342 28.686 38.5201C28.686 39.1885 28.1809 39.6011 27.5833 39.6011Z" fill="black" fill-opacity="0.8"/>
<path d="M48.8873 36.2673C48.8873 37.1008 48.5422 37.8517 47.953 38.5201C47.2712 39.2628 46.5052 39.6011 45.6635 39.6011H37.1705C36.6066 39.6011 36.1184 39.1472 36.0763 38.6026C36.0679 38.5778 36.0679 38.5448 36.0679 38.5201C36.0679 38.0827 36.3541 37.6949 36.7497 37.5216C36.8843 37.4721 37.0274 37.4391 37.1705 37.4391H45.6635C45.916 37.4391 46.1685 37.3483 46.4211 37.1007C46.5978 36.9357 46.7662 36.6882 46.7662 36.3498C46.7662 35.7722 46.2527 35.2688 45.6635 35.2688H42.4313C41.9347 35.2688 41.4886 34.914 41.3707 34.4436C41.3371 34.3611 41.3286 34.2786 41.3286 34.1878C41.3286 33.6102 41.8421 33.1068 42.4313 33.1068H45.6635C47.4396 33.1068 48.8873 34.5261 48.8873 36.2673Z" fill="black" fill-opacity="0.8"/>
<path d="M43.5423 4.24153V34.4436C43.5423 34.7985 43.3487 35.0955 43.0541 35.2688C42.8773 35.3843 42.6585 35.4421 42.4312 35.4421H8.49292C7.92897 35.4421 7.44077 34.9882 7.39868 34.4436C7.39868 34.4106 7.39868 34.3859 7.39868 34.3528V4.24153C7.39868 3.65564 7.90372 3.16052 8.50134 3.16052H23.3493C23.947 3.16052 24.452 3.65564 24.452 4.24153C24.452 4.26628 24.452 4.29929 24.452 4.32405C24.4099 4.86867 23.9301 5.32253 23.3577 5.32253H9.59558V33.4451H41.4127V5.32253H27.5832C27.0192 5.32253 26.531 4.86867 26.489 4.32405C26.4805 4.29929 26.4805 4.26628 26.4805 4.24153C26.4805 3.65564 26.994 3.16052 27.5832 3.16052H42.4312C43.0288 3.16052 43.5423 3.65564 43.5423 4.24153Z" fill="black" fill-opacity="0.8"/>
<path d="M27.7516 0.907713C27.0782 0.330077 26.3122 0 25.4621 0C23.6776 0 22.2383 1.41108 22.2383 3.16049V4.2415C22.2383 4.81913 22.7433 5.3225 23.3409 5.3225H27.5832C28.1808 5.3225 28.6859 4.81913 28.6859 4.2415V3.16049C28.6859 2.32705 28.3492 1.4936 27.7516 0.907713ZM26.5647 3.24301H24.4436C24.4436 2.65712 24.8645 2.16201 25.4621 2.16201C25.7988 2.16201 26.0597 2.32705 26.228 2.49208C26.4806 2.73964 26.5647 2.9872 26.5647 3.24301Z" fill="black" fill-opacity="0.8"/>
<path d="M9.50316 49C9.33481 49 9.16647 48.9175 8.99812 48.835C8.49309 48.5875 8.31633 47.919 8.57726 47.4239L13.9222 38.025C14.0905 37.6949 14.4272 37.5216 14.8565 37.5216H24.4437C24.8646 37.5216 25.2939 37.7692 25.4622 38.19C25.6306 38.6026 25.5464 39.0235 25.2097 39.3535L15.6225 48.67C15.2016 49.0826 14.5198 49.0826 14.099 48.67C13.6781 48.2574 13.6781 47.589 14.099 47.1764L21.8176 39.6093H15.4541L10.4459 48.4307C10.2775 48.7607 9.94085 49.0166 9.51157 49.0166L9.50316 49Z" fill="black" fill-opacity="0.8"/>
<path d="M43.029 48.835C42.7765 48.9175 42.6081 49 42.4314 49C42.0947 49 41.6738 48.835 41.5055 48.4967L41.1772 47.919L40.5712 46.838L36.4972 39.6011H30.1338L37.5157 46.838L37.8524 47.1681C38.0628 47.3744 38.1722 47.6467 38.1722 47.919C38.1722 48.1914 38.0628 48.4637 37.8524 48.67C37.4315 49.0826 36.7497 49.0826 36.3289 48.67L34.4602 46.838L26.8174 39.3453C26.5901 39.1225 26.4807 38.8749 26.4807 38.6026C26.4807 38.4706 26.506 38.322 26.5649 38.1818C26.7332 37.7692 27.0783 37.5216 27.5834 37.5216H37.1706C37.5999 37.5216 37.9366 37.6866 38.1049 38.0167L38.4416 38.6026L39.0056 39.6011L43.1216 46.838L43.4498 47.4157C43.7108 47.919 43.5424 48.5875 43.029 48.835Z" fill="black" fill-opacity="0.8"/>
<path d="M46.7661 47.919C46.6819 48.4967 46.1685 49 45.6634 49H6.37182C5.77419 49 5.26074 48.4967 5.26074 47.919C5.26074 47.3414 5.77419 46.838 6.37182 46.838H45.6634C46.2527 46.838 46.7661 47.3331 46.7661 47.919Z" fill="black" fill-opacity="0.8"/>
<path d="M37.6839 19.3838C37.6839 22.6351 36.3792 25.6388 34.1571 27.8173C33.1554 28.8158 31.9686 29.6327 30.6218 30.2351C30.4619 30.3176 30.302 30.3836 30.1336 30.4496C29.9569 30.5322 29.8727 30.5322 29.7043 30.5322C29.5192 30.5322 29.334 30.4826 29.1825 30.3919C28.8374 30.2021 28.6017 29.8472 28.6017 29.4511C28.6017 29.0303 28.8542 28.6177 29.2835 28.4527C29.4013 28.4114 29.5107 28.3619 29.6202 28.3041C29.6538 28.2959 29.6791 28.2876 29.7043 28.2711C30.0915 28.1061 30.4535 27.908 30.807 27.6935C32.2043 26.8518 33.349 25.6883 34.1571 24.335C35.0661 22.8331 35.5627 21.1002 35.5627 19.3013C35.5627 17.5023 35.0493 15.7612 34.1571 14.2841C32.4063 11.3712 29.1741 9.39895 25.4621 9.39895C19.8646 9.39895 15.3614 13.8055 15.3614 19.3013C15.3614 24.7971 19.9488 29.1953 25.4621 29.1953C25.7987 29.1953 26.1438 29.1953 26.4805 29.1541C26.5142 29.1458 26.5395 29.1458 26.5647 29.1376C26.6236 29.1293 26.6741 29.1211 26.7331 29.1128H26.9014C27.1287 29.1128 27.3391 29.1871 27.5159 29.3026C27.6674 29.4016 27.7852 29.5337 27.8694 29.6905C27.962 29.839 28.0125 30.0123 28.0125 30.1938C28.0125 30.3919 27.9451 30.5899 27.8273 30.755C27.659 31.0108 27.3812 31.1923 27.0782 31.1923C26.8256 31.2253 26.5815 31.2501 26.3543 31.2583C26.0428 31.2748 25.7567 31.2748 25.4621 31.2748C18.7619 31.2748 13.2402 25.9523 13.2402 19.3013C13.2402 12.6502 18.7619 7.40198 25.4621 7.40198C28.8458 7.40198 31.9349 8.75529 34.1571 10.9586C36.3287 13.1206 37.6839 16.083 37.6839 19.3838Z" fill="black" fill-opacity="0.8"/>
<path d="M27.5833 12.5594C25.7146 12.5594 24.0228 13.5579 23.0884 15.0515C22.4908 14.804 21.9016 14.6389 21.2198 14.6389C18.8462 14.6389 16.9775 16.4709 16.9775 18.7979C16.9775 21.125 18.8462 22.9569 21.2198 22.9569C22.3225 22.9569 23.4251 22.5443 24.1911 21.7934C24.612 22.1234 25.0412 22.3793 25.4621 22.5443V29.1954C25.4621 29.5667 25.5294 29.9298 25.6725 30.2764C25.7483 30.4827 25.8493 30.6724 25.9756 30.8622C26.0934 31.0108 26.2197 31.1511 26.3543 31.2583C26.8341 31.6627 27.4402 31.8607 28.0967 31.8607C29.233 31.8607 30.201 31.1511 30.6219 30.2351C30.706 30.0618 30.765 29.8803 30.807 29.6987V21.9584C32.1706 20.9599 32.9282 19.4663 32.9282 17.7994C32.9282 14.8865 30.4704 12.5594 27.5833 12.5594ZM27.8694 29.6905C27.7432 29.6822 27.6422 29.6492 27.5833 29.5337C27.5833 29.4677 27.5327 29.4099 27.5159 29.3026C27.5075 29.2696 27.4991 29.2366 27.4991 29.1954V21.7934C27.4991 21.2982 27.2466 20.8774 26.7331 20.7949C26.0597 20.6298 25.3779 20.1265 24.9571 19.5488C24.7803 19.3013 24.4436 19.128 24.1069 19.128H23.846C23.5093 19.128 23.1726 19.3838 23.0043 19.7139C22.575 20.3823 21.9016 20.8774 21.0515 20.8774C19.8646 20.8774 18.9303 19.9614 18.9303 18.7979C18.9303 17.6344 19.8646 16.7184 21.0515 16.7184C21.6407 16.7184 22.1541 16.966 22.575 17.3868C22.8275 17.6344 23.2568 17.7169 23.5935 17.6344C23.9386 17.5519 24.2753 17.2218 24.3595 16.8835C24.6961 15.5549 25.9756 14.6389 27.4149 14.6389C29.1994 14.6389 30.6387 16.05 30.6387 17.7994C30.6387 18.8804 30.0411 19.8789 29.0226 20.4648C28.6859 20.6298 28.5176 21.0424 28.5176 21.3808V29.2779C28.5176 29.5337 28.265 29.6987 28.0125 29.6987C27.962 29.6987 27.9115 29.6987 27.8694 29.6905Z" fill="black" fill-opacity="0.8"/>
<path d="M15.9591 30.1938C15.9591 30.7797 15.4457 31.2748 14.8565 31.2748H8.49304C7.89542 31.2748 7.39038 30.7797 7.39038 30.1938C7.39038 29.6079 7.89542 29.1128 8.49304 29.1128H14.8565C15.4457 29.1128 15.9591 29.6162 15.9591 30.1938Z" fill="black" fill-opacity="0.8"/>
<path d="M42.4312 31.2748H36.0677C35.4701 31.2748 34.9651 30.7797 34.9651 30.1938C34.9651 29.6079 35.4701 29.1128 36.0677 29.1128H42.4312C43.0288 29.1128 43.5338 29.6079 43.5338 30.1938C43.5338 30.7797 43.0288 31.2748 42.4312 31.2748Z" fill="black" fill-opacity="0.8"/>
<path d="M3.2238 27.1159C1.43935 27.1159 0 25.7048 0 23.9554C0 22.206 1.43935 20.7949 3.2238 20.7949C5.00825 20.7949 6.4476 22.206 6.4476 23.9554C6.4476 25.7048 4.92408 27.1159 3.2238 27.1159ZM3.2238 22.9569C2.62618 22.9569 2.12114 23.452 2.12114 24.0379C2.12114 24.6238 2.62618 25.1189 3.2238 25.1189C3.82142 25.1189 4.32646 24.6238 4.32646 24.0379C4.32646 23.452 3.72883 22.9569 3.2238 22.9569Z" fill="black" fill-opacity="0.8"/>
<path d="M47.7763 13.6404C45.9918 13.6404 44.5525 12.2294 44.5525 10.4799C44.5525 8.73054 45.9918 7.31946 47.7763 7.31946C49.5607 7.31946 51.0001 8.73054 51.0001 10.4799C51.0001 12.2294 49.4766 13.6404 47.7763 13.6404ZM47.7763 9.48147C47.1787 9.48147 46.6736 9.98483 46.6736 10.5625C46.6736 11.1401 47.1787 11.6435 47.7763 11.6435C48.3739 11.6435 48.8789 11.1401 48.8789 10.5625C48.8789 9.98483 48.2813 9.48147 47.7763 9.48147Z" fill="black" fill-opacity="0.8"/>
</g>
<defs>
<clipPath id="clip0_30_1460">
<rect width="51" height="49" fill="white"/>
</clipPath>
</defs>
</svg>
