<svg width="49" height="49" viewBox="0 0 49 49" fill="none" xmlns="http://www.w3.org/2000/svg">
<g clip-path="url(#clip0_30_1492)">
<path d="M2.59168 40.41C3.46934 40.41 4.17313 41.1357 4.17313 42.0301C4.17313 42.9246 3.46106 43.6503 2.59168 43.6503C1.7223 43.6503 1.00195 42.9246 1.00195 42.0301C1.00195 41.1357 1.71402 40.41 2.59168 40.41Z" fill="white"/>
<path d="M45.3321 1.10535C46.7645 1.10535 47.9154 2.28668 47.9154 3.74647C47.9154 5.20626 46.7562 6.38759 45.3321 6.38759C43.9079 6.38759 42.7405 5.20626 42.7405 3.74647C42.7405 2.28668 43.8997 1.10535 45.3321 1.10535Z" fill="white"/>
<path d="M47.2531 23.5676C47.5843 29.778 45.4977 36.1572 40.8279 41.0091C43.3284 38.2836 41.5814 32.0732 36.9861 25.4409C40.3229 23.9051 43.8335 23.3145 47.2531 23.5676Z" fill="#F7468E"/>
<path d="M25.3776 37.1782C31.8855 41.8614 37.9795 43.6418 40.6539 41.0935C36.5636 45.1775 30.1385 45.7682 23.7051 43.3043C24.0363 41.1779 24.5413 39.1359 25.3776 37.1782Z" fill="white"/>
<path d="M23.6224 47.6415C18.3647 47.3039 13.1898 45.0932 9.18237 41.0091L13.6038 36.5032C16.6922 39.6506 20.1945 41.9457 23.788 43.3127C23.5396 44.7556 23.5396 46.207 23.6224 47.6499V47.6415Z" fill="white"/>
<path d="M31.306 18.4625C33.5581 20.7577 35.479 23.0528 37.0687 25.3564C34.5599 26.4618 32.225 28.082 30.1385 30.124C28.052 32.2504 26.5451 34.6299 25.4604 37.1867C23.2083 35.5665 20.9562 33.6173 18.6958 31.3137L31.2977 18.471L31.306 18.4625Z" fill="white"/>
<path d="M26.3795 2.21072C26.4623 3.65363 26.3795 5.10498 26.2139 6.5479C19.7888 4.08397 13.3554 4.67464 9.26514 8.75868C13.9432 3.99115 20.2028 1.78037 26.3795 2.21072Z" fill="#F7468E"/>
<path d="M36.3152 13.3575L31.2231 18.5469C28.971 16.2518 26.7189 14.2941 24.4585 12.674C25.2948 10.7164 25.8743 8.67437 26.131 6.54797C29.7162 7.90651 33.2268 10.2101 36.3152 13.3575Z" fill="#F7468E"/>
<path d="M36.3982 13.3575L40.8196 8.85156C44.8271 12.9356 46.9964 18.2094 47.3276 23.5676C43.8252 23.3145 40.3146 23.9895 37.0606 25.4409C35.4709 23.1457 33.5582 20.8505 31.2979 18.5469L36.3899 13.3575H36.3982ZM42.7406 20.2514C42.7406 19.6523 42.2438 19.146 41.6559 19.146C41.068 19.146 40.5713 19.6523 40.5713 20.2514C40.5713 20.8505 41.068 21.3568 41.6559 21.3568C42.2438 21.3568 42.7406 20.8505 42.7406 20.2514Z" fill="#F7468E"/>
<path d="M43.7424 43.5574C44.3385 43.5574 44.827 44.0552 44.827 44.6628C44.827 45.2703 44.3385 45.7682 43.7424 45.7682C43.1462 45.7682 42.6577 45.2703 42.6577 44.6628C42.6577 44.0552 43.1462 43.5574 43.7424 43.5574Z" fill="black" fill-opacity="0.8"/>
<path d="M41.6557 19.1376C42.2519 19.1376 42.7404 19.6354 42.7404 20.243C42.7404 20.8505 42.2519 21.3484 41.6557 21.3484C41.0596 21.3484 40.571 20.8505 40.571 20.243C40.571 19.6354 41.0596 19.1376 41.6557 19.1376Z" fill="black" fill-opacity="0.8"/>
<path d="M37.0688 25.348C41.6558 31.9804 43.4111 38.1908 40.9106 40.9163L40.8278 41.0007L40.745 41.0851C38.0706 43.6334 31.9767 41.8529 25.4688 37.1698C26.5534 34.6215 28.1431 32.2335 30.1469 30.1071C32.1506 28.0651 34.4855 26.445 37.0771 25.3396L37.0688 25.348Z" fill="white"/>
<path d="M40.8195 8.85147L36.3981 13.3574C33.3097 10.21 29.8073 7.91484 26.2139 6.54787C26.3795 5.10496 26.4623 3.65361 26.3795 2.21069C31.6372 2.54822 36.7292 4.759 40.8195 8.84303V8.85147Z" fill="#F7468E"/>
<path d="M23.7879 43.3043C30.213 45.7682 36.6464 45.1775 40.7367 41.0935C36.0586 45.861 29.799 47.9874 23.6223 47.6415C23.5395 46.1986 23.5395 44.7472 23.7879 43.3043Z" fill="white"/>
<path d="M31.3061 18.4625L18.7042 31.3981C16.4521 29.1029 14.5311 26.8078 12.9414 24.5042C15.4419 23.3988 17.7851 21.7787 19.8716 19.7366C21.9581 17.6102 23.4568 15.2307 24.5497 12.674C26.8018 14.2941 29.0539 16.2433 31.3143 18.4625H31.3061Z" fill="white"/>
<path d="M26.2139 6.54796C25.9655 8.67436 25.3777 10.7164 24.5414 12.674C18.0335 7.99088 11.9395 6.21044 9.26514 8.75874C13.3554 4.67471 19.7805 4.08404 26.2139 6.54796Z" fill="#F7468E"/>
<path d="M25.3777 37.1782C24.5414 39.1358 23.9619 41.1779 23.7052 43.3043C20.2028 41.9457 16.6094 39.6421 13.521 36.4947L18.6131 31.3053C20.8652 33.6005 23.2084 35.5581 25.3777 37.1782Z" fill="white"/>
<path d="M24.5413 12.674C23.4566 15.2223 21.8669 17.6103 19.8632 19.7367C17.7767 21.8631 15.4418 23.3989 12.933 24.5042C8.34595 17.8719 6.59063 11.6615 9.09114 8.93596L9.17394 8.85158L9.25673 8.7672C11.9311 6.2189 18.0251 7.91495 24.533 12.6825L24.5413 12.674Z" fill="white"/>
<path d="M13.6037 36.4947L9.18226 41.0007C5.17482 36.9166 3.00551 31.6428 2.67432 26.2846C6.17668 26.5378 9.68733 25.8627 12.9413 24.4114C14.5227 26.7065 16.4437 29.0017 18.7041 31.3053L13.612 36.4947H13.6037Z" fill="white"/>
<path d="M10.3498 1.021C10.9459 1.021 11.4345 1.51884 11.4345 2.12639C11.4345 2.73393 10.9459 3.23178 10.3498 3.23178C9.75365 3.23178 9.26514 2.73393 9.26514 2.12639C9.26514 1.51884 9.75365 1.021 10.3498 1.021Z" fill="black" fill-opacity="0.8"/>
<path d="M9.0995 8.93591C6.59071 11.6614 8.34603 17.8719 12.9413 24.5042C9.68737 25.9471 6.17672 26.5462 2.67435 26.3774C2.34316 20.0826 4.42968 13.7034 9.0995 8.93591Z" fill="white"/>
<path d="M5.17499 4.25281C5.77114 4.25281 6.25965 4.75065 6.25965 5.3582C6.25965 5.96574 5.77114 6.46359 5.17499 6.46359C4.57884 6.46359 4.09033 5.96574 4.09033 5.3582C4.09033 4.75065 4.57884 4.25281 5.17499 4.25281Z" fill="black" fill-opacity="0.8"/>
<path d="M3.08832 46.7892C3.68447 46.7892 4.17298 47.287 4.17298 47.8946C4.17298 48.5021 3.68447 49 3.08832 49C2.49217 49 2.00366 48.5021 2.00366 47.8946C2.00366 47.287 2.49217 46.7892 3.08832 46.7892Z" fill="black" fill-opacity="0.8"/>
<path d="M23.6222 48.7468C23.0344 48.7468 22.6204 48.3249 22.6204 47.7258C22.5376 46.1985 22.6204 44.6628 22.786 43.2199C23.0344 41.0091 23.6222 38.8827 24.5413 36.8407C25.7087 34.1152 27.3813 31.5669 29.4678 29.4405C31.5543 27.3141 33.972 25.6096 36.7292 24.4198C40.066 22.9769 43.825 22.2934 47.5012 22.4622C48.0891 22.4622 48.5031 22.9685 48.5031 23.5676C48.5031 24.1667 47.998 24.5886 47.4184 24.5886C44.0817 24.4198 40.6538 25.0105 37.6483 26.3774C35.2305 27.4828 32.9702 29.0186 31.0575 30.9678C29.1366 32.9254 27.6379 35.1362 26.5533 37.6929C25.7998 39.5662 25.2202 41.5238 24.9718 43.4815C24.8062 44.84 24.7234 46.2913 24.8062 47.6499C24.7234 48.1646 24.3095 48.6709 23.6388 48.7553L23.6222 48.7468Z" fill="black" fill-opacity="0.8"/>
<path d="M4.00755 27.39C3.51076 27.39 3.08849 27.39 2.5917 27.3057C2.00384 27.3057 1.58984 26.7994 1.58984 26.2003C1.58984 25.6012 2.08663 25.1793 2.6745 25.1793C6.01127 25.348 9.43912 24.7573 12.4447 23.3904C14.8624 22.285 17.1228 20.7493 19.0437 18.8001C20.9646 16.8424 22.4633 14.6316 23.5479 12.0833C24.3014 10.2101 24.881 8.25244 25.1294 6.2948C25.295 4.93627 25.3778 3.48492 25.295 2.12639C25.295 1.52728 25.709 1.021 26.2968 1.021C26.8847 1.021 27.3815 1.4429 27.3815 2.04201C27.4643 3.5693 27.3815 5.10503 27.2159 6.54795C26.9675 8.75873 26.3796 10.8851 25.4606 12.9271C24.2931 15.6526 22.6206 18.1166 20.5341 20.3274C18.4476 22.4538 16.0299 24.1582 13.2727 25.348C10.4327 26.7065 7.26152 27.39 4.00755 27.39Z" fill="black" fill-opacity="0.8"/>
<path d="M40.8196 42.03C40.5712 42.03 40.3146 41.9457 40.0662 41.7769C39.6522 41.355 39.6522 40.6715 39.9834 40.2412C41.1508 38.967 40.9024 36.6719 40.4884 34.9674C39.8178 32.3262 38.3191 29.2717 36.067 26.0314C34.4773 23.7363 32.5646 21.4411 30.4781 19.3063C28.3916 17.1714 26.1395 15.2222 23.8874 13.6106C20.7162 11.3154 17.7106 9.77966 15.1191 9.10461C13.4465 8.68271 11.1944 8.42113 9.94417 9.6109C9.53018 10.0328 8.85951 9.94842 8.44552 9.52652C8.03153 9.10461 8.11433 8.42113 8.52832 7.99922C11.5339 5.10496 17.8762 6.55631 25.1376 11.8301C27.4726 13.5346 29.8157 15.5766 31.9851 17.7874C34.1544 19.9982 36.1581 22.3777 37.8306 24.7657C42.9227 32.1659 44.4214 38.6295 41.5897 41.6925C41.4241 41.8613 41.1757 42.03 40.8362 42.03H40.8196Z" fill="black" fill-opacity="0.8"/>
<path d="M37.3172 43.3043C33.9804 43.3043 29.6335 41.5154 24.7981 38.0305C22.4632 36.326 20.12 34.284 17.9507 32.0732C15.7814 29.8624 13.7777 27.4829 12.1051 25.0949C7.01304 17.6947 5.51439 11.2311 8.34609 8.16807C8.76009 7.74616 9.43075 7.74616 9.84474 8.08369C10.2587 8.50559 10.2587 9.18908 9.92754 9.61098C8.76009 10.8851 9.00848 13.1803 9.43075 14.8848C10.1014 17.5259 11.6001 20.5889 13.8522 23.8207C15.4419 26.1159 17.3628 28.411 19.4493 30.5374C21.5359 32.6638 23.788 34.6215 26.0401 36.2332C29.2113 38.5283 32.2168 40.0641 34.8084 40.7391C36.4809 41.161 38.733 41.4226 39.9833 40.2328C40.3973 39.8109 41.068 39.8953 41.4902 40.3172C41.9042 40.7391 41.8214 41.4226 41.4074 41.8445C40.4056 42.8655 38.9897 43.2874 37.3172 43.2874V43.3043Z" fill="black" fill-opacity="0.8"/>
<path d="M40.8196 42.1145C40.5712 42.1145 40.3145 42.0301 40.0661 41.777C39.6521 41.355 39.6521 40.6716 40.0661 40.2412L40.1489 40.1568C44.4047 35.7353 46.6568 29.6936 46.2428 23.5675C45.9117 18.2937 43.7423 13.2731 40.0661 9.52656C36.3899 5.78005 31.4716 3.56927 26.2967 3.23175C20.2856 2.89422 14.2744 5.105 10.0186 9.44218C9.60462 9.86409 8.93396 9.86409 8.51997 9.44218C8.10597 9.02028 8.10597 8.33679 8.51997 7.91489C13.2726 3.14736 19.7888 0.683442 26.3795 1.02097C32.0595 1.35849 37.4828 3.83085 41.4902 7.99927C45.4977 12.0833 47.9154 17.6103 48.3376 23.3988C48.7516 30.2083 46.3339 36.8407 41.6558 41.6082L41.573 41.6926C41.3246 41.9457 41.068 42.1145 40.8196 42.1145Z" fill="black" fill-opacity="0.8"/>
<path d="M24.9638 48.7468C24.4587 48.7468 24.0447 48.7468 23.5479 48.6625C17.8679 48.3249 12.4447 45.8526 8.43722 41.6842C4.42979 37.6001 2.01208 32.0732 1.58981 26.2847C1.17582 19.4751 3.59353 12.8428 8.27163 8.07525L8.35443 7.99087C8.76842 7.56896 9.43908 7.56896 9.85307 7.99087C10.2671 8.41277 10.2671 9.09626 9.85307 9.51816L9.77028 9.60254C5.51445 14.0241 3.26233 20.0658 3.67632 26.1918C4.00752 31.4656 6.17683 36.4863 9.85307 40.2328C13.5293 43.9793 18.4475 46.1901 23.6307 46.5276C29.7247 46.8652 35.653 44.6544 39.9088 40.3172C40.3228 39.8953 40.9935 39.8953 41.4075 40.3172C41.8215 40.7391 41.8215 41.4226 41.4075 41.8445C37.0689 46.2661 31.1405 48.7384 24.9638 48.7384V48.7468Z" fill="black" fill-opacity="0.8"/>
<path d="M31.2232 45.8525C28.7227 45.8525 26.1311 45.3462 23.4568 44.3252C19.6977 42.8823 16.0298 40.4099 12.9414 37.2625C10.8549 35.1361 9.09955 32.7566 7.6837 30.1998C7.43531 29.6936 7.6009 29.0101 8.09769 28.7569C8.59448 28.5038 9.26515 28.6725 9.51354 29.1788C10.7638 31.5584 12.4363 33.7692 14.44 35.8112C17.3628 38.7898 20.6996 41.0006 24.2102 42.3591C30.4698 44.7387 36.3981 44.0636 40.0744 40.4015L40.1572 40.3171C40.5712 39.8952 41.2418 39.8952 41.6558 40.3171C42.0698 40.739 42.0698 41.4225 41.6558 41.8444L41.573 41.9288C38.8158 44.4771 35.2307 45.8441 31.2232 45.8441V45.8525Z" fill="black" fill-opacity="0.8"/>
<path d="M39.4866 18.1166C39.1554 18.1166 38.8159 17.9478 38.6503 17.6947C37.7312 16.4205 36.7294 15.2307 35.6447 14.1254C35.2307 13.7034 35.2307 13.02 35.6447 12.5896C36.0587 12.1677 36.7294 12.1677 37.1434 12.5896C38.3108 13.7794 39.3955 15.0535 40.3973 16.4205C40.7285 16.9268 40.6457 17.5259 40.1489 17.8634C39.9006 18.0322 39.6439 18.1166 39.4783 18.1166H39.4866Z" fill="black" fill-opacity="0.8"/>
<path d="M36.3154 14.3785C36.067 14.3785 35.8186 14.2941 35.5619 14.041C32.6391 11.0623 29.3024 8.85155 25.7917 7.49301C19.5322 5.11347 13.6038 5.78852 9.92758 9.45065L9.84479 9.53503C9.4308 9.95694 8.76013 9.95694 8.34614 9.53503C7.93215 9.11313 7.93215 8.42964 8.34614 8.00774L8.42894 7.92336C12.6848 3.67056 19.3666 2.81831 26.4624 5.45943C30.2214 6.90235 33.8894 9.37471 36.9778 12.5221C37.3918 12.944 37.3918 13.6275 36.9778 14.0494C36.895 14.3026 36.6466 14.3869 36.3071 14.3869L36.3154 14.3785Z" fill="black" fill-opacity="0.8"/>
<path d="M9.18237 42.1145C8.93397 42.1145 8.68558 42.0301 8.4289 41.777C8.01491 41.3551 8.01491 40.6716 8.4289 40.2412L35.6447 12.5052L40.0661 7.99929C40.4801 7.57739 41.1508 7.57739 41.573 7.99929C41.9953 8.42119 41.987 9.10468 41.573 9.52658L37.1516 14.0325L9.93583 41.7685C9.68743 41.9373 9.43904 42.1061 9.18237 42.1061V42.1145Z" fill="black" fill-opacity="0.8"/>
<path d="M46.9136 48.9156H11.4345C10.8466 48.9156 10.3499 48.4093 10.3499 47.8102C10.3499 47.2111 10.8549 46.7048 11.4345 46.7048H46.9136C47.5014 46.7048 47.9982 47.2111 47.9982 47.8102C47.9154 48.4937 47.5014 48.9156 46.9136 48.9156Z" fill="black" fill-opacity="0.8"/>
<path d="M8.26321 48.9156H6.1767C5.58883 48.9156 5.09204 48.4093 5.09204 47.8102C5.09204 47.2111 5.59711 46.7048 6.1767 46.7048H8.26321C8.85108 46.7048 9.34787 47.2111 9.34787 47.8102C9.34787 48.4937 8.85108 48.9156 8.26321 48.9156Z" fill="black" fill-opacity="0.8"/>
<path d="M2.59159 44.6627C1.17574 44.6627 0 43.473 0 42.0216C0 40.5703 1.16746 39.3805 2.59159 39.3805C4.01571 39.3805 5.17489 40.5703 5.17489 42.0216C5.17489 43.473 4.00743 44.6627 2.59159 44.6627ZM2.59159 41.5153C2.34319 41.5153 2.08652 41.7685 2.08652 42.0216C2.08652 42.2748 2.33491 42.5279 2.59159 42.5279C2.84826 42.5279 3.08837 42.2748 3.08837 42.0216C3.08837 41.7685 2.83998 41.5153 2.59159 41.5153Z" fill="black" fill-opacity="0.8"/>
<path d="M45.332 7.48472C43.3283 7.48472 41.6558 5.78023 41.6558 3.73821C41.6558 1.69619 43.3283 -0.00830078 45.332 -0.00830078C47.3357 -0.00830078 49.0082 1.69619 49.0082 3.73821C49.0082 5.78023 47.3357 7.48472 45.332 7.48472ZM45.332 2.12654C44.4957 2.12654 43.7423 2.81002 43.7423 3.74665C43.7423 4.68328 44.4129 5.36676 45.332 5.36676C46.1683 5.36676 46.9217 4.68328 46.9217 3.74665C46.9217 2.81002 46.1683 2.12654 45.332 2.12654Z" fill="black" fill-opacity="0.8"/>
</g>
<defs>
<clipPath id="clip0_30_1492">
<rect width="49" height="49" fill="white"/>
</clipPath>
</defs>
</svg>
