<svg width="51" height="48" viewBox="0 0 51 48" fill="none" xmlns="http://www.w3.org/2000/svg">
<g clip-path="url(#clip0_71_2)">
<path d="M45.0585 1.08276C46.5144 1.08276 47.6842 2.23999 47.6842 3.66999C47.6842 5.09998 46.506 6.25721 45.0585 6.25721C43.611 6.25721 42.4243 5.09998 42.4243 3.66999C42.4243 2.23999 43.6025 1.08276 45.0585 1.08276Z" fill="white"/>
<path d="M3.22333 31.3359C4.39461 31.3359 5.34412 30.4033 5.34412 29.2529C5.34412 28.1025 4.39461 27.1699 3.22333 27.1699C2.05205 27.1699 1.10254 28.1025 1.10254 29.2529C1.10254 30.4033 2.05205 31.3359 3.22333 31.3359Z" fill="white"/>
<path d="M14.8541 25.0043V36.5022H9.51001V25.0043C9.67833 25.0043 9.84664 25.087 10.0234 25.087C10.8734 25.087 11.6392 24.6737 12.1442 24.0042C12.6491 24.6737 13.415 25.087 14.265 25.087C14.5174 25.087 14.6858 25.0043 14.8625 25.0043H14.8541Z" fill="white"/>
<path d="M28.0836 25.0043V36.5022H22.7395V25.0043C22.9078 25.0043 23.0761 25.087 23.2445 25.087C24.0945 25.087 24.8603 24.6737 25.3652 24.0042C25.8786 24.6737 26.636 25.087 27.486 25.087C27.7385 25.087 27.9068 25.0043 28.0836 25.0043Z" fill="white"/>
<path d="M41.4058 25.0043V36.5022H36.0618V25.0043C36.2301 25.0043 36.3984 25.087 36.5667 25.087C37.4167 25.087 38.1826 24.6737 38.6875 24.0042C39.2009 24.6737 39.9583 25.087 40.8083 25.087C40.9766 25.087 41.1449 25.0043 41.4058 25.0043Z" fill="white"/>
<path d="M15.9564 36.5021V39.6679H8.48315V36.5021H9.58563H14.8539H15.9564Z" fill="white"/>
<path d="M29.186 36.5021V39.6679H21.7212V36.5021H22.8237H28.0836H29.186Z" fill="white"/>
<path d="M42.4242 36.5021V39.6679H35.0435V36.5021H36.0618H41.4058H42.4242Z" fill="white"/>
<path d="M40.8168 19.8381C42.2559 19.8381 43.4509 21.0036 43.4509 22.4254C43.4509 23.6735 42.5168 24.7563 41.3302 25.0126C41.1618 25.0126 40.9935 25.0952 40.8168 25.0952C39.9668 25.0952 39.2009 24.6819 38.696 24.0124C38.191 24.6819 37.4252 25.0952 36.5752 25.0952C36.4069 25.0952 36.2386 25.0952 36.0703 25.0126C34.8836 24.7646 33.9495 23.7644 33.9495 22.4254C33.9495 21.0119 35.1361 19.8381 36.5752 19.8381H40.8168Z" fill="white"/>
<path d="M27.5786 19.8381C29.0177 19.8381 30.2044 21.0036 30.2044 22.4254C30.2044 23.6735 29.2702 24.7563 28.0836 25.0126C27.9153 25.0126 27.7469 25.0952 27.5786 25.0952C26.7286 25.0952 25.9628 24.6819 25.4578 24.0124C24.9445 24.6819 24.187 25.0952 23.337 25.0952C23.1687 25.0952 23.0004 25.0952 22.8237 25.0126C21.637 24.7646 20.7029 23.7644 20.7029 22.4254C20.7029 21.0119 21.8895 19.8381 23.337 19.8381H27.5786Z" fill="white"/>
<path d="M14.3407 19.8381C15.7798 19.8381 16.9664 21.0036 16.9664 22.4254C16.9664 23.6735 16.0323 24.7563 14.8457 25.0126C14.6773 25.0126 14.509 25.0952 14.3323 25.0952C13.4823 25.0952 12.7164 24.6819 12.2115 24.0124C11.7065 24.6819 10.9407 25.0952 10.0907 25.0952C9.92238 25.0952 9.75407 25.0952 9.57734 25.0126C8.3907 24.7646 7.45654 23.7644 7.45654 22.4254C7.45654 21.0119 8.64318 19.8381 10.0907 19.8381H14.3323H14.3407Z" fill="white"/>
<path d="M3.22339 42.7511V46.9171H47.7769V42.7511H3.22339ZM37.0382 45.8343V43.7513H42.517C42.6432 43.8009 42.7863 43.8339 42.9377 43.8339C43.165 43.8339 43.3754 43.8009 43.5773 43.7513H46.6744V45.8343H37.0382Z" fill="white"/>
<path d="M46.6742 43.7513V45.8343H37.0381V43.7513H42.5168C42.643 43.8009 42.7861 43.834 42.9376 43.834C43.1648 43.834 43.3752 43.8009 43.5772 43.7513H46.6742Z" fill="#FF6D25"/>
<path d="M6.3623 14.6637V19.8299H44.545V14.6637H6.3623ZM43.5267 18.8297H41.5994L41.3217 18.7801C41.1534 18.7553 40.9851 18.747 40.8168 18.747C40.6737 18.747 40.539 18.7718 40.4212 18.8297H37.038V15.6639H43.5267V18.8297Z" fill="white"/>
<path d="M42.9376 39.668C43.7876 39.668 44.5534 40.3375 44.5534 41.255C44.5534 41.6683 44.3851 42.0899 44.0484 42.3379C43.796 42.5858 43.3668 42.7512 42.946 42.7512H7.97815C7.12815 42.7512 6.3623 42.0816 6.3623 41.1641C6.3623 40.7508 6.53062 40.3293 6.7831 40.0813C7.03557 39.8333 7.46478 39.5853 7.88557 39.5853H42.9291V39.668H42.9376Z" fill="white"/>
<path d="M25.458 2.16565L22.3189 3.84362L19.7605 5.21576L18.7758 5.74478L15.7713 7.34836L2.12085 14.6637H44.5451L45.656 14.6389L48.7951 14.581L25.458 2.16565ZM33.2931 13.4982L30.0109 11.7458L23.7664 8.40639L25.458 7.49715L32.7545 11.3325C33.2679 11.5805 33.9411 11.4152 34.1936 10.9192C34.303 10.7126 34.3367 10.4729 34.2946 10.2497C34.2525 9.93558 34.0758 9.64628 33.7728 9.49749L25.9629 5.33148C25.66 5.1827 25.3486 5.16617 25.0372 5.29842C25.0035 5.30669 24.9783 5.31495 24.9446 5.33148L21.4773 7.18304L20.7535 6.79455L19.8614 6.31512L20.1897 6.14154L23.4045 4.4305L25.458 3.33114L44.3936 13.4982H33.2931Z" fill="white"/>
<path d="M44.3935 13.4982H33.293L30.0108 11.7458L23.7663 8.40643L25.4579 7.49718L32.7544 11.3326C33.2678 11.5805 33.941 11.4152 34.1935 10.9193C34.3029 10.7126 34.3366 10.4729 34.2945 10.2497C34.2524 9.93562 34.0757 9.64631 33.7727 9.49753L25.9628 5.33152C25.6598 5.18273 25.3485 5.1662 25.0371 5.29846C25.0034 5.30672 24.9782 5.31499 24.9445 5.33152L21.4772 7.18308L20.7534 6.79458L19.8613 6.31516L20.1895 6.14158L23.4044 4.43054L25.4579 3.33118L44.3935 13.4982Z" fill="#FF6D25"/>
<path d="M47.7683 34.5018C48.3322 34.5018 48.7866 34.9482 48.7866 35.502C48.7866 36.0558 48.3322 36.5022 47.7683 36.5022C47.2045 36.5022 46.75 36.0558 46.75 35.502C46.75 34.9482 47.2045 34.5018 47.7683 34.5018Z" fill="black"/>
<path d="M45.6475 27.1699C46.2113 27.1699 46.6658 27.6163 46.6658 28.1701C46.6658 28.7239 46.2113 29.1703 45.6475 29.1703C45.0836 29.1703 44.6292 28.7239 44.6292 28.1701C44.6292 27.6163 45.0836 27.1699 45.6475 27.1699Z" fill="black"/>
<path d="M36.0618 3.24841C36.6256 3.24841 37.0801 3.69477 37.0801 4.24859C37.0801 4.8024 36.6256 5.24876 36.0618 5.24876C35.4979 5.24876 35.0435 4.8024 35.0435 4.24859C35.0435 3.69477 35.4979 3.24841 36.0618 3.24841Z" fill="black"/>
<path d="M13.8357 1.16541C14.3996 1.16541 14.854 1.61176 14.854 2.16558C14.854 2.71939 14.3996 3.16575 13.8357 3.16575C13.2718 3.16575 12.8174 2.71939 12.8174 2.16558C12.8174 1.61176 13.2718 1.16541 13.8357 1.16541Z" fill="black"/>
<path d="M5.344 6.33167C5.90786 6.33167 6.36232 6.77802 6.36232 7.33184C6.36232 7.88565 5.90786 8.33201 5.344 8.33201C4.78014 8.33201 4.32568 7.88565 4.32568 7.33184C4.32568 6.77802 4.78014 6.33167 5.344 6.33167Z" fill="black"/>
<path d="M29.1862 40.6682C28.5886 40.6682 28.0837 40.1722 28.0837 39.5853V37.5023C27.4861 37.5023 26.9812 36.9981 26.9812 36.4195C26.9812 35.8409 27.4946 35.3367 28.0837 35.3367H29.1862C29.7837 35.3367 30.2886 35.8326 30.2886 36.4195V39.5853C30.2045 40.1722 29.7837 40.6682 29.1862 40.6682Z" fill="black"/>
<path d="M21.7214 40.6682C21.1238 40.6682 20.6189 40.1722 20.6189 39.5853V36.5021C20.6189 35.9153 21.1238 35.4193 21.7214 35.4193H22.8238C23.4214 35.4193 23.9263 35.9153 23.9263 36.5021C23.9263 37.089 23.4214 37.585 22.8238 37.585V39.668C22.8238 40.1722 22.3189 40.6682 21.7214 40.6682Z" fill="black"/>
<path d="M14.8539 37.5849C14.2564 37.5849 13.7515 37.0807 13.7515 36.5021V25.0042C13.7515 24.4173 14.2648 23.9214 14.8539 23.9214C15.443 23.9214 15.9564 24.4173 15.9564 25.0042V36.5021C15.9564 37.0889 15.443 37.5849 14.8539 37.5849Z" fill="black"/>
<path d="M9.58563 37.5849C8.99652 37.5849 8.48315 37.0807 8.48315 36.5021V25.0042C8.48315 24.4173 8.99652 23.9214 9.58563 23.9214C10.1747 23.9214 10.6881 24.4173 10.6881 25.0042V36.5021C10.6039 37.0889 10.0906 37.5849 9.58563 37.5849Z" fill="black"/>
<path d="M14.3405 26.0871C13.5747 26.0871 12.8173 25.8391 12.2197 25.4175C11.6222 25.8308 10.8648 26.0871 10.0989 26.0871C9.84646 26.0871 9.58557 26.0871 9.3331 26.0044C7.6331 25.6738 6.3623 24.1694 6.3623 22.417C6.3623 20.4167 8.0623 18.7469 10.0989 18.7469C10.6965 18.7469 11.2014 19.2512 11.2014 19.8298C11.2014 20.4084 10.6965 20.9126 10.0989 20.9126C9.24894 20.9126 8.4831 21.5821 8.4831 22.4997C8.4831 23.2519 8.99646 23.9131 9.75389 23.9958H10.0905C10.5955 23.9958 11.0247 23.7478 11.3613 23.3262C11.5296 23.0783 11.8663 22.913 12.2113 22.913C12.5564 22.913 12.893 23.0783 13.0613 23.3262C13.3979 23.7395 13.8272 23.9958 14.3321 23.9958H14.6687C15.4346 23.8305 15.9395 23.2436 15.9395 22.4997C15.9395 21.6648 15.2579 20.9126 14.3237 20.9126C13.7262 20.9126 13.2212 20.4084 13.2212 19.8298C13.2212 19.2512 13.7262 18.7469 14.3237 18.7469C16.3603 18.7469 18.0603 20.4167 18.0603 22.417C18.0603 24.1694 16.7895 25.6655 15.0895 26.0044C14.8371 26.0871 14.5846 26.0871 14.3237 26.0871H14.3405Z" fill="black"/>
<path d="M15.9564 40.6682C15.3589 40.6682 14.8539 40.1722 14.8539 39.5853V37.5023H9.50988V39.5853C9.50988 40.1722 9.00493 40.6682 8.40741 40.6682C7.80988 40.6682 7.30493 40.1722 7.30493 39.5853V36.5021C7.30493 35.9153 7.80988 35.4193 8.40741 35.4193H15.8723C16.4698 35.4193 16.9747 35.9153 16.9747 36.5021V39.668C16.9747 40.1722 16.4698 40.6682 15.9564 40.6682Z" fill="black"/>
<path d="M28.0837 37.5849H22.7397C22.1422 37.5849 21.6372 37.0807 21.6372 36.5021V25.0042C21.6372 24.4173 22.1422 23.9214 22.7397 23.9214C23.3372 23.9214 23.8422 24.4173 23.8422 25.0042V35.5019H27.0654V25.0042C27.0654 24.4173 27.5788 23.9214 28.1679 23.9214C28.757 23.9214 29.2704 24.4173 29.2704 25.0042V36.5021C29.1862 37.0889 28.6729 37.5849 28.0837 37.5849Z" fill="black"/>
<path d="M27.5788 26.0871C26.813 26.0871 26.0471 25.8391 25.458 25.4175C24.8605 25.8308 24.1031 26.0871 23.3372 26.0871C23.0847 26.0871 22.8239 26.0871 22.5714 26.0044C20.8714 25.6738 19.6006 24.1694 19.6006 22.417C19.6006 20.4167 21.3006 18.7469 23.3372 18.7469C23.9347 18.7469 24.4397 19.2512 24.4397 19.8298C24.4397 20.4084 23.9263 20.9126 23.3372 20.9126C22.4872 20.9126 21.7214 21.5821 21.7214 22.4997C21.7214 23.2519 22.2347 23.9131 22.9922 23.9958H23.3288C23.8338 23.9958 24.263 23.7478 24.5996 23.3262C24.7679 23.0783 25.113 22.913 25.4496 22.913C25.7862 22.913 26.1313 23.0783 26.2996 23.3262C26.6362 23.7395 27.0654 23.9958 27.5704 23.9958H27.907C28.6729 23.8305 29.1778 23.2436 29.1778 22.4997C29.1778 21.6648 28.4961 20.9126 27.562 20.9126C26.9644 20.9126 26.4595 20.4084 26.4595 19.8298C26.4595 19.2512 26.9644 18.7469 27.562 18.7469C29.5986 18.7469 31.2986 20.4167 31.2986 22.417C31.2986 24.1694 30.0278 25.6655 28.3278 26.0044C28.0753 26.0871 27.8144 26.0871 27.562 26.0871H27.5788Z" fill="black"/>
<path d="M41.4059 37.5849C40.8084 37.5849 40.3035 37.0807 40.3035 36.5021V25.0042C40.3035 24.4173 40.8084 23.9214 41.4059 23.9214C42.0035 23.9214 42.5084 24.4173 42.5084 25.0042V36.5021C42.4243 37.0889 41.9109 37.5849 41.4059 37.5849Z" fill="black"/>
<path d="M36.0619 37.5849C35.4644 37.5849 34.9595 37.0807 34.9595 36.5021V25.0042C34.9595 24.4173 35.4644 23.9214 36.0619 23.9214C36.6595 23.9214 37.1644 24.4173 37.1644 25.0042V36.5021C37.1644 37.0889 36.6595 37.5849 36.0619 37.5849Z" fill="black"/>
<path d="M44.5451 22.417C44.5451 23.8305 43.7203 25.0786 42.5084 25.6738C42.2223 25.8225 41.9109 25.93 41.5827 25.9961C41.5238 26.0209 41.4649 26.0292 41.406 26.0375C41.3807 26.054 41.347 26.054 41.3218 26.054C41.1535 26.0871 40.9852 26.0871 40.8168 26.0871C40.6485 26.0871 40.4718 26.0705 40.3035 26.0457C39.7144 25.9631 39.1505 25.7399 38.696 25.4175C38.25 25.7234 37.7198 25.9465 37.1644 26.0375C37.1223 26.0457 37.0802 26.054 37.0381 26.054C36.8866 26.0788 36.7267 26.0871 36.5753 26.0871C36.4069 26.0871 36.2302 26.0871 36.0619 26.054C35.9777 26.0457 35.8936 26.0292 35.8094 25.9961C35.5149 25.9383 35.2287 25.8473 34.9594 25.7151C33.7055 25.1365 32.8386 23.8635 32.8386 22.417C32.8386 21.8797 32.9564 21.3755 33.1753 20.9126C33.3604 20.5076 33.6213 20.1439 33.9411 19.8298C34.2609 19.5157 34.6228 19.2677 35.0267 19.0858C35.1109 19.0528 35.1951 19.0115 35.2792 18.9867C35.4475 18.9205 35.6158 18.8709 35.7926 18.8296C36.0451 18.7717 36.3059 18.7469 36.5753 18.7469C36.7099 18.7469 36.8446 18.7717 36.9708 18.8296C36.996 18.8296 37.0213 18.8461 37.0381 18.8627C37.4084 19.0363 37.6777 19.4082 37.6777 19.8298C37.6777 20.2596 37.4084 20.6316 37.0381 20.8052C36.8951 20.8713 36.7352 20.9126 36.5753 20.9126C35.7253 20.9126 34.9594 21.5821 34.9594 22.4997C34.9594 23.1444 35.3381 23.7147 35.9188 23.9297C35.9188 23.9297 35.9244 23.9324 35.9357 23.9379C36.0198 23.9627 36.1292 23.9875 36.2302 24.0041H36.5753C36.7352 24.0041 36.8951 23.9793 37.0381 23.9297C37.3495 23.8222 37.6188 23.6156 37.846 23.3345C38.0144 23.0865 38.351 22.913 38.696 22.913C39.0411 22.913 39.3693 23.0865 39.5461 23.3345C39.8827 23.7478 40.3035 24.0041 40.8168 24.0041H41.1535C41.2124 23.9875 41.2713 23.9793 41.3218 23.9545C41.3555 23.9462 41.3807 23.9379 41.406 23.9214H41.4144C41.4144 23.9214 41.4312 23.9131 41.4396 23.9131C42.0456 23.6817 42.4243 23.1527 42.4243 22.4997C42.4243 21.8467 41.9866 21.2019 41.3218 20.987C41.1619 20.9374 40.9936 20.9126 40.8168 20.9126C40.2193 20.9126 39.7228 20.4249 39.7144 19.838C39.7144 19.3834 40.0089 18.9867 40.4213 18.8296C40.5391 18.7717 40.6738 18.7469 40.8168 18.7469C40.9852 18.7469 41.1535 18.7552 41.3218 18.78L41.5995 18.8296C42.3064 18.9867 42.946 19.3421 43.4426 19.8298C43.7624 20.1439 44.0233 20.5076 44.2084 20.9126C44.4272 21.3755 44.5451 21.8797 44.5451 22.417Z" fill="black"/>
<path d="M42.4242 40.6682C41.8267 40.6682 41.3217 40.1722 41.3217 39.5853V37.5023H35.9777V39.5853C35.9777 40.1722 35.4643 40.6682 34.8752 40.6682C34.2861 40.6682 33.7727 40.1722 33.7727 39.5853V36.5021C33.7727 35.9153 34.2861 35.4193 34.8752 35.4193H42.4242C43.0217 35.4193 43.5267 35.9153 43.5267 36.5021V39.668C43.5267 40.1722 43.0217 40.6682 42.4242 40.6682Z" fill="black"/>
<path d="M10.5031 18.8297C10.5031 18.8297 10.5367 18.8462 10.5536 18.8545C10.6041 18.871 10.6461 18.8958 10.6882 18.9206C10.6966 18.9289 10.7051 18.9371 10.7135 18.9454C10.7724 18.9785 10.8313 19.028 10.8734 19.0776C10.966 19.1603 11.0333 19.2595 11.0838 19.3669C11.109 19.4 11.1174 19.4331 11.1343 19.4661C11.1511 19.5075 11.1595 19.5488 11.1679 19.5901C11.1763 19.6067 11.1763 19.6149 11.1763 19.6315C11.1932 19.6976 11.2016 19.7637 11.2016 19.8298H14.3407C14.4333 19.8298 14.5259 19.8381 14.61 19.8464C14.6689 19.8464 14.7278 19.8546 14.7783 19.8712C14.812 19.8712 14.8372 19.8794 14.8709 19.8877C14.8877 19.8877 14.913 19.896 14.9298 19.896C14.9635 19.9042 14.9971 19.9125 15.0308 19.9208C15.0645 19.929 15.0897 19.9373 15.1234 19.9538C15.1739 19.9704 15.2244 19.9869 15.2664 20.0034C15.3674 20.0365 15.46 20.0778 15.5526 20.1274C15.5694 20.1357 15.5862 20.1439 15.5947 20.1522C15.6283 20.1605 15.662 20.177 15.6872 20.2018C15.7293 20.2266 15.7714 20.2514 15.8135 20.2762C15.8808 20.3258 15.9481 20.3754 16.007 20.425C16.0239 20.4332 16.0323 20.4498 16.0491 20.458L16.0996 20.5076C16.1585 20.5572 16.2174 20.6151 16.2679 20.673C16.3353 20.7391 16.4026 20.8217 16.4615 20.9044H33.1669C33.3521 20.4994 33.613 20.1357 33.9328 19.8216C34.2526 19.5075 34.6145 19.2595 35.0184 19.0776C35.1026 19.0446 35.1867 19.0032 35.2709 18.9785C35.4392 18.9123 35.6075 18.8627 35.7843 18.8214H10.5031V18.8297ZM15.0897 18.8297C15.5442 18.9206 15.965 19.1024 16.3437 19.3339C16.411 19.3835 16.4699 19.4248 16.5288 19.4661C16.6887 19.5736 16.8318 19.6976 16.9664 19.8298H21.5531L21.7803 20.3258V20.3423L22.0496 20.9127H27.4778C27.4778 20.9127 27.4189 20.9044 27.3853 20.8961C27.3684 20.8961 27.3432 20.8879 27.3179 20.8796C27.2422 20.8631 27.1749 20.8383 27.1075 20.8052C27.0486 20.7804 26.9981 20.7474 26.9476 20.7143C26.8887 20.673 26.8382 20.6316 26.7961 20.582C26.7457 20.5407 26.7036 20.4828 26.6699 20.4332C26.6447 20.4002 26.6278 20.3754 26.6194 20.3423C26.611 20.3258 26.5942 20.3093 26.5858 20.2845C26.5773 20.2679 26.5605 20.2514 26.5605 20.2349C26.5353 20.177 26.51 20.1109 26.5016 20.053C26.4848 19.9786 26.4763 19.9125 26.4763 19.8381L33.9412 19.8298C34.2526 19.524 34.6229 19.2678 35.0268 19.0859C35.111 19.0528 35.1952 19.0115 35.2793 18.9867C35.4476 18.9206 35.616 18.871 35.7927 18.8297H15.0897ZM15.0897 18.8297C15.5442 18.9206 15.965 19.1024 16.3437 19.3339C16.411 19.3835 16.4699 19.4248 16.5288 19.4661C16.6887 19.5736 16.8318 19.6976 16.9664 19.8298H21.5531L21.7803 20.3258V20.3423L22.0496 20.9127H27.4778C27.4778 20.9127 27.4189 20.9044 27.3853 20.8961C27.3684 20.8961 27.3432 20.8879 27.3179 20.8796C27.2422 20.8631 27.1749 20.8383 27.1075 20.8052C27.0486 20.7804 26.9981 20.7556 26.9476 20.7143C26.8887 20.6812 26.8382 20.6316 26.7961 20.582C26.7457 20.5407 26.7036 20.4828 26.6699 20.4332C26.6447 20.4002 26.6278 20.3754 26.6194 20.3423C26.611 20.3258 26.5942 20.3093 26.5858 20.2845C26.5689 20.2679 26.5689 20.2514 26.5605 20.2349C26.5353 20.177 26.51 20.1109 26.5016 20.053C26.4848 19.9786 26.4763 19.9125 26.4763 19.8381L33.9412 19.8298C34.2526 19.524 34.6229 19.2678 35.0268 19.0859C35.111 19.0528 35.1952 19.0115 35.2793 18.9867C35.4476 18.9206 35.616 18.871 35.7927 18.8297H15.0897ZM44.5452 13.4982H6.36249C5.77338 13.4982 5.26001 14.0024 5.26001 14.581V19.8298C5.26001 20.4167 5.77338 20.9127 6.36249 20.9127H44.5452C45.1427 20.9127 45.6561 20.4167 45.6561 19.8298V14.581C45.6561 14.0024 45.1427 13.4982 44.5452 13.4982ZM7.47338 18.8297V15.6638H43.5268V18.8297H7.47338ZM15.0897 18.8297C15.5442 18.9206 15.965 19.1024 16.3437 19.3339C16.411 19.3835 16.4699 19.4248 16.5288 19.4661C16.6887 19.5736 16.8318 19.6976 16.9664 19.8298H21.5531L21.7803 20.3258V20.3423L22.0496 20.9127H27.4778C27.4778 20.9127 27.4189 20.9044 27.3853 20.8961C27.3684 20.8961 27.3432 20.8879 27.3179 20.8796C27.2422 20.8631 27.1749 20.8383 27.1075 20.8052C27.0486 20.7804 26.9981 20.7474 26.9476 20.7143C26.8887 20.673 26.8382 20.6316 26.7961 20.582C26.7457 20.5407 26.7036 20.4828 26.6699 20.4332C26.6447 20.4002 26.6278 20.3754 26.6194 20.3423C26.611 20.3258 26.5942 20.3093 26.5858 20.2845C26.5773 20.2679 26.5605 20.2514 26.5605 20.2349C26.5353 20.177 26.51 20.1109 26.5016 20.053C26.4848 19.9786 26.4763 19.9125 26.4763 19.8381L33.9412 19.8298C34.2526 19.524 34.6229 19.2678 35.0268 19.0859C35.111 19.0528 35.1952 19.0115 35.2793 18.9867C35.4476 18.9206 35.616 18.871 35.7927 18.8297H15.0897ZM10.5031 18.8297C10.5031 18.8297 10.5367 18.8462 10.5536 18.8545C10.6041 18.871 10.6461 18.8958 10.6882 18.9206C10.6966 18.9289 10.7051 18.9371 10.7135 18.9454C10.7724 18.9785 10.8313 19.028 10.8734 19.0776C10.966 19.1603 11.0333 19.2595 11.0838 19.3669C11.109 19.4 11.1174 19.4331 11.1343 19.4661C11.1511 19.5075 11.1595 19.5488 11.1679 19.5901C11.1763 19.6067 11.1763 19.6149 11.1763 19.6315C11.1932 19.6976 11.2016 19.7637 11.2016 19.8298H14.3407C14.4333 19.8298 14.5259 19.8381 14.61 19.8464C14.6689 19.8464 14.7278 19.8546 14.7783 19.8712C14.812 19.8712 14.8372 19.8794 14.8709 19.8877C14.8877 19.8877 14.913 19.896 14.9298 19.896C14.9635 19.9042 14.9971 19.9125 15.0308 19.9208C15.0645 19.929 15.0897 19.9373 15.1234 19.9538C15.1739 19.9704 15.2244 19.9869 15.2664 20.0034C15.3674 20.0365 15.46 20.0778 15.5526 20.1274C15.5694 20.1357 15.5862 20.1439 15.5947 20.1522C15.6283 20.1605 15.662 20.177 15.6872 20.2018C15.7293 20.2266 15.7714 20.2514 15.8135 20.2762C15.8808 20.3258 15.9481 20.3754 16.007 20.425C16.0239 20.4332 16.0323 20.4498 16.0491 20.458L16.0996 20.5076C16.1585 20.5572 16.2174 20.6151 16.2679 20.673C16.3353 20.7391 16.4026 20.8217 16.4615 20.9044H33.1669C33.3521 20.4994 33.613 20.1357 33.9328 19.8216C34.2526 19.5075 34.6145 19.2595 35.0184 19.0776C35.1026 19.0446 35.1867 19.0032 35.2709 18.9785C35.4392 18.9123 35.6075 18.8627 35.7843 18.8214H10.5031V18.8297Z" fill="black"/>
<path d="M43.5267 15.6638V18.8297H41.5995L41.3217 18.7801C41.1534 18.7553 40.9851 18.747 40.8168 18.747C40.6737 18.747 40.5391 18.7718 40.4213 18.8297H37.0381V15.6638H43.5267Z" fill="#FF6D25"/>
<path d="M45.6559 41.2549C45.6559 41.3955 45.6475 41.5277 45.6222 41.6682C45.5549 42.0485 45.4118 42.4287 45.1678 42.7511C45.092 42.8668 44.991 42.9825 44.89 43.0817C44.4692 43.3793 44.0569 43.6273 43.5772 43.7512C43.3752 43.8008 43.1648 43.8339 42.9376 43.8339C42.7861 43.8339 42.643 43.8008 42.5168 43.7512C42.1212 43.5777 41.8351 43.1892 41.8351 42.7511C41.8351 42.1642 42.34 41.6682 42.9376 41.6682C43.1059 41.6682 43.19 41.5856 43.2742 41.5029C43.3583 41.4203 43.4425 41.2549 43.4425 41.164C43.4425 40.916 43.19 40.6681 42.9376 40.6681H7.97815C7.80984 40.6681 7.72568 40.7507 7.64152 40.8334C7.55736 40.916 7.4732 40.9987 7.4732 41.164C7.4732 41.4203 7.72568 41.6682 7.97815 41.6682C8.57568 41.6682 9.08063 42.1642 9.08063 42.7511C9.08063 43.1892 8.79449 43.5777 8.39894 43.7512C8.27271 43.8008 8.12964 43.8339 7.97815 43.8339C7.75092 43.8339 7.53211 43.8091 7.32172 43.7512C6.72419 43.5942 6.19399 43.2388 5.84053 42.7511C5.60489 42.437 5.44498 42.065 5.37766 41.6682C5.35241 41.536 5.34399 41.3955 5.34399 41.2549C5.34399 40.5854 5.60489 39.9159 6.10984 39.4199C6.44647 39.0893 6.85885 38.8661 7.29647 38.7586C7.51528 38.6925 7.75092 38.6677 7.97815 38.6677H43.0217C43.19 38.6677 43.3584 38.6843 43.5267 38.7173C44.7301 38.9488 45.6559 39.9985 45.6559 41.2549Z" fill="black"/>
<path d="M48.795 42.7512V46.9172C48.795 47.504 48.2817 48 47.7767 48C47.1792 48 46.6742 47.504 46.6742 46.9172V43.7513H4.24157V46.9172C4.24157 47.504 3.73662 48 3.1391 48C2.54157 48 2.03662 47.504 2.03662 46.9172V42.7512C2.03662 42.1643 2.54999 41.6683 3.1391 41.6683H47.6926C48.2817 41.6683 48.795 42.1643 48.795 42.7512Z" fill="black"/>
<path d="M51 46.9172C50.9158 47.5041 50.4025 48 49.8975 48H1.10248C0.513366 48 0 47.5041 0 46.9172C0 46.3303 0.513366 45.8344 1.10248 45.8344H49.8975C50.4866 45.8344 51 46.3386 51 46.9172Z" fill="black"/>
<path d="M49.8134 15.0026C49.7292 15.4985 49.3 15.7465 48.795 15.7465L45.6559 15.6886L44.545 15.6638C43.9559 15.6638 43.5267 15.1679 43.4426 14.6637C43.4426 14.085 43.9559 13.5808 44.4609 13.5808H44.545L44.3936 13.4982L25.4579 3.33112L23.4044 4.43048L20.1896 6.14152L19.8614 6.3151L16.2005 8.27412L6.42969 13.4982L6.27821 13.5808H6.36236C6.95989 13.5808 7.47326 14.085 7.47326 14.6637C7.47326 15.2423 6.95989 15.7465 6.36236 15.7465H2.12078C1.61583 15.7465 1.19504 15.4158 1.10246 15.0026C1.0183 14.4983 1.19504 14.085 1.61583 13.8288L15.3589 6.46389L17.749 5.19094L19.348 4.33129L21.2837 3.28979L24.9445 1.33078C25.2896 1.16546 25.6262 1.16546 25.9629 1.33078L49.3 13.8288C49.7292 14.085 49.9817 14.581 49.8134 15.0026Z" fill="black"/>
<path d="M34.1936 10.9192C33.9411 11.4152 33.2679 11.5805 32.7545 11.3325L25.458 7.49714L23.7664 8.40639L21.7382 9.48922L18.1614 11.4152C18.01 11.4896 17.8501 11.4978 17.6902 11.4978H17.6481C17.3114 11.4978 16.8907 11.3325 16.7223 10.9192C16.5204 10.5225 16.5793 10.0265 16.8654 9.7124C16.9411 9.62148 17.0337 9.55535 17.1431 9.49749L20.8293 7.53021L21.4773 7.18304L24.9446 5.33148C24.9446 5.33148 25.0035 5.30668 25.0372 5.29842C25.3486 5.16616 25.66 5.1827 25.9629 5.33148L33.7728 9.49749C34.0758 9.64627 34.2525 9.93558 34.2946 10.2497C34.3367 10.4729 34.303 10.7126 34.1936 10.9192Z" fill="black"/>
<path d="M3.22327 32.3361C1.44752 32.3361 0 30.9143 0 29.1702C0 27.4261 1.43911 26.0044 3.22327 26.0044C5.00743 26.0044 6.44653 27.4179 6.44653 29.1702C6.44653 30.9226 4.91485 32.3361 3.22327 32.3361ZM3.22327 28.1701C2.62574 28.1701 2.12079 28.666 2.12079 29.2529C2.12079 29.8398 2.63416 30.3357 3.22327 30.3357C3.81238 30.3357 4.32574 29.8315 4.32574 29.2529C4.32574 28.6743 3.72822 28.1701 3.22327 28.1701Z" fill="black"/>
<path d="M45.0584 7.33181C43.0218 7.33181 41.3218 5.6621 41.3218 3.66175C41.3218 1.66141 43.0218 -0.00830078 45.0584 -0.00830078C47.095 -0.00830078 48.795 1.66141 48.795 3.66175C48.795 5.6621 47.095 7.33181 45.0584 7.33181ZM45.0584 2.16563C44.2084 2.16563 43.4426 2.83516 43.4426 3.75268C43.4426 4.67019 44.1243 5.33973 45.0584 5.33973C45.9084 5.33973 46.6658 4.67019 46.6658 3.75268C46.6658 2.83516 45.9842 2.16563 45.0584 2.16563Z" fill="black"/>
</g>
<defs>
<clipPath id="clip0_71_2">
<rect width="51" height="48" fill="white"/>
</clipPath>
</defs>
</svg>
