<svg width="47" height="46" viewBox="0 0 47 46" fill="none" xmlns="http://www.w3.org/2000/svg">
<g clip-path="url(#clip0_30_1418)">
<path d="M2.70856 34.4731C3.60574 34.4731 4.33363 35.1853 4.33363 36.0631C4.33363 36.9408 3.60574 37.653 2.70856 37.653C1.81139 37.653 1.0835 36.9408 1.0835 36.0631C1.0835 35.1853 1.81139 34.4731 2.70856 34.4731Z" fill="white"/>
<path d="M43.7584 4.25635C44.9349 4.25635 45.8913 5.19208 45.8913 6.34312C45.8913 7.49415 44.9349 8.42989 43.7584 8.42989C42.5819 8.42989 41.6255 7.49415 41.6255 6.34312C41.6255 5.19208 42.5819 4.25635 43.7584 4.25635Z" fill="white"/>
<path d="M8.51467 4.2564V8.42993H2.11597V4.2564C2.11597 2.50086 3.56329 1.08484 5.35764 1.08484C7.15198 1.08484 8.51467 2.50086 8.51467 4.2564Z" fill="white"/>
<path d="M28.8198 8.51267V2.16956H9.02271C9.36972 2.74921 9.62364 3.50277 9.62364 4.25632V8.09863C9.67442 8.22284 9.70828 8.36362 9.70828 8.51267C9.69135 8.60376 9.66596 8.68657 9.62364 8.76938V20.9505H11.2487C12.696 20.9505 13.8894 22.1181 13.8894 23.5424C13.8894 24.9667 12.696 26.126 11.2487 26.126H9.62364V43.9132H28.8198V37.065L25.3242 40.485C25.0702 40.6506 24.8163 40.8245 24.554 40.8245C24.2916 40.8245 24.0461 40.7417 23.7922 40.485C23.3605 40.0709 23.3605 39.4002 23.7922 38.9861L28.3204 34.5559C27.9903 33.0653 28.1596 31.5085 28.8198 30.1339V25.124H18.1552C17.5628 25.124 17.0465 24.6272 17.0465 24.0392C17.0465 23.4513 17.5628 22.9544 18.1552 22.9544H28.8198V19.9485H18.1552C17.5628 19.9485 17.0465 19.4516 17.0465 18.8637C17.0465 18.2758 17.5628 17.7789 18.1552 17.7789H28.8198V10.5166C28.2611 10.5166 27.7956 10.0695 27.7956 9.51465C27.7956 8.95984 28.2611 8.51267 28.8198 8.51267ZM25.5781 5.34111C26.1452 5.34111 26.6022 5.78828 26.6022 6.34309C26.6022 6.89791 26.1452 7.34507 25.5781 7.34507C25.011 7.34507 24.554 6.89791 24.554 6.34309C24.554 5.78828 25.0195 5.34111 25.5781 5.34111ZM12.7807 5.2583H22.421C23.022 5.2583 23.5298 5.75515 23.5298 6.34309C23.4452 6.92275 23.022 7.42788 22.421 7.42788H12.7807C12.1797 7.42788 11.6719 6.92275 11.6719 6.34309C11.6719 5.76344 12.1797 5.2583 12.7807 5.2583ZM21.3123 41.8264H17.0465C16.454 41.8264 15.9377 41.3213 15.9377 40.7417C15.9377 40.162 16.454 39.6486 17.0465 39.6486H21.3123C21.9132 39.6486 22.421 40.1537 22.421 40.7417C22.421 41.3296 21.9132 41.8264 21.3123 41.8264ZM21.3123 36.6509H12.7807C12.1797 36.6509 11.6719 36.1458 11.6719 35.5579C11.6719 34.9699 12.1797 34.4731 12.7807 34.4731H21.3123C21.9132 34.4731 22.421 34.9782 22.421 35.5579C22.421 36.1375 21.9132 36.6509 21.3123 36.6509ZM21.3123 33.4711H12.7807C12.1797 33.4711 11.6719 32.9742 11.6719 32.3863C11.6719 31.7984 12.1797 31.3015 12.7807 31.3015H21.3123C21.9132 31.3015 22.421 31.8066 22.421 32.3863C22.421 32.966 21.9132 33.4711 21.3123 33.4711ZM13.8894 18.8637C13.8894 18.3089 14.3465 17.8617 14.9136 17.8617C15.4807 17.8617 15.9377 18.3089 15.9377 18.8637C15.9377 19.4185 15.4807 19.8657 14.9136 19.8657C14.3465 19.8657 13.8894 19.4185 13.8894 18.8637ZM24.554 33.4711C23.9953 33.4711 23.5298 33.0239 23.5298 32.4691C23.5298 31.9143 23.9953 31.4671 24.554 31.4671C25.1126 31.4671 25.5781 31.9226 25.5781 32.4691C25.5781 33.0156 25.121 33.4711 24.554 33.4711ZM26.6869 26.126C27.2878 26.126 27.7956 26.6311 27.7956 27.2108C27.7956 27.7904 27.2878 28.2956 26.6869 28.2956H16.0223C15.4299 28.2956 14.9136 27.7987 14.9136 27.2108C14.9136 26.6228 15.4299 26.126 16.0223 26.126H26.6869ZM25.5781 16.7769H14.9136C14.3211 16.7769 13.8048 16.2801 13.8048 15.6922C13.8048 15.1042 14.3211 14.6074 14.9136 14.6074H25.5781C26.179 14.6074 26.6869 15.1042 26.6869 15.6922C26.6869 16.2801 26.179 16.7769 25.5781 16.7769ZM25.5781 10.5166H12.7807C12.1797 10.5166 11.6719 10.0115 11.6719 9.43184C11.6719 8.85218 12.1797 8.34705 12.7807 8.34705H25.5781C26.179 8.34705 26.6869 8.8439 26.6869 9.43184C26.6869 10.0198 26.179 10.5166 25.5781 10.5166Z" fill="white"/>
<path d="M14.9135 19.8657C14.3465 19.8657 13.8894 19.4185 13.8894 18.8637C13.8894 18.3089 14.3465 17.8617 14.9135 17.8617C15.4806 17.8617 15.9377 18.3089 15.9377 18.8637C15.9377 19.4185 15.4806 19.8657 14.9135 19.8657Z" fill="black" fill-opacity="0.8"/>
<path d="M22.4208 40.7416C22.4208 41.3213 21.913 41.8264 21.3121 41.8264H17.0463C16.4538 41.8264 15.9375 41.3213 15.9375 40.7416C15.9375 40.162 16.4538 39.6486 17.0463 39.6486H21.3121C21.913 39.6486 22.4208 40.1537 22.4208 40.7416Z" fill="black" fill-opacity="0.8"/>
<path d="M22.421 35.5579C22.421 36.1459 21.9132 36.651 21.3123 36.651H12.7806C12.1797 36.651 11.6719 36.1459 11.6719 35.5579C11.6719 34.97 12.1797 34.4731 12.7806 34.4731H21.3123C21.9132 34.4731 22.421 34.9783 22.421 35.5579Z" fill="black" fill-opacity="0.8"/>
<path d="M22.421 32.3863C22.421 32.9742 21.9132 33.4711 21.3123 33.4711H12.7806C12.1797 33.4711 11.6719 32.9742 11.6719 32.3863C11.6719 31.7984 12.1797 31.3015 12.7806 31.3015H21.3123C21.9132 31.3015 22.421 31.8066 22.421 32.3863Z" fill="black" fill-opacity="0.8"/>
<path d="M11.6719 6.34309C11.6719 5.75515 12.1797 5.2583 12.7806 5.2583H22.421C23.022 5.2583 23.5298 5.75515 23.5298 6.34309C23.4452 6.92275 23.022 7.42788 22.421 7.42788H12.7806C12.1797 7.42788 11.6719 6.92275 11.6719 6.34309Z" fill="black" fill-opacity="0.8"/>
<path d="M25.578 32.4691C25.578 33.024 25.121 33.4711 24.5539 33.4711C23.9868 33.4711 23.5298 33.024 23.5298 32.4691C23.5298 31.9143 23.9953 31.4672 24.5539 31.4672C25.1125 31.4672 25.578 31.9226 25.578 32.4691Z" fill="black" fill-opacity="0.8"/>
<path d="M24.554 6.34317C24.554 5.78835 25.0195 5.34119 25.5781 5.34119C26.1367 5.34119 26.6022 5.78835 26.6022 6.34317C26.6022 6.89798 26.1452 7.34515 25.5781 7.34515C25.011 7.34515 24.554 6.89798 24.554 6.34317Z" fill="black" fill-opacity="0.8"/>
<path d="M13.8047 15.6922C13.8047 15.1043 14.321 14.6074 14.9135 14.6074H25.578C26.1789 14.6074 26.6867 15.1043 26.6867 15.6922C26.6867 16.2802 26.1789 16.777 25.578 16.777H14.9135C14.321 16.777 13.8047 16.2802 13.8047 15.6922Z" fill="black" fill-opacity="0.8"/>
<path d="M25.5781 10.5166H12.7806C12.1797 10.5166 11.6719 10.0115 11.6719 9.43183C11.6719 8.85218 12.1797 8.34705 12.7806 8.34705H25.5781C26.179 8.34705 26.6868 8.8439 26.6868 9.43183C26.6868 10.0198 26.179 10.5166 25.5781 10.5166Z" fill="black" fill-opacity="0.8"/>
<path d="M16.0223 26.126H26.6868C27.2878 26.126 27.7956 26.6311 27.7956 27.2108C27.7956 27.7904 27.2878 28.2956 26.6868 28.2956H16.0223C15.4299 28.2956 14.9136 27.7987 14.9136 27.2108C14.9136 26.6228 15.4299 26.126 16.0223 26.126Z" fill="black" fill-opacity="0.8"/>
<path d="M31.9852 12.6034H38.3839V5.42395C38.3839 3.08876 36.4203 1.1676 34.025 1.1676H5.27319C5.65407 1.1676 6.02648 1.23385 6.36504 1.35806C7.52459 1.75554 8.37098 2.78236 8.49794 4.01621C8.5064 4.12386 8.51487 4.23151 8.51487 4.33916V22.1181H11.1556C12.0105 22.1181 12.7807 22.7888 12.7807 23.708C12.7807 24.6272 12.0951 25.2897 11.1556 25.2897H8.51487V44.998H38.3839V15.775H31.9852C31.1304 15.775 30.3602 15.1042 30.3602 14.1851C30.3602 13.2659 31.0458 12.6034 31.9852 12.6034ZM9.62363 43.9132V26.126H11.2487C12.696 26.126 13.8894 24.9584 13.8894 23.5424C13.8894 22.1264 12.696 20.9505 11.2487 20.9505H9.62363V8.7694C9.66595 8.68659 9.69135 8.60379 9.70827 8.5127C9.70827 8.36364 9.67442 8.22287 9.62363 8.09866V4.25635C9.62363 3.5028 9.36972 2.74924 9.0227 2.16958H28.8197V8.5127C28.2611 8.5127 27.7956 8.95986 27.7956 9.51468C27.7956 10.0695 28.2611 10.5167 28.8197 10.5167V17.7789H18.1552C17.5628 17.7789 17.0465 18.2841 17.0465 18.8637C17.0465 19.4434 17.5628 19.9485 18.1552 19.9485H28.8197V22.9545H18.1552C17.5628 22.9545 17.0465 23.4596 17.0465 24.0393C17.0465 24.6189 17.5628 25.124 18.1552 25.124H28.8197V30.1339C28.1596 31.5086 27.9903 33.0654 28.3204 34.5559L23.7922 38.9861C23.3605 39.4002 23.3605 40.0709 23.7922 40.485C24.0461 40.7417 24.3 40.8245 24.5539 40.8245C24.8079 40.8245 25.0702 40.6506 25.3242 40.485L28.8197 37.065V43.9132H9.62363Z" fill="#94D831"/>
<path d="M29.5052 34.8954C28.8196 32.8914 29.3359 30.639 30.9525 29.0491L38.3753 21.7868L41.8709 18.3668L42.2095 18.6981C44.5117 20.9504 44.5117 24.6271 42.2095 26.8795L38.3669 30.639L31.2826 37.5701L30.944 37.2388C30.2585 36.4853 29.7506 35.74 29.4967 34.9036L29.5052 34.8954Z" fill="white"/>
<path d="M43.7585 39.8225C44.3256 39.8225 44.7826 40.2697 44.7826 40.8245C44.7826 41.3793 44.3256 41.8265 43.7585 41.8265C43.1914 41.8265 42.7344 41.3793 42.7344 40.8245C42.7344 40.2697 43.1914 39.8225 43.7585 39.8225Z" fill="black" fill-opacity="0.8"/>
<path d="M42.6496 12.6863C43.2167 12.6863 43.6737 13.1334 43.6737 13.6883C43.6737 14.2431 43.2167 14.6902 42.6496 14.6902C42.0825 14.6902 41.6255 14.2431 41.6255 13.6883C41.6255 13.1334 42.0825 12.6863 42.6496 12.6863Z" fill="black" fill-opacity="0.8"/>
<path d="M29.8437 9.51468C29.8437 10.0695 29.3866 10.5167 28.8195 10.5167C28.2525 10.5167 27.7954 10.0695 27.7954 9.51468C27.7954 8.95986 28.2609 8.5127 28.8195 8.5127C29.3782 8.5127 29.8437 8.95986 29.8437 9.51468Z" fill="black" fill-opacity="0.8"/>
<path d="M26.6022 6.34317C26.6022 6.89798 26.1452 7.34515 25.5781 7.34515C25.011 7.34515 24.554 6.89798 24.554 6.34317C24.554 5.78835 25.0195 5.34119 25.5781 5.34119C26.1367 5.34119 26.6022 5.78835 26.6022 6.34317Z" fill="black" fill-opacity="0.8"/>
<path d="M25.578 32.4691C25.578 33.024 25.121 33.4711 24.5539 33.4711C23.9868 33.4711 23.5298 33.024 23.5298 32.4691C23.5298 31.9143 23.9953 31.4672 24.5539 31.4672C25.1125 31.4672 25.578 31.9226 25.578 32.4691Z" fill="black" fill-opacity="0.8"/>
<path d="M15.9377 18.8637C15.9377 19.4185 15.4806 19.8657 14.9135 19.8657C14.3465 19.8657 13.8894 19.4185 13.8894 18.8637C13.8894 18.3089 14.3465 17.8617 14.9135 17.8617C15.4806 17.8617 15.9377 18.3089 15.9377 18.8637Z" fill="black" fill-opacity="0.8"/>
<path d="M4.24898 42.9113C4.81607 42.9113 5.27312 43.3584 5.27312 43.9132C5.27312 44.468 4.81607 44.9152 4.24898 44.9152C3.6819 44.9152 3.22485 44.468 3.22485 43.9132C3.22485 43.3584 3.6819 42.9113 4.24898 42.9113Z" fill="black" fill-opacity="0.8"/>
<path d="M1.85351 22.2837C2.27671 22.6977 2.27671 23.3685 1.85351 23.7825C1.43032 24.1965 0.744741 24.1965 0.321546 23.7825C-0.101648 23.3685 -0.101648 22.6977 0.321546 22.2837C0.744741 21.8696 1.43032 21.8696 1.85351 22.2837Z" fill="black" fill-opacity="0.8"/>
<path d="M9.70821 8.51265C9.69128 8.60373 9.66589 8.68654 9.62357 8.76935C9.43736 9.17511 9.0057 9.51463 8.5148 9.51463H2.11609C1.51516 9.51463 1.00732 9.0095 1.00732 8.42984V4.2563C1.00732 2.03704 2.68318 0.281504 4.89225 0.107606C5.01921 0.0910445 5.14617 0.0827637 5.27313 0.0827637C5.8656 0.0827637 6.3819 0.579613 6.3819 1.16755C6.3819 1.19239 6.3819 1.22552 6.37343 1.25036C6.37343 1.29176 6.37343 1.32489 6.36497 1.35801C6.28033 1.8383 5.88253 2.16953 5.35777 2.16953C4.16436 2.16953 3.22486 3.0887 3.22486 4.2563V7.42786H8.59944C9.04802 7.42786 9.44583 7.70941 9.62357 8.0986C9.67435 8.22282 9.70821 8.36359 9.70821 8.51265Z" fill="black" fill-opacity="0.8"/>
<path d="M39.5773 30.6391V44.998C39.4927 45.4949 38.9764 46 38.3839 46H8.51483C7.91389 46 7.40606 45.4949 7.40606 44.9152V25.124C7.40606 24.5444 7.91389 24.0392 8.51483 24.0392H11.1556C11.4179 24.0392 11.6719 23.7908 11.6719 23.5424C11.6719 23.294 11.5026 23.0373 11.2487 23.0373H8.59946C7.99853 23.0373 7.49069 22.5404 7.49069 21.9525V4.25635C7.49069 3.08875 6.5512 2.16958 5.35779 2.16958C4.82457 2.16958 4.35905 1.76382 4.27442 1.26697C4.25749 1.209 4.24902 1.14275 4.24902 1.08479C4.24902 0.662466 4.5114 0.281548 4.89228 0.107651C5.0277 0.0414041 5.18852 0 5.35779 0H34.025C37.0128 0 39.4927 2.418 39.4927 5.34113V12.5206C39.4927 13.1003 38.9764 13.6054 38.3839 13.6054H31.9852C31.7228 13.6054 31.4689 13.8538 31.4689 14.1023C31.4689 14.3507 31.7228 14.6074 31.9852 14.6074H38.3839C38.9764 14.6074 39.4927 15.1042 39.4927 15.6922V21.7041C39.4927 22.2837 38.9764 22.7888 38.3839 22.7888C38.1046 22.7888 37.8422 22.6812 37.6475 22.5073C37.419 22.3003 37.2751 22.0104 37.2751 21.7041V16.777H31.8921C30.4448 16.777 29.2514 15.6094 29.2514 14.1851C29.2514 12.7608 30.4448 11.6014 31.8921 11.6014H37.2751V5.42394C37.2751 3.66841 35.8193 2.16958 33.9404 2.16958H9.02266C9.36968 2.74923 9.6236 3.50279 9.6236 4.25635V20.9505H11.2487C12.696 20.9505 13.8894 22.1181 13.8894 23.5424C13.8894 24.9667 12.696 26.126 11.2487 26.126H9.6236V43.9132H37.3598V30.6391C37.3598 30.076 37.8168 29.604 38.3839 29.5626C38.4093 29.5543 38.4432 29.5543 38.4685 29.5543C38.7394 29.5543 39.0018 29.6619 39.1964 29.8358C39.425 30.0346 39.5773 30.3244 39.5773 30.6391Z" fill="black" fill-opacity="0.8"/>
<path d="M33.6017 32.3864L29.9706 35.9388L29.2004 36.6924L28.8196 37.065L25.324 40.485C25.0701 40.6506 24.8161 40.8245 24.5538 40.8245C24.2914 40.8245 24.0459 40.7417 23.792 40.485C23.3603 40.071 23.3603 39.4002 23.792 38.9862L29.2343 33.6616L30.36 32.5603L32.0697 30.8875C32.4929 30.4652 33.1785 30.4652 33.6017 30.8875C34.0249 31.3016 34.0249 31.9723 33.6017 32.3864Z" fill="black" fill-opacity="0.8"/>
<path d="M42.9881 17.8617L42.6496 17.5305C42.2179 17.1082 41.5408 17.1082 41.1091 17.5305L30.1907 28.2128C29.6067 28.7841 29.1497 29.4383 28.8196 30.1339C28.1594 31.5085 27.9901 33.0653 28.3202 34.5559C28.3625 34.7546 28.4218 34.9533 28.481 35.1438C28.5741 35.4419 28.6842 35.7235 28.8196 35.9967C28.9296 36.2369 29.0566 36.4687 29.2004 36.6923C29.4882 37.1312 29.8183 37.537 30.1907 37.9013L30.5293 38.2326C30.7832 38.481 31.0456 38.5638 31.2995 38.5638C31.6381 38.5638 31.892 38.481 32.0697 38.2326L37.3596 33.0156L38.3838 32.0054L39.5772 30.8212L42.9881 27.4592C45.722 24.7928 45.722 20.5364 42.9881 17.8617ZM31.2995 36.063C31.0879 35.7483 30.9102 35.4668 30.7663 35.1604C30.6732 34.9782 30.597 34.7795 30.5293 34.5642C30.3261 33.91 30.2754 33.2227 30.36 32.5602C30.487 31.5416 30.9525 30.5562 31.7227 29.8027L41.8794 19.8657C43.3267 21.704 43.2421 24.3705 41.4562 26.126L31.2995 36.063Z" fill="black" fill-opacity="0.8"/>
<path d="M23.5298 6.34309C23.4452 6.92275 23.022 7.42788 22.421 7.42788H12.7806C12.1797 7.42788 11.6719 6.92275 11.6719 6.34309C11.6719 5.76343 12.1797 5.2583 12.7806 5.2583H22.421C23.022 5.2583 23.5298 5.75515 23.5298 6.34309Z" fill="black" fill-opacity="0.8"/>
<path d="M26.6868 9.43183C26.6868 10.0115 26.179 10.5166 25.5781 10.5166H12.7806C12.1797 10.5166 11.6719 10.0115 11.6719 9.43183C11.6719 8.85218 12.1797 8.34705 12.7806 8.34705H25.5781C26.179 8.34705 26.6868 8.8439 26.6868 9.43183Z" fill="black" fill-opacity="0.8"/>
<path d="M26.6867 15.6922C26.6867 16.2802 26.1789 16.777 25.578 16.777H14.9135C14.321 16.777 13.8047 16.2802 13.8047 15.6922C13.8047 15.1043 14.321 14.6074 14.9135 14.6074H25.578C26.1789 14.6074 26.6867 15.1043 26.6867 15.6922Z" fill="black" fill-opacity="0.8"/>
<path d="M29.9369 18.8637C29.8438 19.4517 29.4206 19.9485 28.8197 19.9485H18.1552C17.5627 19.9485 17.0464 19.4517 17.0464 18.8637C17.0464 18.2758 17.5627 17.7789 18.1552 17.7789H28.8197C29.4206 17.7789 29.9369 18.2841 29.9369 18.8637Z" fill="black" fill-opacity="0.8"/>
<path d="M29.9369 24.0393C29.9369 24.6272 29.4206 25.124 28.8197 25.124H18.1552C17.5627 25.124 17.0464 24.6272 17.0464 24.0393C17.0464 23.4513 17.5627 22.9545 18.1552 22.9545H28.8197C29.4206 22.9545 29.9369 23.4596 29.9369 24.0393Z" fill="black" fill-opacity="0.8"/>
<path d="M27.7956 27.2108C27.7956 27.7987 27.2878 28.2956 26.6868 28.2956H16.0223C15.4299 28.2956 14.9136 27.7987 14.9136 27.2108C14.9136 26.6228 15.4299 26.126 16.0223 26.126H26.6868C27.2878 26.126 27.7956 26.6311 27.7956 27.2108Z" fill="black" fill-opacity="0.8"/>
<path d="M22.421 32.3863C22.421 32.9742 21.9132 33.4711 21.3123 33.4711H12.7806C12.1797 33.4711 11.6719 32.9742 11.6719 32.3863C11.6719 31.7984 12.1797 31.3015 12.7806 31.3015H21.3123C21.9132 31.3015 22.421 31.8066 22.421 32.3863Z" fill="black" fill-opacity="0.8"/>
<path d="M22.421 35.5579C22.421 36.1459 21.9132 36.651 21.3123 36.651H12.7806C12.1797 36.651 11.6719 36.1459 11.6719 35.5579C11.6719 34.97 12.1797 34.4731 12.7806 34.4731H21.3123C21.9132 34.4731 22.421 34.9783 22.421 35.5579Z" fill="black" fill-opacity="0.8"/>
<path d="M2.70852 38.7378C1.2612 38.7378 0.0593262 37.5702 0.0593262 36.1459C0.0593262 34.7216 1.25274 33.5623 2.70852 33.5623C4.16431 33.5623 5.35772 34.7299 5.35772 36.1459C5.35772 37.4791 4.16431 38.7378 2.70852 38.7378ZM2.70852 35.5662C2.45461 35.5662 2.20069 35.8146 2.20069 36.0713C2.20069 36.3281 2.45461 36.5682 2.70852 36.5682C2.96244 36.5682 3.21636 36.3198 3.21636 36.0713C3.21636 35.8229 2.96244 35.5662 2.70852 35.5662Z" fill="black" fill-opacity="0.8"/>
<path d="M43.7585 9.51462C41.9642 9.51462 40.5168 8.0986 40.5168 6.34307C40.5168 4.58753 41.9642 3.17151 43.7585 3.17151C45.5529 3.17151 47.0002 4.58753 47.0002 6.34307C47.0002 8.0986 45.4682 9.51462 43.7585 9.51462ZM43.7585 5.34109C43.1576 5.34109 42.6497 5.83794 42.6497 6.42587C42.6497 7.01381 43.1576 7.51066 43.7585 7.51066C44.3595 7.51066 44.8673 7.01381 44.8673 6.42587C44.7826 5.75513 44.351 5.34109 43.7585 5.34109Z" fill="black" fill-opacity="0.8"/>
<path d="M22.4208 40.7416C22.4208 41.3213 21.913 41.8264 21.3121 41.8264H17.0463C16.4538 41.8264 15.9375 41.3213 15.9375 40.7416C15.9375 40.162 16.4538 39.6486 17.0463 39.6486H21.3121C21.913 39.6486 22.4208 40.1537 22.4208 40.7416Z" fill="black" fill-opacity="0.8"/>
</g>
<defs>
<clipPath id="clip0_30_1418">
<rect width="47" height="46" fill="white"/>
</clipPath>
</defs>
</svg>
