<svg width="19" height="19" viewBox="0 0 19 19" fill="none" xmlns="http://www.w3.org/2000/svg">
<path d="M9.50002 9.5C8.62919 9.5 7.8837 9.18993 7.26356 8.56979C6.64342 7.94965 6.33335 7.20417 6.33335 6.33333C6.33335 5.4625 6.64342 4.71702 7.26356 4.09688C7.8837 3.47674 8.62919 3.16667 9.50002 3.16667C10.3709 3.16667 11.1163 3.47674 11.7365 4.09688C12.3566 4.71702 12.6667 5.4625 12.6667 6.33333C12.6667 7.20417 12.3566 7.94965 11.7365 8.56979C11.1163 9.18993 10.3709 9.5 9.50002 9.5ZM3.16669 15.8333V13.6167C3.16669 13.1681 3.28214 12.7557 3.51304 12.3797C3.74394 12.0036 4.05071 11.7167 4.43335 11.5188C5.25141 11.1097 6.08266 10.803 6.9271 10.5984C7.77155 10.3939 8.62919 10.2917 9.50002 10.2917C10.3709 10.2917 11.2285 10.3939 12.0729 10.5984C12.9174 10.803 13.7486 11.1097 14.5667 11.5188C14.9493 11.7167 15.2561 12.0036 15.487 12.3797C15.7179 12.7557 15.8334 13.1681 15.8334 13.6167V15.8333H3.16669ZM4.75002 14.25H14.25V13.6167C14.25 13.4715 14.2137 13.3396 14.1412 13.2208C14.0686 13.1021 13.9729 13.0097 13.8542 12.9438C13.1417 12.5875 12.4226 12.3203 11.6969 12.1422C10.9712 11.9641 10.2389 11.875 9.50002 11.875C8.76113 11.875 8.02884 11.9641 7.30315 12.1422C6.57745 12.3203 5.85835 12.5875 5.14585 12.9438C5.0271 13.0097 4.93144 13.1021 4.85887 13.2208C4.78631 13.3396 4.75002 13.4715 4.75002 13.6167V14.25ZM9.50002 7.91667C9.93544 7.91667 10.3082 7.76163 10.6182 7.45156C10.9283 7.14149 11.0834 6.76875 11.0834 6.33333C11.0834 5.89792 10.9283 5.52517 10.6182 5.21511C10.3082 4.90504 9.93544 4.75 9.50002 4.75C9.0646 4.75 8.69186 4.90504 8.38179 5.21511C8.07172 5.52517 7.91669 5.89792 7.91669 6.33333C7.91669 6.76875 8.07172 7.14149 8.38179 7.45156C8.69186 7.76163 9.0646 7.91667 9.50002 7.91667Z" fill="white"/>
</svg>
