<svg width="19" height="19" viewBox="0 0 19 19" fill="none" xmlns="http://www.w3.org/2000/svg">
<path d="M9.50001 17.4167C8.41807 17.4167 7.3955 17.2089 6.4323 16.7932C5.46911 16.3776 4.62796 15.8102 3.90886 15.0911C3.18977 14.372 2.62241 13.5309 2.20678 12.5677C1.79116 11.6045 1.58334 10.5819 1.58334 9.5C1.58334 8.40486 1.79116 7.37899 2.20678 6.42239C2.62241 5.4658 3.18977 4.62795 3.90886 3.90885C4.62796 3.18976 5.46911 2.62239 6.4323 2.20677C7.3955 1.79114 8.41807 1.58333 9.50001 1.58333C10.5951 1.58333 11.621 1.79114 12.5776 2.20677C13.5342 2.62239 14.3721 3.18976 15.0912 3.90885C15.8103 4.62795 16.3776 5.4658 16.7932 6.42239C17.2089 7.37899 17.4167 8.40486 17.4167 9.5C17.4167 10.5819 17.2089 11.6045 16.7932 12.5677C16.3776 13.5309 15.8103 14.372 15.0912 15.0911C14.3721 15.8102 13.5342 16.3776 12.5776 16.7932C11.621 17.2089 10.5951 17.4167 9.50001 17.4167ZM9.50001 15.7937C9.84307 15.3187 10.1399 14.824 10.3906 14.3094C10.6413 13.7948 10.8458 13.2472 11.0042 12.6667H7.99584C8.15418 13.2472 8.35869 13.7948 8.60939 14.3094C8.86008 14.824 9.15695 15.3187 9.50001 15.7937ZM7.44168 15.4771C7.20418 15.0417 6.99636 14.5898 6.81824 14.1214C6.64011 13.653 6.49168 13.1681 6.37293 12.6667H4.03751C4.42015 13.3264 4.89845 13.9003 5.47241 14.3885C6.04636 14.8767 6.70279 15.2396 7.44168 15.4771ZM11.5583 15.4771C12.2972 15.2396 12.9537 14.8767 13.5276 14.3885C14.1016 13.9003 14.5799 13.3264 14.9625 12.6667H12.6271C12.5083 13.1681 12.3599 13.653 12.1818 14.1214C12.0037 14.5898 11.7958 15.0417 11.5583 15.4771ZM3.36459 11.0833H6.05626C6.01668 10.8194 5.98699 10.5589 5.9672 10.3016C5.94741 10.0443 5.93751 9.77708 5.93751 9.5C5.93751 9.22292 5.94741 8.95573 5.9672 8.69844C5.98699 8.44114 6.01668 8.18055 6.05626 7.91667H3.36459C3.29862 8.18055 3.24914 8.44114 3.21616 8.69844C3.18317 8.95573 3.16668 9.22292 3.16668 9.5C3.16668 9.77708 3.18317 10.0443 3.21616 10.3016C3.24914 10.5589 3.29862 10.8194 3.36459 11.0833ZM7.63959 11.0833H11.3604C11.4 10.8194 11.4297 10.5589 11.4495 10.3016C11.4693 10.0443 11.4792 9.77708 11.4792 9.5C11.4792 9.22292 11.4693 8.95573 11.4495 8.69844C11.4297 8.44114 11.4 8.18055 11.3604 7.91667H7.63959C7.60001 8.18055 7.57032 8.44114 7.55053 8.69844C7.53074 8.95573 7.52084 9.22292 7.52084 9.5C7.52084 9.77708 7.53074 10.0443 7.55053 10.3016C7.57032 10.5589 7.60001 10.8194 7.63959 11.0833ZM12.9438 11.0833H15.6354C15.7014 10.8194 15.7509 10.5589 15.7839 10.3016C15.8169 10.0443 15.8333 9.77708 15.8333 9.5C15.8333 9.22292 15.8169 8.95573 15.7839 8.69844C15.7509 8.44114 15.7014 8.18055 15.6354 7.91667H12.9438C12.9833 8.18055 13.013 8.44114 13.0328 8.69844C13.0526 8.95573 13.0625 9.22292 13.0625 9.5C13.0625 9.77708 13.0526 10.0443 13.0328 10.3016C13.013 10.5589 12.9833 10.8194 12.9438 11.0833ZM12.6271 6.33333H14.9625C14.5799 5.67361 14.1016 5.09965 13.5276 4.61146C12.9537 4.12326 12.2972 3.76042 11.5583 3.52292C11.7958 3.95833 12.0037 4.41024 12.1818 4.87864C12.3599 5.34705 12.5083 5.83194 12.6271 6.33333ZM7.99584 6.33333H11.0042C10.8458 5.75278 10.6413 5.20521 10.3906 4.69062C10.1399 4.17604 9.84307 3.68125 9.50001 3.20625C9.15695 3.68125 8.86008 4.17604 8.60939 4.69062C8.35869 5.20521 8.15418 5.75278 7.99584 6.33333ZM4.03751 6.33333H6.37293C6.49168 5.83194 6.64011 5.34705 6.81824 4.87864C6.99636 4.41024 7.20418 3.95833 7.44168 3.52292C6.70279 3.76042 6.04636 4.12326 5.47241 4.61146C4.89845 5.09965 4.42015 5.67361 4.03751 6.33333Z" fill="white"/>
</svg>
