<svg width="168" height="56" viewBox="0 0 168 56" fill="none" xmlns="http://www.w3.org/2000/svg">
<g clip-path="url(#clip0_30_1215)">
<path d="M49.1444 42.5808C47.9965 42.1687 47.779 41.8939 47.779 41.4211C47.779 40.9484 48.1093 40.5726 48.8947 40.5726C49.4707 40.5726 49.8533 40.7625 50.2722 41.11L50.6831 40.6049C50.1997 40.217 49.7083 39.9907 48.935 39.9907C47.8636 39.9907 47.1385 40.5403 47.1385 41.4615C47.1385 42.2939 47.5574 42.698 48.798 43.1425C49.8493 43.5223 50.1675 43.8253 50.1675 44.3587C50.1675 44.9689 49.6922 45.3487 48.931 45.3487C48.3389 45.3487 47.8394 45.0739 47.4044 44.6577L46.9814 45.1345C47.4326 45.5952 48.1294 45.9346 48.9108 45.9346C50.1071 45.9346 50.812 45.2315 50.812 44.3304C50.812 43.4294 50.4213 43.0455 49.1485 42.5848L49.1444 42.5808Z" fill="white"/>
<path d="M53.4141 41.4331C52.8542 41.4331 52.3467 41.5705 51.9681 41.7766L52.2017 42.2776C52.5521 42.0716 52.9227 41.9463 53.3738 41.9463C54.0022 41.9463 54.3083 42.2574 54.3083 42.9039V43.4131C54.0546 43.2716 53.6638 43.1625 53.2329 43.1625C52.383 43.1625 51.5854 43.5747 51.5854 44.5445C51.5854 45.587 52.2903 45.9264 52.959 45.9264C53.5793 45.9264 54.0022 45.6355 54.3083 45.3082V45.8375H54.9206V42.8231C54.9206 41.821 54.3405 41.425 53.4141 41.425V41.4331ZM54.3083 44.7829C54.0465 45.1425 53.6276 45.4294 53.0717 45.4294C52.5441 45.4294 52.1896 45.1506 52.1896 44.5081C52.1896 43.9666 52.5683 43.6596 53.2006 43.6596C53.7243 43.6596 54.0264 43.7565 54.3083 43.9101V44.7869V44.7829Z" fill="white"/>
<path d="M61.0993 43.3123V45.8417H61.7116V43.2113C61.7116 41.9506 61.1638 41.4333 60.2857 41.4333C59.5848 41.4333 59.2344 41.7606 58.9807 42.1728C58.7752 41.7606 58.4087 41.4333 57.8005 41.4333C57.293 41.4333 56.9305 41.6798 56.7089 42.0516V41.5263H56.0886V45.8458H56.7089V43.3163C56.7089 42.3587 57.0755 41.9667 57.6676 41.9667C58.2597 41.9667 58.594 42.3263 58.594 43.3163V45.8458H59.2103V43.3163C59.2103 42.3587 59.5848 41.9667 60.1689 41.9667C60.7892 41.9667 61.0953 42.3263 61.0953 43.3163L61.0993 43.3123Z" fill="white"/>
<path d="M64.1806 43.3283C63.4516 42.997 63.2341 42.8556 63.2341 42.4879C63.2341 42.1727 63.4918 41.9545 63.947 41.9545C64.4021 41.9545 64.6841 42.0757 65.0184 42.3424L65.3608 41.8858C65.0345 41.6151 64.5753 41.4292 63.9873 41.4292C63.2018 41.4292 62.642 41.8737 62.642 42.5283C62.642 43.2192 63.0004 43.4819 63.8664 43.8536C64.6277 44.1809 64.8815 44.3789 64.8815 44.7345C64.8815 45.1547 64.6035 45.4012 64.0114 45.4012C63.5845 45.4012 63.1817 45.2275 62.8393 44.9244L62.4768 45.3729C62.8877 45.7043 63.4032 45.9265 63.9953 45.9265C64.7405 45.9265 65.4695 45.5588 65.4695 44.7062C65.4695 43.9344 64.9942 43.696 64.1766 43.3243L64.1806 43.3283Z" fill="white"/>
<path d="M69.0623 44.0477C69.0623 44.9932 68.5911 45.3932 67.999 45.3932C67.3062 45.3932 66.9799 44.977 66.9799 44.0477V41.5222H66.3677V44.1527C66.3677 45.3932 66.9678 45.9306 67.8741 45.9306C68.4179 45.9306 68.8166 45.6761 69.0623 45.3124V45.8417H69.6786V41.5222H69.0623V44.0477Z" fill="white"/>
<path d="M74.0288 45.8417V43.2113C74.0288 41.9667 73.4287 41.4333 72.5184 41.4333C71.9786 41.4333 71.5758 41.6879 71.3342 42.0516V41.5263H70.7139V45.8458H71.3342V43.3163C71.3342 42.3708 71.7974 41.9667 72.3935 41.9667C73.0823 41.9667 73.4126 42.387 73.4126 43.3163V45.8458H74.0288V45.8417Z" fill="white"/>
<path d="M75.9662 46.9569L76.1636 47.4256C77.7626 47.3771 78.3427 46.7508 78.3427 45.4497V41.5181H77.7264V42.003C77.4243 41.6555 77.0537 41.4292 76.514 41.4292C75.6117 41.4292 74.8867 42.2171 74.8867 43.7486C74.8867 45.28 75.5715 45.9265 76.4294 45.9265C77.0135 45.9265 77.4243 45.6356 77.7264 45.3083V45.5305C77.7264 46.5366 77.4001 46.9165 75.9622 46.9528L75.9662 46.9569ZM76.5865 45.3931C75.9058 45.3931 75.4949 44.8274 75.4949 43.7405C75.4949 42.5808 75.8454 41.9626 76.5623 41.9626C77.0739 41.9626 77.4887 42.2495 77.7264 42.6091V44.7709C77.4243 45.1507 77.0457 45.3931 76.5865 45.3931Z" fill="white"/>
<path d="M85.1337 42.9202C85.1337 40.9443 84.022 40.0796 82.5156 40.0796H80.9971V45.8416H82.4028C83.9374 45.8416 85.1337 45.0092 85.1337 42.9202ZM81.6375 40.6614H82.4673C83.7884 40.6614 84.4933 41.4696 84.4933 42.9404C84.4933 44.5971 83.7199 45.2557 82.4834 45.2557H81.6375V40.6614Z" fill="white"/>
<path d="M86.7733 42.0555V41.5221H86.157V45.8416H86.7733V43.3041C86.7733 42.4798 87.1116 41.9989 87.7118 41.9989C87.9977 41.9989 88.183 42.0636 88.3562 42.1646L88.5093 41.5423C88.3643 41.4777 88.1589 41.4373 87.8366 41.4373C87.3734 41.4373 86.9666 41.7161 86.7733 42.0595V42.0555Z" fill="white"/>
<path d="M92.1906 45.4295L91.9006 44.985C91.5058 45.2476 91.2118 45.3971 90.7083 45.3971C90.0075 45.3971 89.5684 44.8112 89.512 43.894H92.3799C92.4 43.793 92.4081 43.7041 92.4081 43.5586C92.4081 42.3262 91.7958 41.4373 90.6721 41.4373C89.649 41.4373 88.8958 42.2898 88.8958 43.6596C88.8958 45.3608 89.8544 45.9345 90.6439 45.9345C91.2924 45.9345 91.671 45.7608 92.1906 45.4335V45.4295ZM90.6721 41.9666C91.4253 41.9666 91.7878 42.5525 91.8361 43.3889H89.512C89.5845 42.4232 90.0316 41.9666 90.6721 41.9666Z" fill="white"/>
<path d="M94.4625 45.9305C95.0788 45.9305 95.5017 45.6396 95.8038 45.3123V45.8416H96.4201V42.8273C96.4201 41.8252 95.84 41.4292 94.9136 41.4292C94.3537 41.4292 93.8462 41.5666 93.4676 41.7727L93.6972 42.2737C94.0517 42.0676 94.4182 41.9424 94.8693 41.9424C95.5017 41.9424 95.8038 42.2535 95.8038 42.9V43.4091C95.55 43.2677 95.1634 43.1586 94.7324 43.1586C93.8785 43.1586 93.0769 43.5708 93.0769 44.5405C93.0769 45.583 93.7858 45.9225 94.4585 45.9225L94.4625 45.9305ZM94.7002 43.6556C95.2238 43.6556 95.5299 43.7526 95.8078 43.9061V44.783C95.546 45.1426 95.1271 45.4295 94.5713 45.4295C94.0476 45.4295 93.6891 45.1507 93.6891 44.5082C93.6891 43.9668 94.0718 43.6597 94.7002 43.6597V43.6556Z" fill="white"/>
<path d="M102.599 43.3123V45.8417H103.215V43.2113C103.215 41.9506 102.667 41.4333 101.789 41.4333C101.092 41.4333 100.738 41.7606 100.488 42.1728C100.283 41.7606 99.9163 41.4333 99.3081 41.4333C98.7965 41.4333 98.438 41.6798 98.2165 42.0516V41.5263H97.6042V45.8458H98.2165V43.3163C98.2165 42.3587 98.5871 41.9667 99.1792 41.9667C99.7713 41.9667 100.11 42.3263 100.11 43.3163V45.8458H100.722V43.3163C100.722 42.3587 101.096 41.9667 101.685 41.9667C102.305 41.9667 102.611 42.3263 102.611 43.3163L102.599 43.3123Z" fill="white"/>
<path d="M49.1444 51.151C47.9925 50.7388 47.783 50.4681 47.783 49.9913C47.783 49.5145 48.1133 49.1468 48.8987 49.1468C49.4747 49.1468 49.8614 49.3327 50.2763 49.6802L50.6871 49.1791C50.2038 48.7953 49.7083 48.5649 48.939 48.5649C47.8636 48.5649 47.1426 49.1064 47.1426 50.0358C47.1426 50.8681 47.5615 51.2682 48.8021 51.7126C49.8533 52.0965 50.1715 52.3955 50.1715 52.9329C50.1715 53.539 49.6963 53.9189 48.931 53.9189C48.3389 53.9189 47.8394 53.6441 47.4044 53.2279L46.9814 53.7047C47.4326 54.1653 48.1294 54.5007 48.9108 54.5007C50.1071 54.5007 50.808 53.8017 50.808 52.8966C50.808 51.9915 50.4172 51.6116 49.1485 51.151H49.1444Z" fill="white"/>
<path d="M53.4221 50.5369C53.8571 50.5369 54.1431 50.6905 54.4532 50.9733L54.8238 50.5127C54.4854 50.2137 54.0383 49.9995 53.4623 49.9995C52.5601 49.9995 51.6055 50.6743 51.6055 52.2704C51.6055 53.7776 52.4715 54.4968 53.418 54.4968C54.0222 54.4968 54.4411 54.2665 54.8036 53.8947L54.4331 53.5028C54.139 53.7897 53.8611 53.9594 53.4422 53.9594C52.6809 53.9594 52.2258 53.2765 52.2258 52.2138C52.2258 51.1511 52.7454 50.5288 53.418 50.5288L53.4221 50.5369Z" fill="white"/>
<path d="M57.4539 50.0035C56.9142 50.0035 56.5074 50.258 56.2617 50.6217V48.5933H55.6494V54.4199H56.2617V51.8905C56.2617 50.9449 56.7329 50.5409 57.3291 50.5409C58.0219 50.5409 58.3481 50.9571 58.3481 51.8905V54.4199H58.9644V51.7814C58.9644 50.5409 58.3642 50.0035 57.4539 50.0035Z" fill="white"/>
<path d="M61.7116 50.0034C60.6643 50.0034 59.8306 50.7914 59.8306 52.2581C59.8306 53.7249 60.6321 54.5048 61.6794 54.5048C62.7266 54.5048 63.5685 53.6926 63.5685 52.2258C63.5685 50.759 62.7589 50.0034 61.7116 50.0034ZM61.6995 53.9673C60.9503 53.9673 60.4468 53.3774 60.4468 52.242C60.4468 51.1065 60.9503 50.5408 61.6995 50.5408C62.4487 50.5408 62.9522 51.1065 62.9522 52.242C62.9522 53.3774 62.4447 53.9673 61.6995 53.9673Z" fill="white"/>
<path d="M65.1111 48.5891H64.4949V54.4158H65.1111V48.5891Z" fill="white"/>
<path d="M67.9264 50.0034C67.3666 50.0034 66.8591 50.1448 66.4845 50.3509L66.7141 50.856C67.0685 50.6499 67.4391 50.5247 67.8902 50.5247C68.5186 50.5247 68.8247 50.8398 68.8247 51.4783V51.9914C68.5709 51.85 68.1842 51.7409 67.7533 51.7409C66.8993 51.7409 66.1018 52.1531 66.1018 53.1269C66.1018 54.1694 66.8067 54.5048 67.4794 54.5048C68.0956 54.5048 68.5185 54.2179 68.8247 53.8906V54.4199H69.4409V51.4096C69.4409 50.3994 68.8569 50.0075 67.9305 50.0075L67.9264 50.0034ZM68.8206 53.3532C68.5629 53.7087 68.1359 53.9997 67.5841 53.9997C67.0604 53.9997 66.706 53.7209 66.706 53.0784C66.706 52.5329 67.0846 52.2339 67.717 52.2339C68.2406 52.2339 68.5427 52.3228 68.8206 52.4804V53.3532Z" fill="white"/>
<path d="M71.2254 50.6298V50.0883H70.6091V54.4118H71.2254V51.8743C71.2254 51.054 71.5557 50.5651 72.1599 50.5651C72.4499 50.5651 72.6352 50.6298 72.8084 50.7308L72.9655 50.1045C72.8164 50.0398 72.615 49.9954 72.2928 49.9954C71.8336 49.9954 71.4187 50.2742 71.2294 50.6257L71.2254 50.6298Z" fill="white"/>
<path d="M75.3257 51.9025C74.5967 51.5712 74.3752 51.4217 74.3752 51.0621C74.3752 50.7509 74.637 50.5287 75.0881 50.5287C75.5392 50.5287 75.8292 50.654 76.1636 50.9166L76.5059 50.4641C76.1756 50.1933 75.7205 50.0034 75.1284 50.0034C74.347 50.0034 73.779 50.4479 73.779 51.1065C73.779 51.7652 74.1415 52.0601 75.0035 52.4278C75.7648 52.7551 76.0185 52.9572 76.0185 53.3087C76.0185 53.733 75.7406 53.9754 75.1526 53.9754C74.7216 53.9754 74.3228 53.8017 73.9764 53.4986L73.6179 53.9512C74.0288 54.2825 74.5443 54.5007 75.1364 54.5007C75.8816 54.5007 76.6107 54.129 76.6107 53.2845C76.6107 52.5086 76.1354 52.2743 75.3217 51.9025H75.3257Z" fill="white"/>
<path d="M79.4223 50.0035C78.8745 50.0035 78.4757 50.258 78.23 50.6217V48.5933H77.6138V54.4199H78.23V51.8905C78.23 50.9449 78.6973 50.5409 79.2974 50.5409C79.9862 50.5409 80.3125 50.9571 80.3125 51.8905V54.4199H80.9287V51.7814C80.9287 50.5409 80.3326 50.0035 79.4223 50.0035Z" fill="white"/>
<path d="M82.7573 50.0884H82.145V54.4119H82.7573V50.0884Z" fill="white"/>
<path d="M82.4632 48.4397C82.2135 48.4397 82.0161 48.6377 82.0161 48.8882C82.0161 49.1387 82.2135 49.3246 82.4632 49.3246C82.6928 49.3246 82.8902 49.1226 82.8902 48.8882C82.8902 48.6377 82.6928 48.4397 82.4632 48.4397Z" fill="white"/>
<path d="M85.9111 50.0034C85.331 50.0034 84.9202 50.2943 84.6141 50.6216V50.0923H83.9978V56.0039H84.6141V53.931C84.9162 54.2744 85.2867 54.5048 85.8305 54.5048C86.7287 54.5048 87.4537 53.7128 87.4537 52.1854C87.4537 50.658 86.769 50.0034 85.9111 50.0034ZM85.7781 53.9673C85.2706 53.9673 84.8517 53.6804 84.6141 53.3168V51.1591C84.9162 50.7833 85.2948 50.5368 85.754 50.5368C86.4387 50.5368 86.8496 51.1025 86.8496 52.1894C86.8496 53.3491 86.4951 53.9633 85.7822 53.9633L85.7781 53.9673Z" fill="white"/>
<path d="M90.7125 49.2357H93.4434V48.6538H90.072V54.4158H90.7125V51.7288H92.2874V51.1469H90.7125V49.2357Z" fill="white"/>
<path d="M95.3123 50.0034C94.2651 50.0034 93.4272 50.7914 93.4272 52.2581C93.4272 53.7249 94.2328 54.5048 95.2801 54.5048C96.3273 54.5048 97.1692 53.6926 97.1692 52.2258C97.1692 50.759 96.3676 50.0034 95.3123 50.0034ZM95.2962 53.9673C94.547 53.9673 94.0516 53.3774 94.0516 52.242C94.0516 51.1065 94.551 50.5408 95.2962 50.5408C96.0414 50.5408 96.5529 51.1065 96.5529 52.242C96.5529 53.3774 96.0454 53.9673 95.2962 53.9673Z" fill="white"/>
<path d="M100.565 52.6179C100.565 53.5634 100.102 53.9674 99.5014 53.9674C98.8126 53.9674 98.4824 53.5513 98.4824 52.6179V50.0884H97.8701V52.7229C97.8701 53.9634 98.4703 54.5008 99.3806 54.5008C99.9163 54.5008 100.319 54.2503 100.565 53.8866V54.416H101.185V50.0924H100.565V52.6219V52.6179Z" fill="white"/>
<path d="M104.021 50.0036C103.481 50.0036 103.078 50.2581 102.832 50.6218V50.0924H102.216V54.416H102.832V51.8865C102.832 50.941 103.3 50.5369 103.9 50.5369C104.589 50.5369 104.915 50.9531 104.915 51.8865V54.416H105.531V51.7774C105.531 50.5369 104.931 49.9995 104.021 49.9995V50.0036Z" fill="white"/>
<path d="M109.233 50.5812C108.927 50.2337 108.56 49.9993 108.016 49.9993C107.114 49.9993 106.393 50.7873 106.393 52.3227C106.393 53.8582 107.074 54.5007 107.936 54.5007C108.52 54.5007 108.927 54.2138 109.229 53.8865V54.4158H109.845V48.5891H109.229V50.5812H109.233ZM109.233 53.341C108.927 53.7168 108.552 53.9632 108.093 53.9632C107.412 53.9632 107.001 53.3975 107.001 52.3106C107.001 51.1469 107.352 50.5327 108.069 50.5327C108.576 50.5327 108.991 50.8196 109.233 51.1832V53.3369V53.341Z" fill="white"/>
<path d="M112.455 50.0034C111.899 50.0034 111.392 50.1448 111.013 50.3509L111.239 50.856C111.593 50.6499 111.964 50.5247 112.415 50.5247C113.043 50.5247 113.345 50.8398 113.345 51.4783V51.9914C113.091 51.85 112.705 51.7409 112.27 51.7409C111.42 51.7409 110.622 52.1531 110.622 53.1269C110.622 54.1694 111.331 54.5048 112.004 54.5048C112.62 54.5048 113.043 54.2179 113.345 53.8906V54.4199H113.961V51.4096C113.961 50.3994 113.381 50.0075 112.451 50.0075L112.455 50.0034ZM113.345 53.3532C113.083 53.7087 112.668 53.9997 112.105 53.9997C111.585 53.9997 111.235 53.7209 111.235 53.0784C111.235 52.5329 111.609 52.2339 112.242 52.2339C112.765 52.2339 113.071 52.3228 113.345 52.4804V53.3532Z" fill="white"/>
<path d="M115.927 48.5891H115.307V50.0882H114.775V50.6095H115.307V53.5228C115.307 54.238 115.597 54.4966 116.133 54.4966C116.455 54.4966 116.684 54.4481 116.922 54.3511L116.966 53.8178C116.769 53.8986 116.608 53.939 116.358 53.939C116.032 53.939 115.927 53.8057 115.927 53.4218V50.6095H116.995V50.0882H115.927V48.5891Z" fill="white"/>
<path d="M118.392 48.4397C118.138 48.4397 117.937 48.6377 117.937 48.8882C117.937 49.1387 118.138 49.3246 118.392 49.3246C118.622 49.3246 118.815 49.1226 118.815 48.8882C118.815 48.6377 118.618 48.4397 118.392 48.4397Z" fill="white"/>
<path d="M118.686 50.0884H118.07V54.4119H118.686V50.0884Z" fill="white"/>
<path d="M121.498 50.0034C120.451 50.0034 119.613 50.7914 119.613 52.2581C119.613 53.7249 120.414 54.5048 121.466 54.5048C122.517 54.5048 123.351 53.6926 123.351 52.2258C123.351 50.759 122.545 50.0034 121.498 50.0034ZM121.482 53.9673C120.737 53.9673 120.233 53.3774 120.233 52.242C120.233 51.1065 120.737 50.5408 121.482 50.5408C122.227 50.5408 122.738 51.1065 122.738 52.242C122.738 53.3774 122.231 53.9673 121.482 53.9673Z" fill="white"/>
<path d="M126.045 50.0036C125.506 50.0036 125.103 50.2581 124.853 50.6218V50.0924H124.237V54.416H124.853V51.8865C124.853 50.941 125.32 50.5369 125.92 50.5369C126.609 50.5369 126.94 50.9531 126.94 51.8865V54.416H127.552V51.7774C127.552 50.5369 126.952 49.9995 126.045 49.9995V50.0036Z" fill="white"/>
<path d="M70.6778 28.7373C68.2046 28.7413 66.1665 30.6809 66.1665 33.1134C66.1665 35.5459 68.2046 37.4652 70.6778 37.4733C73.1751 37.4652 75.193 35.5216 75.193 33.1134C75.193 30.7051 73.1751 28.7413 70.6778 28.7373ZM70.6173 35.4772C69.3244 35.4772 68.3496 34.4185 68.3496 33.1134C68.3496 31.8082 69.3929 30.7294 70.6818 30.7294C71.9707 30.7294 72.9777 31.788 72.9777 33.1134C72.9777 34.4387 71.9224 35.4772 70.6214 35.4772H70.6173Z" fill="white"/>
<path d="M49.9783 25.7271C50.667 26.41 51.4565 27.008 52.2339 27.3919L52.3144 27.4363L53.6477 25.8564L53.5188 25.7837C52.254 25.0968 51.2632 24.228 50.6147 23.133C49.9702 22.0541 49.6399 20.8015 49.6399 19.3024V17.8962H47.2554V19.1529C47.2554 20.7773 46.8889 22.0541 46.2001 23.1734C45.4308 24.4139 44.2909 25.4119 42.8328 26.3373L42.7039 26.4181L44.1499 27.9212L44.2304 27.8768C45.0924 27.408 46.0067 26.6848 46.8002 25.8766C47.489 25.1695 48.0851 24.4139 48.4477 23.6987C48.7981 24.4018 49.3338 25.117 49.9783 25.7311V25.7271Z" fill="white"/>
<path d="M47.3965 36.4388H57.3776V29.5979H47.3965V36.4388ZM49.64 31.5294H55.1341V34.5073H49.64V31.5294Z" fill="white"/>
<path d="M80.675 36.4388H91.9612V29.5979H80.675V36.4388ZM82.8944 31.5294H89.7459V34.5073H82.8944V31.5294Z" fill="white"/>
<path d="M57.4179 17.4922H55.1985V28.8142H57.4179V23.8038H60.0159V21.7915H57.4179V17.4922Z" fill="white"/>
<path d="M103.433 26.3049C104.162 26.9392 104.995 27.4726 105.781 27.8161L105.861 27.8524L107.062 26.224L106.933 26.1594C105.789 25.5735 104.77 24.8462 104.037 23.9572C103.292 23.0521 102.849 21.9611 102.849 20.6479V20.264H106.151V18.3164H97.1853V20.264H100.484V20.7327C100.484 21.9288 100.089 23.044 99.4329 24.0097C98.6636 25.1694 97.5398 26.1028 96.4482 26.7089L96.3032 26.7857L97.7774 28.3171L97.858 28.2767C98.6515 27.8242 99.5296 27.1413 100.279 26.3736C100.879 25.7432 101.419 25.0765 101.749 24.4098C102.148 25.0563 102.76 25.7028 103.437 26.3049H103.433Z" fill="white"/>
<path d="M119.484 31.5738H127.552V36.4347H129.791V29.6423H119.484V31.5738Z" fill="white"/>
<path d="M125.05 23.7875C125.05 22.7167 124.571 21.7308 123.862 20.9792H126.077V19.0518H121.848V16.9304H119.444V19.0518H115.114V20.9792H117.377C116.684 21.7308 116.205 22.7086 116.205 23.7875C116.205 26.1755 118.167 28.1151 120.62 28.1231C123.073 28.1151 125.046 26.1755 125.05 23.7875ZM118.344 23.6986C118.344 22.3773 119.456 21.258 120.62 21.258C121.784 21.258 122.891 22.3813 122.895 23.6986C122.895 24.9997 121.784 26.123 120.62 26.127C119.452 26.123 118.348 24.9997 118.344 23.6986Z" fill="white"/>
<path d="M129.791 17.4922H127.576V28.8546H129.791V24.519H132.397V22.5067H129.791V17.4922Z" fill="white"/>
<path d="M110.993 17.4922H108.778V28.8546H110.993V23.8038H113.595V21.7915H110.993V17.4922Z" fill="white"/>
<path d="M73.3886 20.8621H69.9004V22.8542H73.3886V29.2142H75.6079V17.4922H73.3886V20.8621Z" fill="white"/>
<path d="M67.7534 26.0221C68.4462 26.7009 69.2558 27.2989 70.0292 27.703L70.1138 27.7515L71.447 26.1716L71.3181 26.0989C70.0533 25.4321 69.0826 24.5674 68.4301 23.4886C67.7695 22.4178 67.4392 21.1167 67.4392 19.6176V17.8962H65.0507V19.4721C65.0507 21.0965 64.6882 22.3693 64.0155 23.4684C63.2502 24.7291 62.0861 25.7352 60.628 26.6524L60.5032 26.7332L61.9572 28.2404L62.0297 28.1919C62.8877 27.7192 63.7819 27.0363 64.5754 26.2564C65.2924 25.5412 65.8885 24.7614 66.251 24.0139C66.5934 24.6967 67.117 25.3917 67.7534 26.0261V26.0221Z" fill="white"/>
<path d="M106.236 28.7373C103.763 28.7413 101.725 30.6809 101.721 33.1134C101.725 35.5216 103.759 37.4652 106.236 37.4733C108.729 37.4652 110.751 35.5216 110.751 33.1134C110.751 30.7051 108.729 28.7413 106.236 28.7373ZM106.172 35.4772C104.883 35.4772 103.9 34.4185 103.9 33.1134C103.9 31.8082 104.939 30.7294 106.236 30.7294C107.533 30.7294 108.528 31.788 108.532 33.1134C108.532 34.4145 107.473 35.4772 106.172 35.4772Z" fill="white"/>
<path d="M83.3778 23.9854H85.5972V18.2031H79.6077V20.1265H83.3778V23.9854Z" fill="white"/>
<path d="M90.0398 23.9854H92.2632V18.2031H86.2737V20.1265H90.0398V23.9854Z" fill="white"/>
<path d="M146.612 22.6117H144.747V17.8074H142.648V35.9501H144.747V24.7937H146.612V36.435H148.787V17.4922H146.612V22.6117Z" fill="white"/>
<path d="M139.571 25.121C139.072 24.0259 138.866 22.8016 138.866 21.2985V20.5833H141.384V18.5427H134.069V20.5833H136.667V21.3389C136.667 22.7612 136.482 23.9249 136.035 25.0038C135.515 26.2443 134.641 27.3595 133.247 28.5556L133.151 28.6445L134.528 30.0143L134.613 29.9496C135.306 29.4364 136.031 28.693 136.635 27.9252C137.146 27.2787 137.577 26.608 137.847 26.018C138.125 26.5918 138.56 27.2504 139.068 27.8646C139.656 28.5839 140.32 29.2667 140.957 29.6748L141.041 29.7314L142.201 28.3414L142.109 28.2566C140.86 27.1656 140.087 26.1918 139.579 25.1169L139.571 25.121Z" fill="white"/>
<path d="M77.7507 26.6765H85.1178V28.8342H87.5224V26.6765H95.0063V24.741H77.7507V26.6765Z" fill="white"/>
<path d="M161.422 26.0584H153.922V20.3327H159.634V18.3164H151.675V28.0141H161.422V26.0584Z" fill="white"/>
<path d="M157.181 30.3979H154.938V36.4347H165.43V34.4467H157.181V30.3979Z" fill="white"/>
<path d="M165.378 22.7369V17.488H163.162V31.4648H165.378V24.7492H168V22.7369H165.378Z" fill="white"/>
<path d="M47.0501 11.6453L41.3023 9.25723L47.0501 6.86918L46.027 4.40032L40.2832 6.78837L42.6637 1.0223L40.1986 0L37.8222 5.76607L35.4417 0L32.9766 1.0223L35.3571 6.78837L29.6133 4.40032L28.5942 6.86918L34.338 9.25723L28.5942 11.6453L29.6133 14.1142L35.3571 11.7261L32.9766 17.4922L35.4417 18.5145L37.8222 12.7524L40.1986 18.5145L42.6637 17.4881L40.2832 11.7261L46.027 14.1142L47.0501 11.6453Z" fill="white"/>
<path d="M9.86038 27.7313H13.6829V17.4922H0.612305V20.9429H9.86038V27.7313Z" fill="white"/>
<path d="M24.7715 27.7313H28.594V17.4922H15.5234V20.9429H24.7715V27.7313Z" fill="white"/>
<path d="M0 33.0286H24.7716V38.3017H28.5941V29.5779H0V33.0286Z" fill="white"/>
<path d="M9.24805 54.4161H28.5941V40.0757H9.24805V54.4161ZM13.0705 43.5264H24.7756V50.9654H13.0705V43.5264Z" fill="white"/>
</g>
<defs>
<clipPath id="clip0_30_1215">
<rect width="168" height="56" fill="white"/>
</clipPath>
</defs>
</svg>
