<svg width="199" height="66" viewBox="0 0 199 66" fill="none" xmlns="http://www.w3.org/2000/svg">
<g clip-path="url(#clip0_30_1147)">
<path d="M58.2127 50.1846C56.853 49.6988 56.5953 49.375 56.5953 48.8178C56.5953 48.2606 56.9866 47.8177 57.9169 47.8177C58.5992 47.8177 59.0525 48.0416 59.5487 48.4511L60.0353 47.8558C59.4628 47.3987 58.8807 47.132 57.9646 47.132C56.6955 47.132 55.8367 47.7796 55.8367 48.8654C55.8367 49.8465 56.3329 50.3227 57.8024 50.8465C59.0477 51.2942 59.4246 51.6513 59.4246 52.28C59.4246 52.9991 58.8616 53.4467 57.9599 53.4467C57.2585 53.4467 56.6669 53.1229 56.1516 52.6324L55.6506 53.1943C56.185 53.7372 57.0104 54.1372 57.936 54.1372C59.353 54.1372 60.188 53.3086 60.188 52.2466C60.188 51.1846 59.7252 50.7322 58.2175 50.1893L58.2127 50.1846Z" fill="#1D1D1D"/>
<path d="M63.2701 48.8321C62.6069 48.8321 62.0058 48.994 61.5573 49.2369L61.834 49.8274C62.2491 49.5845 62.688 49.4369 63.2224 49.4369C63.9667 49.4369 64.3293 49.8036 64.3293 50.5656V51.1656C64.0287 50.9989 63.5659 50.8703 63.0554 50.8703C62.0487 50.8703 61.104 51.3561 61.104 52.499C61.104 53.7277 61.939 54.1277 62.731 54.1277C63.4657 54.1277 63.9667 53.7848 64.3293 53.3991V54.0229H65.0545V50.4703C65.0545 49.2893 64.3675 48.8226 63.2701 48.8226V48.8321ZM64.3293 52.78C64.0192 53.2038 63.523 53.542 62.8646 53.542C62.2395 53.542 61.8197 53.2134 61.8197 52.4562C61.8197 51.818 62.2682 51.4561 63.0172 51.4561C63.6375 51.4561 63.9953 51.5704 64.3293 51.7514V52.7848V52.78Z" fill="#1D1D1D"/>
<path d="M72.3735 51.0465V54.0277H73.0988V50.9275C73.0988 49.4417 72.4499 48.8321 71.4098 48.8321C70.5796 48.8321 70.1645 49.2178 69.8639 49.7036C69.6206 49.2178 69.1864 48.8321 68.466 48.8321C67.8648 48.8321 67.4354 49.1226 67.173 49.5607V48.9416H66.4382V54.0325H67.173V51.0513C67.173 49.9226 67.6072 49.4607 68.3085 49.4607C69.0099 49.4607 69.4059 49.8846 69.4059 51.0513V54.0325H70.1359V51.0513C70.1359 49.9226 70.5796 49.4607 71.2714 49.4607C72.0062 49.4607 72.3688 49.8846 72.3688 51.0513L72.3735 51.0465Z" fill="#1D1D1D"/>
<path d="M76.0236 51.0656C75.16 50.6751 74.9024 50.5084 74.9024 50.075C74.9024 49.7036 75.2077 49.4464 75.7468 49.4464C76.286 49.4464 76.62 49.5893 77.016 49.9036L77.4215 49.3655C77.0351 49.0464 76.4911 48.8273 75.7946 48.8273C74.8642 48.8273 74.201 49.3512 74.201 50.1227C74.201 50.937 74.6256 51.2466 75.6514 51.6847C76.5532 52.0704 76.8537 52.3038 76.8537 52.7229C76.8537 53.2181 76.5245 53.5086 75.8232 53.5086C75.3174 53.5086 74.8403 53.3038 74.4348 52.9467L74.0054 53.4753C74.492 53.8658 75.1027 54.1277 75.8041 54.1277C76.6868 54.1277 77.5503 53.6943 77.5503 52.6895C77.5503 51.7799 76.9873 51.499 76.0188 51.0608L76.0236 51.0656Z" fill="#1D1D1D"/>
<path d="M81.8062 51.9133C81.8062 53.0276 81.2479 53.4991 80.5466 53.4991C79.7259 53.4991 79.3395 53.0086 79.3395 51.9133V48.9369H78.6143V52.0371C78.6143 53.4991 79.3252 54.1325 80.3987 54.1325C81.0428 54.1325 81.5151 53.8325 81.8062 53.4039V54.0277H82.5361V48.9369H81.8062V51.9133Z" fill="#1D1D1D"/>
<path d="M87.6889 54.0277V50.9275C87.6889 49.4607 86.978 48.8321 85.8997 48.8321C85.2603 48.8321 84.7832 49.1321 84.497 49.5607V48.9416H83.7622V54.0325H84.497V51.0513C84.497 49.9369 85.0456 49.4607 85.7518 49.4607C86.5676 49.4607 86.9589 49.956 86.9589 51.0513V54.0325H87.6889V54.0277Z" fill="#1D1D1D"/>
<path d="M89.9838 55.3421L90.2175 55.8945C92.1117 55.8374 92.7987 55.0992 92.7987 53.5658V48.9321H92.0687V49.5036C91.7109 49.094 91.272 48.8273 90.6326 48.8273C89.5639 48.8273 88.7051 49.756 88.7051 51.5609C88.7051 53.3658 89.5162 54.1277 90.5324 54.1277C91.2242 54.1277 91.7109 53.7848 92.0687 53.3991V53.661C92.0687 54.8468 91.6823 55.2945 89.979 55.3373L89.9838 55.3421ZM90.7185 53.4991C89.9122 53.4991 89.4255 52.8324 89.4255 51.5513C89.4255 50.1846 89.8406 49.4559 90.6899 49.4559C91.2958 49.4559 91.7872 49.7941 92.0687 50.2179V52.7657C91.7109 53.2134 91.2624 53.4991 90.7185 53.4991Z" fill="#1D1D1D"/>
<path d="M100.843 50.5846C100.843 48.2559 99.5263 47.2367 97.7418 47.2367H95.9431V54.0277H97.6083C99.4261 54.0277 100.843 53.0467 100.843 50.5846ZM96.7017 47.9225H97.6846C99.2495 47.9225 100.084 48.875 100.084 50.6084C100.084 52.5609 99.1684 53.3372 97.7037 53.3372H96.7017V47.9225Z" fill="#1D1D1D"/>
<path d="M102.785 49.5655V48.9369H102.055V54.0277H102.785V51.037C102.785 50.0655 103.186 49.4988 103.897 49.4988C104.235 49.4988 104.455 49.575 104.66 49.6941L104.841 48.9607C104.67 48.8845 104.426 48.8369 104.045 48.8369C103.496 48.8369 103.014 49.1655 102.785 49.5702V49.5655Z" fill="#1D1D1D"/>
<path d="M109.202 53.542L108.859 53.0181C108.391 53.3277 108.043 53.5039 107.446 53.5039C106.616 53.5039 106.096 52.8133 106.029 51.7323H109.426C109.45 51.6132 109.46 51.5085 109.46 51.337C109.46 49.8846 108.735 48.8369 107.403 48.8369C106.192 48.8369 105.299 49.8417 105.299 51.4561C105.299 53.461 106.435 54.1372 107.37 54.1372C108.138 54.1372 108.587 53.9325 109.202 53.5467V53.542ZM107.403 49.4607C108.296 49.4607 108.725 50.1512 108.782 51.137H106.029C106.115 49.9988 106.645 49.4607 107.403 49.4607Z" fill="#1D1D1D"/>
<path d="M111.893 54.1325C112.623 54.1325 113.124 53.7896 113.482 53.4039V54.0277H114.212V50.4751C114.212 49.294 113.525 48.8273 112.427 48.8273C111.764 48.8273 111.163 48.9892 110.715 49.2321L110.986 49.8226C111.406 49.5798 111.841 49.4321 112.375 49.4321C113.124 49.4321 113.482 49.7988 113.482 50.5608V51.1608C113.181 50.9942 112.723 50.8656 112.213 50.8656C111.201 50.8656 110.252 51.3513 110.252 52.4943C110.252 53.7229 111.091 54.123 111.888 54.123L111.893 54.1325ZM112.174 51.4513C112.795 51.4513 113.157 51.5656 113.487 51.7466V52.78C113.176 53.2038 112.68 53.542 112.022 53.542C111.402 53.542 110.977 53.2134 110.977 52.4562C110.977 51.818 111.43 51.4561 112.174 51.4561V51.4513Z" fill="#1D1D1D"/>
<path d="M121.531 51.0465V54.0277H122.261V50.9275C122.261 49.4417 121.612 48.8321 120.572 48.8321C119.746 48.8321 119.326 49.2178 119.031 49.7036C118.787 49.2178 118.353 48.8321 117.633 48.8321C117.027 48.8321 116.602 49.1226 116.34 49.5607V48.9416H115.615V54.0325H116.34V51.0513C116.34 49.9226 116.779 49.4607 117.48 49.4607C118.181 49.4607 118.582 49.8846 118.582 51.0513V54.0325H119.307V51.0513C119.307 49.9226 119.751 49.4607 120.448 49.4607C121.182 49.4607 121.545 49.8846 121.545 51.0513L121.531 51.0465Z" fill="#1D1D1D"/>
<path d="M58.2127 60.2853C56.8482 59.7996 56.6001 59.4805 56.6001 58.9185C56.6001 58.3566 56.9913 57.9232 57.9217 57.9232C58.604 57.9232 59.062 58.1423 59.5534 58.5518L60.0401 57.9613C59.4676 57.5089 58.8807 57.2375 57.9694 57.2375C56.6955 57.2375 55.8415 57.8756 55.8415 58.9709C55.8415 59.9519 56.3377 60.4234 57.8072 60.9473C59.0525 61.3997 59.4294 61.7521 59.4294 62.3855C59.4294 63.0998 58.8664 63.5474 57.9599 63.5474C57.2585 63.5474 56.6669 63.2236 56.1516 62.7331L55.6506 63.295C56.185 63.8379 57.0104 64.2332 57.936 64.2332C59.353 64.2332 60.1832 63.4093 60.1832 62.3426C60.1832 61.2759 59.7204 60.8282 58.2175 60.2853H58.2127Z" fill="#1D1D1D"/>
<path d="M63.2797 59.5614C63.795 59.5614 64.1338 59.7424 64.5011 60.0758L64.9401 59.5329C64.5393 59.1805 64.0097 58.9281 63.3274 58.9281C62.2587 58.9281 61.1279 59.7234 61.1279 61.6044C61.1279 63.3808 62.1537 64.2284 63.2749 64.2284C63.9906 64.2284 64.4868 63.957 64.9162 63.5189L64.4773 63.0569C64.129 63.3951 63.7998 63.5951 63.3036 63.5951C62.4018 63.5951 61.8627 62.7902 61.8627 61.5378C61.8627 60.2853 62.4782 59.5519 63.2749 59.5519L63.2797 59.5614Z" fill="#1D1D1D"/>
<path d="M68.0557 58.9328C67.4164 58.9328 66.9345 59.2329 66.6434 59.6615V57.2708H65.9182V64.138H66.6434V61.1568C66.6434 60.0424 67.2017 59.5662 67.9078 59.5662C68.7284 59.5662 69.1149 60.0567 69.1149 61.1568V64.138H69.8449V61.0282C69.8449 59.5662 69.134 58.9328 68.0557 58.9328Z" fill="#1D1D1D"/>
<path d="M73.0987 58.9328C71.8582 58.9328 70.8706 59.8615 70.8706 61.5902C70.8706 63.3189 71.8201 64.238 73.0606 64.238C74.3011 64.238 75.2982 63.2808 75.2982 61.5521C75.2982 59.8234 74.3392 58.9328 73.0987 58.9328ZM73.0844 63.6046C72.197 63.6046 71.6006 62.9093 71.6006 61.5711C71.6006 60.2329 72.197 59.5662 73.0844 59.5662C73.9719 59.5662 74.5682 60.2329 74.5682 61.5711C74.5682 62.9093 73.9671 63.6046 73.0844 63.6046Z" fill="#1D1D1D"/>
<path d="M77.1255 57.266H76.3955V64.1332H77.1255V57.266Z" fill="#1D1D1D"/>
<path d="M80.4606 58.9328C79.7975 58.9328 79.1963 59.0995 78.7526 59.3424L79.0245 59.9377C79.4444 59.6948 79.8833 59.5472 80.4177 59.5472C81.162 59.5472 81.5246 59.9186 81.5246 60.6711V61.2759C81.224 61.1092 80.766 60.9806 80.2555 60.9806C79.244 60.9806 78.2993 61.4663 78.2993 62.614C78.2993 63.8427 79.1343 64.238 79.931 64.238C80.661 64.238 81.162 63.8999 81.5246 63.5141V64.138H82.2546V60.5901C82.2546 59.3995 81.5628 58.9376 80.4654 58.9376L80.4606 58.9328ZM81.5198 62.8807C81.2145 63.2998 80.7087 63.6427 80.0551 63.6427C79.4348 63.6427 79.015 63.3141 79.015 62.5569C79.015 61.914 79.4635 61.5616 80.2125 61.5616C80.8328 61.5616 81.1906 61.6664 81.5198 61.8521V62.8807Z" fill="#1D1D1D"/>
<path d="M84.3682 59.671V59.0328H83.6382V64.1284H84.3682V61.1377C84.3682 60.171 84.7594 59.5948 85.4751 59.5948C85.8186 59.5948 86.0381 59.671 86.2432 59.79L86.4293 59.0519C86.2528 58.9757 86.0142 58.9233 85.6325 58.9233C85.0886 58.9233 84.5972 59.2519 84.3729 59.6662L84.3682 59.671Z" fill="#1D1D1D"/>
<path d="M89.2251 61.1711C88.3615 60.7806 88.0991 60.6044 88.0991 60.1805C88.0991 59.8138 88.4092 59.5519 88.9436 59.5519C89.478 59.5519 89.8215 59.6996 90.2175 60.0091L90.6231 59.4757C90.2318 59.1567 89.6927 58.9328 88.9913 58.9328C88.0657 58.9328 87.393 59.4567 87.393 60.2329C87.393 61.0092 87.8224 61.3568 88.8434 61.7902C89.7452 62.1759 90.0458 62.414 90.0458 62.8283C90.0458 63.3284 89.7165 63.6141 89.02 63.6141C88.5094 63.6141 88.0371 63.4093 87.6268 63.0522L87.2021 63.5855C87.6888 63.9761 88.2995 64.2332 89.0009 64.2332C89.8835 64.2332 90.7471 63.7951 90.7471 62.7998C90.7471 61.8854 90.1841 61.6092 89.2203 61.1711H89.2251Z" fill="#1D1D1D"/>
<path d="M94.0775 58.9328C93.4287 58.9328 92.9563 59.2329 92.6653 59.6615V57.2708H91.9353V64.138H92.6653V61.1568C92.6653 60.0424 93.2187 59.5662 93.9296 59.5662C94.7455 59.5662 95.132 60.0567 95.132 61.1568V64.138H95.862V61.0282C95.862 59.5662 95.1558 58.9328 94.0775 58.9328Z" fill="#1D1D1D"/>
<path d="M98.028 59.0328H97.3027V64.1284H98.028V59.0328Z" fill="#1D1D1D"/>
<path d="M97.6797 57.0898C97.3839 57.0898 97.1501 57.3232 97.1501 57.6184C97.1501 57.9137 97.3839 58.1328 97.6797 58.1328C97.9517 58.1328 98.1855 57.8947 98.1855 57.6184C98.1855 57.3232 97.9517 57.0898 97.6797 57.0898Z" fill="#1D1D1D"/>
<path d="M101.764 58.9328C101.077 58.9328 100.59 59.2757 100.228 59.6615V59.0376H99.4976V66.0048H100.228V63.5617C100.585 63.9665 101.024 64.238 101.668 64.238C102.732 64.238 103.591 63.3046 103.591 61.5044C103.591 59.7043 102.78 58.9328 101.764 58.9328ZM101.606 63.6046C101.005 63.6046 100.509 63.2665 100.228 62.8379V60.2948C100.585 59.8519 101.034 59.5614 101.578 59.5614C102.389 59.5614 102.876 60.2282 102.876 61.5092C102.876 62.876 102.456 63.5998 101.611 63.5998L101.606 63.6046Z" fill="#1D1D1D"/>
<path d="M107.451 58.028H110.686V57.3422H106.692V64.1332H107.451V60.9663H109.317V60.2805H107.451V58.028Z" fill="#1D1D1D"/>
<path d="M112.9 58.9328C111.659 58.9328 110.667 59.8615 110.667 61.5902C110.667 63.3189 111.621 64.238 112.861 64.238C114.102 64.238 115.099 63.2808 115.099 61.5521C115.099 59.8234 114.15 58.9328 112.9 58.9328ZM112.881 63.6046C111.993 63.6046 111.406 62.9093 111.406 61.5711C111.406 60.2329 111.998 59.5662 112.881 59.5662C113.763 59.5662 114.369 60.2329 114.369 61.5711C114.369 62.9093 113.768 63.6046 112.881 63.6046Z" fill="#1D1D1D"/>
<path d="M119.121 62.014C119.121 63.1284 118.573 63.6046 117.862 63.6046C117.046 63.6046 116.655 63.1141 116.655 62.014V59.0328H115.929V62.1378C115.929 63.5998 116.64 64.2332 117.719 64.2332C118.353 64.2332 118.83 63.938 119.121 63.5094V64.1332H119.856V59.0376H119.121V62.0188V62.014Z" fill="#1D1D1D"/>
<path d="M123.215 58.9328C122.576 58.9328 122.098 59.2328 121.807 59.6614V59.0376H121.077V64.1332H121.807V61.152C121.807 60.0377 122.361 59.5614 123.072 59.5614C123.888 59.5614 124.274 60.052 124.274 61.152V64.1332H125.004V61.0235C125.004 59.5614 124.293 58.9281 123.215 58.9281V58.9328Z" fill="#1D1D1D"/>
<path d="M129.389 59.6138C129.026 59.2043 128.592 58.9281 127.948 58.9281C126.879 58.9281 126.025 59.8567 126.025 61.6664C126.025 63.476 126.831 64.2332 127.852 64.2332C128.544 64.2332 129.026 63.8951 129.384 63.5094V64.1332H130.114V57.266H129.384V59.6138H129.389ZM129.389 62.8664C129.026 63.3093 128.582 63.5998 128.039 63.5998C127.232 63.5998 126.746 62.9331 126.746 61.6521C126.746 60.2806 127.161 59.5567 128.01 59.5567C128.611 59.5567 129.103 59.8948 129.389 60.3234V62.8617V62.8664Z" fill="#1D1D1D"/>
<path d="M133.206 58.9328C132.547 58.9328 131.946 59.0995 131.498 59.3424L131.765 59.9377C132.185 59.6948 132.624 59.5472 133.158 59.5472C133.902 59.5472 134.26 59.9186 134.26 60.6711V61.2759C133.96 61.1092 133.502 60.9806 132.986 60.9806C131.98 60.9806 131.035 61.4663 131.035 62.614C131.035 63.8427 131.875 64.238 132.671 64.238C133.401 64.238 133.902 63.8999 134.26 63.5141V64.138H134.99V60.5901C134.99 59.3995 134.303 58.9376 133.201 58.9376L133.206 58.9328ZM134.26 62.8807C133.95 63.2998 133.459 63.6427 132.791 63.6427C132.175 63.6427 131.76 63.3141 131.76 62.5569C131.76 61.914 132.204 61.5616 132.953 61.5616C133.573 61.5616 133.936 61.6664 134.26 61.8521V62.8807Z" fill="#1D1D1D"/>
<path d="M137.318 57.266H136.584V59.0328H135.954V59.6472H136.584V63.0808C136.584 63.9237 136.927 64.2284 137.562 64.2284C137.943 64.2284 138.215 64.1713 138.497 64.057L138.549 63.4284C138.316 63.5236 138.125 63.5713 137.829 63.5713C137.442 63.5713 137.318 63.4141 137.318 62.9617V59.6472H138.583V59.0328H137.318V57.266Z" fill="#1D1D1D"/>
<path d="M140.238 57.0898C139.938 57.0898 139.699 57.3232 139.699 57.6184C139.699 57.9137 139.938 58.1328 140.238 58.1328C140.51 58.1328 140.739 57.8947 140.739 57.6184C140.739 57.3232 140.506 57.0898 140.238 57.0898Z" fill="#1D1D1D"/>
<path d="M140.587 59.0328H139.857V64.1284H140.587V59.0328Z" fill="#1D1D1D"/>
<path d="M143.917 58.9328C142.676 58.9328 141.684 59.8615 141.684 61.5902C141.684 63.3189 142.634 64.238 143.879 64.238C145.124 64.238 146.112 63.2808 146.112 61.5521C146.112 59.8234 145.157 58.9328 143.917 58.9328ZM143.898 63.6046C143.015 63.6046 142.419 62.9093 142.419 61.5711C142.419 60.2329 143.015 59.5662 143.898 59.5662C144.781 59.5662 145.387 60.2329 145.387 61.5711C145.387 62.9093 144.785 63.6046 143.898 63.6046Z" fill="#1D1D1D"/>
<path d="M149.304 58.9328C148.664 58.9328 148.187 59.2328 147.891 59.6614V59.0376H147.161V64.1332H147.891V61.152C147.891 60.0377 148.445 59.5614 149.156 59.5614C149.972 59.5614 150.363 60.052 150.363 61.152V64.1332H151.088V61.0235C151.088 59.5614 150.377 58.9281 149.304 58.9281V58.9328Z" fill="#1D1D1D"/>
<path d="M83.7194 33.8691C80.7899 33.8739 78.3757 36.1597 78.3757 39.0266C78.3757 41.8935 80.7899 44.1556 83.7194 44.1651C86.6775 44.1556 89.0679 41.8649 89.0679 39.0266C89.0679 36.1883 86.6775 33.8739 83.7194 33.8691ZM83.6479 41.8125C82.1163 41.8125 80.9617 40.5648 80.9617 39.0266C80.9617 37.4884 82.1974 36.2169 83.7242 36.2169C85.251 36.2169 86.4437 37.4646 86.4437 39.0266C86.4437 40.5886 85.1937 41.8125 83.6526 41.8125H83.6479Z" fill="#1D1D1D"/>
<path d="M59.2004 30.3212C60.0163 31.1261 60.9515 31.8309 61.8723 32.2833L61.9677 32.3357L63.547 30.4736L63.3943 30.3879C61.8961 29.5783 60.7224 28.5544 59.9543 27.2639C59.1909 25.9923 58.7997 24.5161 58.7997 22.7493V21.092H55.9751V22.5731C55.9751 24.4875 55.541 25.9923 54.7251 27.3115C53.8138 28.7735 52.4636 29.9498 50.7364 31.0403L50.5837 31.1356L52.2966 32.9071L52.392 32.8547C53.413 32.3023 54.4961 31.4499 55.436 30.4974C56.2519 29.664 56.958 28.7735 57.3874 27.9306C57.8025 28.7592 58.4371 29.6021 59.2004 30.326V30.3212Z" fill="#1D1D1D"/>
<path d="M56.1421 42.946H67.965V34.8835H56.1421V42.946ZM58.7996 37.1598H65.3075V40.6696H58.7996V37.1598Z" fill="#1D1D1D"/>
<path d="M95.5613 42.946H108.93V34.8835H95.5613V42.946ZM98.1902 37.1598H106.306V40.6696H98.1902V37.1598Z" fill="#1D1D1D"/>
<path d="M68.0127 20.6158H65.3838V33.9596H68.0127V28.0544H71.0901V25.6828H68.0127V20.6158Z" fill="#1D1D1D"/>
<path d="M122.518 31.0022C123.382 31.7499 124.37 32.3785 125.3 32.7833L125.395 32.8262L126.817 30.907L126.665 30.8308C125.31 30.1403 124.102 29.2831 123.234 28.2354C122.351 27.1686 121.827 25.8828 121.827 24.3351V23.8827H125.739V21.5873H115.118V23.8827H119.026V24.4351C119.026 25.8447 118.558 27.1591 117.781 28.2973C116.869 29.664 115.538 30.7641 114.245 31.4785L114.073 31.5689L115.82 33.3738L115.915 33.3262C116.855 32.7928 117.895 31.988 118.783 31.0832C119.494 30.3403 120.133 29.5545 120.524 28.7687C120.996 29.5307 121.722 30.2927 122.523 31.0022H122.518Z" fill="#1D1D1D"/>
<path d="M141.531 37.2122H151.088V42.9412H153.741V34.9359H141.531V37.2122Z" fill="#1D1D1D"/>
<path d="M148.125 28.0354C148.125 26.7734 147.557 25.6114 146.718 24.7256H149.342V22.454H144.332V19.9538H141.484V22.454H136.355V24.7256H139.036C138.215 25.6114 137.648 26.7638 137.648 28.0354C137.648 30.8498 139.971 33.1357 142.877 33.1452C145.783 33.1357 148.12 30.8498 148.125 28.0354ZM140.181 27.9306C140.181 26.3733 141.498 25.0542 142.877 25.0542C144.256 25.0542 145.568 26.3781 145.573 27.9306C145.573 29.464 144.256 30.7879 142.877 30.7927C141.493 30.7879 140.186 29.464 140.181 27.9306Z" fill="#1D1D1D"/>
<path d="M153.741 20.6158H151.117V34.0072H153.741V28.8973H156.828V26.5257H153.741V20.6158Z" fill="#1D1D1D"/>
<path d="M131.474 20.6158H128.85V34.0072H131.474V28.0544H134.556V25.6828H131.474V20.6158Z" fill="#1D1D1D"/>
<path d="M86.9304 24.5875H82.7986V26.9353H86.9304V34.4311H89.5593V20.6158H86.9304V24.5875Z" fill="#1D1D1D"/>
<path d="M80.2556 30.6689C81.0762 31.4689 82.0352 32.1737 82.9513 32.65L83.0515 32.7071L84.6307 30.8451L84.478 30.7594C82.9799 29.9736 81.83 28.9545 81.0571 27.6829C80.2746 26.421 79.8834 24.8875 79.8834 23.1207V21.092H77.0541V22.9493C77.0541 24.8637 76.6247 26.3638 75.8279 27.6591C74.9214 29.145 73.5425 30.3308 71.8154 31.4118L71.6675 31.507L73.3899 33.2834L73.4757 33.2262C74.492 32.669 75.5512 31.8642 76.4911 30.9451C77.3404 30.1022 78.0465 29.1831 78.4759 28.302C78.8815 29.1069 79.5017 29.926 80.2556 30.6736V30.6689Z" fill="#1D1D1D"/>
<path d="M125.839 33.8691C122.91 33.8739 120.495 36.1597 120.491 39.0266C120.495 41.8649 122.905 44.1556 125.839 44.1651C128.793 44.1556 131.188 41.8649 131.188 39.0266C131.188 36.1883 128.793 33.8739 125.839 33.8691ZM125.763 41.8125C124.236 41.8125 123.072 40.5648 123.072 39.0266C123.072 37.4884 124.303 36.2169 125.839 36.2169C127.375 36.2169 128.554 37.4646 128.559 39.0266C128.559 40.5601 127.304 41.8125 125.763 41.8125Z" fill="#1D1D1D"/>
<path d="M98.7629 28.2687H101.392V21.4539H94.2971V23.7208H98.7629V28.2687Z" fill="#1D1D1D"/>
<path d="M106.654 28.2687H109.288V21.4539H102.193V23.7208H106.654V28.2687Z" fill="#1D1D1D"/>
<path d="M173.665 26.6495H171.456V20.9872H168.97V42.3697H171.456V29.2212H173.665V42.9412H176.242V20.6158H173.665V26.6495Z" fill="#1D1D1D"/>
<path d="M165.325 29.6069C164.734 28.3163 164.49 26.8734 164.49 25.1018V24.2589H167.472V21.854H158.808V24.2589H161.885V25.1494C161.885 26.8257 161.666 28.1973 161.136 29.4688C160.521 30.9308 159.485 32.2452 157.834 33.6548L157.72 33.7596L159.352 35.374L159.452 35.2978C160.273 34.693 161.131 33.8167 161.847 32.9119C162.453 32.1499 162.963 31.3594 163.283 30.6641C163.612 31.3404 164.128 32.1166 164.729 32.8405C165.425 33.6881 166.213 34.493 166.966 34.974L167.067 35.0406L168.441 33.4024L168.331 33.3024C166.852 32.0166 165.936 30.8689 165.335 29.6021L165.325 29.6069Z" fill="#1D1D1D"/>
<path d="M92.0977 31.4404H100.824V33.9834H103.672V31.4404H112.537V29.1592H92.0977V31.4404Z" fill="#1D1D1D"/>
<path d="M191.209 30.7117H182.325V23.9636H189.09V21.5873H179.663V33.0167H191.209V30.7117Z" fill="#1D1D1D"/>
<path d="M186.185 35.8264H183.527V42.9412H195.956V40.5982H186.185V35.8264Z" fill="#1D1D1D"/>
<path d="M195.894 26.7972V20.611H193.27V37.0836H195.894V29.1688H199V26.7972H195.894Z" fill="#1D1D1D"/>
<path d="M55.7318 13.7248L48.9233 10.9103L55.7318 8.09582L54.5199 5.18609L47.7162 8.00058L50.536 1.20485L47.6161 0L44.8011 6.79573L41.9813 0L39.0614 1.20485L41.8811 8.00058L35.0775 5.18609L33.8704 8.09582L40.674 10.9103L33.8704 13.7248L35.0775 16.6345L41.8811 13.82L39.0614 20.6158L41.9813 21.8206L44.8011 15.0297L47.6161 21.8206L50.536 20.611L47.7162 13.82L54.5199 16.6345L55.7318 13.7248Z" fill="#009FE3"/>
<path d="M11.6797 32.6833H16.2075V20.6158H0.725098V24.6827H11.6797V32.6833Z" fill="#009FE3"/>
<path d="M29.3425 32.6833H33.8703V20.6158H18.3879V24.6827H29.3425V32.6833Z" fill="#009FE3"/>
<path d="M0 38.9266H29.3426V45.1414H33.8704V34.8597H0V38.9266Z" fill="#009FE3"/>
<path d="M10.9546 64.1332H33.8704V47.232H10.9546V64.1332ZM15.4824 51.2989H29.3474V60.0662H15.4824V51.2989Z" fill="#009FE3"/>
</g>
<defs>
<clipPath id="clip0_30_1147">
<rect width="199" height="66" fill="white"/>
</clipPath>
</defs>
</svg>
