<svg width="51" height="48" viewBox="0 0 51 48" fill="none" xmlns="http://www.w3.org/2000/svg">
<g clip-path="url(#clip0_30_1375)">
<path d="M31.8256 16.7521H18.0718C17.4826 16.7521 16.885 16.9174 16.5483 17.3306C16.2032 17.7521 15.9507 18.2479 15.9507 18.8347C15.9507 19.6116 16.3631 20.281 16.9944 20.6364C17.3059 20.8182 17.6762 20.9174 18.0718 20.9174H31.8256C32.2044 20.9174 32.5915 20.8512 32.9114 20.686C33.0797 20.5951 33.2313 20.4793 33.3491 20.3306C33.6858 19.9174 33.9467 19.4132 33.9467 18.8347C33.9467 17.6694 33.0124 16.7521 31.8256 16.7521ZM32.6673 19.5868C32.5326 19.719 32.4064 19.8017 32.2717 19.8512C32.137 19.7851 31.9855 19.7521 31.8256 19.7521C31.6152 19.7521 31.4216 19.8099 31.2532 19.9174H30.4452L28.9721 17.7521H31.9098C32.499 17.7521 33.0124 18.2479 33.0124 18.8347C33.0124 19.0827 32.8441 19.4132 32.6673 19.5868Z" fill="white"/>
<path d="M31.8255 35.4958C33.0123 35.4958 33.9466 36.4132 33.9466 37.5785C33.9466 38.1653 33.6941 38.6611 33.349 39.0744C33.0123 39.4876 32.4147 39.6611 31.8255 39.6611H18.0801C16.8933 39.6611 15.959 38.7438 15.959 37.5785C15.959 36.9917 16.2115 36.4958 16.5566 36.0826C16.9775 35.6694 17.4909 35.4958 18.0801 35.4958H31.8255Z" fill="white"/>
<path d="M11.7083 31.3306H7.46606V46.9917H11.7083V31.3306Z" fill="white"/>
<path d="M41.3287 32.3306H39.2075V45.8264H41.3287V32.3306Z" fill="#16C3FF"/>
<path d="M38.189 31.3306V47H42.4312V31.3306H38.189ZM39.2075 45.8264V32.3306H41.3286V45.8264H39.2075Z" fill="black" fill-opacity="0.8"/>
<path d="M43.5338 26.0826V30.1653H42.4312C42.2881 30.1653 42.1534 30.1901 42.0356 30.2479H38.5845C38.4583 30.1901 38.3236 30.1653 38.1889 30.1653H37.3977L34.6284 26.0826H43.5338Z" fill="#16C3FF"/>
<path d="M5.34497 25.0826V31.3306H44.5524V25.0826H5.34497ZM43.534 30.1653H42.4313C42.2882 30.1653 42.1535 30.1901 42.0357 30.2479H38.5846C38.4584 30.1901 38.3237 30.1653 38.189 30.1653H37.3978L34.6285 26.0826H43.534V30.1653Z" fill="white"/>
<path d="M44.0389 13.5785C45.4951 13.5785 46.6651 14.7355 46.6651 16.157C46.6651 17.5785 45.4867 18.7438 44.0389 18.7438C42.5911 18.7438 41.4043 17.5868 41.4043 16.157C41.4043 14.7273 42.5827 13.5785 44.0389 13.5785Z" fill="white"/>
<path d="M5.34502 20.9174C6.51649 20.9174 7.46616 19.9849 7.46616 18.8347C7.46616 17.6845 6.51649 16.7521 5.34502 16.7521C4.17354 16.7521 3.22388 17.6845 3.22388 18.8347C3.22388 19.9849 4.17354 20.9174 5.34502 20.9174Z" fill="white"/>
<path d="M14.8479 3.16528H4.24219V10.4959H14.8479V3.16528Z" fill="white"/>
<path d="M39.7967 1.08264C42.4229 1.08264 44.5525 3.17355 44.5525 5.75206C44.5525 8.33058 42.4229 10.4215 39.7967 10.4215C37.1706 10.4215 35.041 8.33058 35.041 5.75206C35.041 3.17355 37.1706 1.08264 39.7967 1.08264Z" fill="white"/>
<path d="M36.0677 13.5785C36.6738 13.5785 37.1704 14.0661 37.1704 14.6611C37.1704 15.2562 36.6738 15.7438 36.0677 15.7438C35.4617 15.7438 34.9651 15.2562 34.9651 14.6611C34.9651 14.0661 35.4617 13.5785 36.0677 13.5785Z" fill="black" fill-opacity="0.8"/>
<path d="M29.7045 3.16528C30.3105 3.16528 30.8071 3.65289 30.8071 4.24793C30.8071 4.84297 30.3105 5.33057 29.7045 5.33057C29.0984 5.33057 28.6018 4.84297 28.6018 4.24793C28.6018 3.65289 29.0984 3.16528 29.7045 3.16528Z" fill="black" fill-opacity="0.8"/>
<path d="M21.2113 4.16528C21.8173 4.16528 22.314 4.65289 22.314 5.24793C22.314 5.84297 21.8173 6.33057 21.2113 6.33057C20.6053 6.33057 20.1086 5.84297 20.1086 5.24793C20.1086 4.65289 20.6053 4.16528 21.2113 4.16528Z" fill="black" fill-opacity="0.8"/>
<path d="M10.6058 14.5785C11.2119 14.5785 11.7085 15.0661 11.7085 15.6611C11.7085 16.2562 11.2119 16.7438 10.6058 16.7438C9.99979 16.7438 9.50317 16.2562 9.50317 15.6611C9.50317 15.0661 9.99979 14.5785 10.6058 14.5785Z" fill="black" fill-opacity="0.8"/>
<path d="M40.8153 7.33058H39.7126C39.4601 7.33058 39.2076 7.24794 38.9466 7L37.844 5.91736C37.4231 5.50413 37.4231 4.83471 37.844 4.42149C38.2648 4.00827 38.9466 4.00827 39.3675 4.42149L40.1335 5.17356H40.7311C41.3287 5.17356 41.8337 5.67769 41.8337 6.2562C41.9179 6.84298 41.4129 7.33885 40.8153 7.33885V7.33058Z" fill="white"/>
<path d="M7.46599 32.3306H5.34484C4.74722 32.3306 4.24219 31.8264 4.24219 31.2479V25C4.24219 24.4132 4.74722 23.9174 5.34484 23.9174C5.94247 23.9174 6.4475 24.4215 6.4475 25V30.2479H7.55016C8.14778 30.2479 8.65282 30.7438 8.65282 31.3306C8.65282 31.9174 7.97102 32.3306 7.46599 32.3306Z" fill="black" fill-opacity="0.8"/>
<path d="M39.2916 31.2479C39.2916 31.2479 39.2916 31.3058 39.2832 31.3306C39.2411 31.8843 38.7529 32.3306 38.189 32.3306H11.7084C11.1444 32.3306 10.6562 31.8843 10.6141 31.3306C10.6057 31.3058 10.6057 31.2727 10.6057 31.2479C10.6057 30.8016 10.9087 30.405 11.3128 30.2479C11.439 30.1901 11.5737 30.1653 11.7084 30.1653H38.189C38.3237 30.1653 38.4583 30.1901 38.5846 30.2479C38.9886 30.405 39.2916 30.8016 39.2916 31.2479Z" fill="black" fill-opacity="0.8"/>
<path d="M45.7392 24.9174V31.1653C45.6551 31.8347 45.15 32.3306 44.5524 32.3306H42.4313C41.8589 32.3306 41.3791 31.8843 41.337 31.3306C41.3286 31.3058 41.3286 31.2727 41.3286 31.2479C41.3286 30.8017 41.6232 30.405 42.0357 30.2479C42.1535 30.1901 42.2882 30.1653 42.4313 30.1653H43.5339V24.9174C43.5339 24.4793 43.8201 24.0909 44.2157 23.9174C44.342 23.8678 44.4851 23.8347 44.6366 23.8347C44.7881 23.8347 44.9312 23.8678 45.0574 23.9174C45.4531 24.0909 45.7392 24.4793 45.7392 24.9174Z" fill="black" fill-opacity="0.8"/>
<path d="M47.7761 25C47.7761 25.5785 47.2711 26.0826 46.6735 26.0826H3.22375C2.62613 26.0826 2.12109 25.5785 2.12109 25C2.12109 24.4215 2.62613 23.9174 3.22375 23.9174H46.6735C47.2711 23.9174 47.7761 24.4132 47.7761 25Z" fill="black" fill-opacity="0.8"/>
<path d="M11.7084 47.9917C11.1108 47.9917 10.6058 47.4959 10.6058 46.9091V32.3306H8.48461V46.9091C8.48461 47.4959 7.97958 47.9917 7.38195 47.9917C6.78433 47.9917 6.2793 47.4959 6.2793 46.9091V31.3306C6.2793 30.7438 6.78433 30.2479 7.38195 30.2479H11.6242C12.2219 30.2479 12.7269 30.7438 12.7269 31.3306V46.9917C12.7269 47.4959 12.2219 47.9917 11.7084 47.9917Z" fill="black" fill-opacity="0.8"/>
<path d="M42.4313 48C41.8589 48 41.3792 47.5454 41.3371 47C41.3287 46.9752 41.3287 46.9421 41.3287 46.9173V32.3306H39.2075V46.9173C39.2075 46.9173 39.2075 46.9752 39.1991 47C39.157 47.5124 38.7109 47.9504 38.189 47.9917C38.1638 48 38.1301 48 38.1049 48C37.5072 48 37.0022 47.4959 37.0022 46.9173V31.3306C37.0022 30.9421 37.2295 30.5868 37.5577 30.405C37.7177 30.3058 37.9028 30.2479 38.1049 30.2479H42.3471C42.9363 30.2479 43.4498 30.7521 43.4498 31.3306V47C43.534 47.4959 43.0205 48 42.4313 48Z" fill="black" fill-opacity="0.8"/>
<path d="M31.8256 40.6611H18.0802C16.2958 40.6611 14.8564 39.2479 14.8564 37.4959C14.8564 36.6611 15.1931 35.9091 15.7908 35.2479C16.3884 34.6694 17.2301 34.3306 18.0802 34.3306H31.9098C33.6942 34.3306 35.1336 35.7438 35.1336 37.4959C35.1336 38.3306 34.7969 39.0826 34.1992 39.7438C33.4333 40.3306 32.6757 40.6611 31.8256 40.6611ZM18.0802 36.4959C17.8277 36.4959 17.5752 36.5785 17.3143 36.8264C17.1459 36.9917 16.9776 37.3223 16.9776 37.5785C16.9776 38.1653 17.4826 38.6611 18.0802 38.6611H31.9098C32.1623 38.6611 32.4148 38.5785 32.6757 38.3306C32.8441 38.1653 33.0124 37.9173 33.0124 37.5785C33.0124 36.9917 32.5074 36.4959 31.9098 36.4959H18.0802Z" fill="black" fill-opacity="0.8"/>
<path d="M18.0719 47.9917C17.4743 47.9917 16.9692 47.4958 16.9692 46.9091V39.5785C16.9692 38.9917 17.4743 38.4958 18.0719 38.4958C18.6695 38.4958 19.1746 38.9917 19.1746 39.5785V46.9091C19.0904 47.4958 18.5769 47.9917 18.0719 47.9917Z" fill="black" fill-opacity="0.8"/>
<path d="M31.8256 47.9917C31.2279 47.9917 30.7229 47.4958 30.7229 46.9091V39.5785C30.7229 38.9917 31.2279 38.4958 31.8256 38.4958C32.4232 38.4958 32.9282 38.9917 32.9282 39.5785V46.9091C32.9282 47.4958 32.4232 47.9917 31.8256 47.9917Z" fill="black" fill-opacity="0.8"/>
<path d="M18.0719 36.4959C17.4743 36.4959 16.9692 36 16.9692 35.4132V31.2479C16.9692 30.6612 17.4743 30.1653 18.0719 30.1653C18.6695 30.1653 19.1746 30.6612 19.1746 31.2479V35.4132C19.0904 36 18.5769 36.4959 18.0719 36.4959Z" fill="black" fill-opacity="0.8"/>
<path d="M31.8256 36.4959C31.2279 36.4959 30.7229 36 30.7229 35.4132V31.2479C30.7229 30.6612 31.2279 30.1653 31.8256 30.1653C32.4232 30.1653 32.9282 30.6612 32.9282 31.2479V35.4132C32.9282 36 32.4232 36.4959 31.8256 36.4959Z" fill="black" fill-opacity="0.8"/>
<path d="M18.0719 26.0827C17.4743 26.0827 16.9692 25.5785 16.9692 25V20.8347C16.9692 20.2479 17.4743 19.7521 18.0719 19.7521C18.6695 19.7521 19.1746 20.2562 19.1746 20.8347V25C19.0904 25.5785 18.5769 26.0827 18.0719 26.0827Z" fill="black" fill-opacity="0.8"/>
<path d="M32.9282 20.8347V25C32.9282 25 32.9282 25.0579 32.9198 25.0827C32.8777 25.6281 32.3895 26.0827 31.8256 26.0827C31.2616 26.0827 30.7734 25.6281 30.7313 25.0827C30.7229 25.0579 30.7229 25.0248 30.7229 25V20.8347C30.7229 20.6942 30.7482 20.562 30.7987 20.4463C30.8912 20.2231 31.0512 20.0413 31.2532 19.9174C31.4215 19.8099 31.6151 19.7521 31.8256 19.7521C31.9855 19.7521 32.137 19.7851 32.2717 19.8512C32.6084 20 32.8609 20.3141 32.9114 20.686C32.9282 20.7355 32.9282 20.7851 32.9282 20.8347Z" fill="black" fill-opacity="0.8"/>
<path d="M28.0714 20.9174L27.7936 19.9174H18.6441C18.9555 20.1075 19.1744 20.4546 19.1744 20.8347V20.9174H28.0714ZM31.9096 15.5868H18.0717C17.2216 15.5868 16.3798 15.9174 15.7822 16.5041C15.1846 17.1653 14.8479 17.9174 14.8479 18.7521C14.8479 20.124 15.7317 21.2893 16.969 21.7273C17.3141 21.8513 17.6845 21.9174 18.0717 21.9174H31.8255C32.2042 21.9174 32.5746 21.8513 32.9281 21.719C33.3658 21.562 33.7783 21.3223 34.1991 21C34.7883 20.3306 35.1334 19.5868 35.1334 18.7521C35.1334 17 33.6857 15.5868 31.9096 15.5868ZM32.2716 19.8513C32.1537 19.9008 32.0275 19.9174 31.9096 19.9174H18.0717C17.9286 19.9174 17.7939 19.8843 17.6677 19.8347C17.2636 19.6694 16.969 19.2727 16.969 18.8347C16.969 18.5041 17.1374 18.2479 17.3141 18.0827C17.5667 17.8347 17.8192 17.7521 18.0717 17.7521H31.9096C32.4988 17.7521 33.0123 18.2479 33.0123 18.8347C33.0123 19.0827 32.8439 19.4132 32.6672 19.5868C32.5325 19.719 32.4062 19.8017 32.2716 19.8513Z" fill="black" fill-opacity="0.8"/>
<path d="M33.0124 18.8347C33.0124 19.0827 32.8441 19.4132 32.6673 19.5868C32.5327 19.719 32.4064 19.8017 32.2717 19.8512C32.137 19.7851 31.9855 19.7521 31.8256 19.7521C31.6152 19.7521 31.4216 19.8099 31.2532 19.9174H30.4452L28.9722 17.7521H31.9098C32.499 17.7521 33.0124 18.2479 33.0124 18.8347Z" fill="#16C3FF"/>
<path d="M51 46.9173C50.9158 47.4958 50.4108 48 49.8973 48H1.10266C0.505034 48 0 47.4958 0 46.9173C0 46.3388 0.505034 45.8264 1.10266 45.8264H49.8973C50.495 45.8264 51 46.3305 51 46.9173Z" fill="black" fill-opacity="0.8"/>
<path d="M39.7966 11.4958C36.5728 11.4958 33.9382 8.90905 33.9382 5.74377C33.9382 2.57848 36.5728 -0.00830078 39.7966 -0.00830078C43.0204 -0.00830078 45.655 2.57848 45.655 5.74377C45.655 8.90905 43.0204 11.4958 39.7966 11.4958ZM39.7966 2.16525C37.7597 2.16525 36.0594 3.83467 36.0594 5.83467C36.0594 7.83467 37.7597 9.5041 39.7966 9.5041C41.8336 9.5041 43.5339 7.83467 43.5339 5.83467C43.5339 3.83467 41.8336 2.16525 39.7966 2.16525Z" fill="black" fill-opacity="0.8"/>
<path d="M47.7762 11.4959H27.5748C26.9772 11.4959 26.4722 10.9917 26.4722 10.4132C26.4722 9.8347 26.9772 9.33057 27.5748 9.33057H47.7762C48.3738 9.33057 48.8788 9.8347 48.8788 10.4132C48.8788 10.9917 48.2812 11.4959 47.7762 11.4959Z" fill="black" fill-opacity="0.8"/>
<path d="M4.24235 11.4959H2.12121C1.52359 11.4959 1.01855 10.9917 1.01855 10.4132C1.01855 9.8347 1.53201 9.33057 2.12121 9.33057H4.24235C4.83998 9.33057 5.34501 9.8347 5.34501 10.4132C5.34501 10.9917 4.83998 11.4959 4.24235 11.4959Z" fill="black" fill-opacity="0.8"/>
<path d="M18.0718 11.4959H14.848C14.2504 11.4959 13.7454 10.9917 13.7454 10.4132C13.7454 9.8347 14.2588 9.33057 14.848 9.33057H18.0718C18.6694 9.33057 19.1745 9.8347 19.1745 10.4132C19.1745 10.9917 18.5769 11.4959 18.0718 11.4959Z" fill="black" fill-opacity="0.8"/>
<path d="M14.848 11.4959H4.24231C3.64468 11.4959 3.13965 10.9917 3.13965 10.4132V3.16529C3.13965 2.58677 3.64468 2.08264 4.24231 2.08264H14.848C15.4456 2.08264 15.9507 2.58677 15.9507 3.16529V10.4959C15.9507 10.9917 15.4456 11.4959 14.848 11.4959ZM5.34496 9.41322H13.8295V4.16529H5.34496V9.41322Z" fill="black" fill-opacity="0.8"/>
<path d="M10.6058 8.41319C10.3533 8.41319 10.0923 8.33054 9.83982 8.08261C9.41895 7.66939 9.41895 6.99997 9.83982 6.57848L14.0821 2.41319C14.503 1.99997 15.1848 1.99997 15.6056 2.41319C16.0265 2.82641 16.0265 3.49583 15.6056 3.91732L11.3633 8.08261C11.1108 8.2479 10.8583 8.41319 10.5974 8.41319H10.6058Z" fill="black" fill-opacity="0.8"/>
<path d="M5.34489 21.9174C3.56044 21.9174 2.12109 20.5041 2.12109 18.7521C2.12109 17 3.56044 15.5868 5.34489 15.5868C7.12935 15.5868 8.56869 17 8.56869 18.7521C8.56869 20.5041 7.04517 21.9174 5.34489 21.9174ZM5.34489 17.7521C4.74727 17.7521 4.24224 18.2479 4.24224 18.8347C4.24224 19.4215 4.74727 19.9174 5.34489 19.9174C5.94252 19.9174 6.44755 19.4132 6.44755 18.8347C6.44755 18.2562 5.84993 17.7521 5.34489 17.7521Z" fill="black" fill-opacity="0.8"/>
<path d="M44.039 19.8347C42.002 19.8347 40.3018 18.1653 40.3018 16.1653C40.3018 14.1653 42.002 12.4958 44.039 12.4958C46.076 12.4958 47.7763 14.1653 47.7763 16.1653C47.7763 18.1653 46.076 19.8347 44.039 19.8347ZM44.039 14.6694C43.1889 14.6694 42.4229 15.3388 42.4229 16.2562C42.4229 17.1735 43.1047 17.843 44.039 17.843C44.8891 17.843 45.6551 17.1735 45.6551 16.2562C45.6551 15.3388 44.8891 14.6694 44.039 14.6694Z" fill="black" fill-opacity="0.8"/>
</g>
<defs>
<clipPath id="clip0_30_1375">
<rect width="51" height="48" fill="white"/>
</clipPath>
</defs>
</svg>
