<?xml version="1.0" encoding="UTF-8"?>
<svg id="Layer_1" data-name="Layer 1" xmlns="http://www.w3.org/2000/svg" viewBox="0 0 32 32">
  <defs>
    <style>
      .cls-1 {
        fill: #0d1e3b;
      }

      .cls-2 {
        fill: #e73953;
      }

      .cls-3 {
        fill: #231916;
      }
    </style>
  </defs>
  <g>
    <path class="cls-2" d="m25.47,20.85l-9.48,7.65c-.75-.77-1.58-1.44-2.43-2.09,0,0,0,0,0,0-1.66-1.17-3.59-3.18-2.39-5.29.93-1.65,3.09-1.23,4.73-1.13,1.13.1,2.26-.21,3.29-.93,1.23-.93,2.06-2.16,2.16-3.7-.93-.93-2.26-1.65-3.29-2.57-.21-.82-.1-1.65-.41-2.37-.21-.51-.41-1.13-.72-1.65-.28-.38-.57-.74-.89-1.07.55-.5,6.18-5.36,11.43.24,5.53,5.9-1.99,12.9-1.99,12.9Z"/>
    <path class="cls-1" d="m15.9,29.89l-.65-.67c-.6-.62-1.31-1.23-2.3-1.97h0s0,0,0,0h0c-2.93-2.07-3.91-4.49-2.68-6.64,1.13-2.02,3.43-1.83,5.1-1.69.2.02.4.03.59.04h.03c.9.08,1.78-.16,2.6-.73.93-.7,1.49-1.53,1.68-2.47-.37-.32-.8-.62-1.25-.94-.55-.39-1.12-.8-1.64-1.26l-.23-.21-.08-.3c-.11-.43-.14-.83-.18-1.19-.04-.4-.07-.75-.18-1.02v-.02c-.06-.12-.1-.24-.15-.36-.15-.38-.3-.78-.49-1.1-.25-.34-.5-.65-.77-.93l-.73-.76.78-.71c.32-.29,2.02-1.76,4.37-2.4,2.17-.59,5.41-.6,8.5,2.7,1.6,1.71,2.38,3.67,2.31,5.82-.16,4.59-4.18,8.38-4.35,8.54l-.05.05-10.21,8.24Zm-2.99-2.67s0,0,0,0h0Zm1.26-1.63c.74.56,1.34,1.05,1.87,1.53l8.74-7.05c.3-.29,3.55-3.52,3.67-7.09.05-1.6-.52-3.02-1.75-4.33-1.92-2.05-4.1-2.76-6.46-2.12-1.14.31-2.11.88-2.74,1.32.08.11.16.21.24.32l.05.07c.29.48.49,1,.66,1.46.04.11.08.22.13.32.24.56.29,1.13.34,1.63.02.2.04.4.06.58.37.3.78.59,1.2.9.65.46,1.32.93,1.88,1.5l.33.33-.03.47c-.12,1.74-1,3.28-2.57,4.46l-.03.02c-1.21.85-2.58,1.23-3.96,1.11-.2-.01-.41-.03-.62-.05-1.6-.13-2.68-.16-3.14.66-.85,1.48.8,3.02,1.96,3.85h.02s.14.12.14.12Zm0,0h0s0,0,0,0Z"/>
  </g>
  <rect class="cls-3" x="15.98" y="6.69" width=".06" height="2.06" transform="translate(-.98 12.96) rotate(-42.88)"/>
  <path class="cls-1" d="m2.27,16.36c-.06-.14-.12-.27-.17-.41-.83-2.15-.84-4.4-.02-6.35v-.02c1.77-3.89,5.74-6.08,9.68-5.32,1.94.35,3.63,1.27,5.02,2.73l-1.49,1.42c-1.1-1.15-2.37-1.85-3.9-2.12h-.01c-3.49-.68-6.28,1.66-7.4,4.13-.6,1.44-.59,3.15.05,4.79.04.1.08.21.13.32l-1.88.83Z"/>
  <path class="cls-1" d="m6.87,19.28c-.09,0-.18,0-.28-.01-2.02-.15-3.54-1.27-4.42-3.24-.61-1.39-.67-2.73-.67-2.79l2.06-.08-1.03.04,1.03-.04c0,.16.21,3.85,3.18,4.06.27.02,1.08.08,1.79-1.23,1.07-1.97.93-4.99.54-5.51,0,0,.02.03.07.06l1.17-1.7c1.47,1.01,1.29,4.83.53,7.01-.77,2.19-2.2,3.42-3.96,3.42Z"/>
  <g>
    <path class="cls-1" d="m14.12,11.59c-.71,0-1.3.58-1.3,1.3s.58,1.3,1.3,1.3,1.3-.58,1.3-1.3-.58-1.3-1.3-1.3Zm0,2.06c-.42,0-.76-.34-.76-.76s.34-.76.76-.76.76.34.76.76-.34.76-.76.76Z"/>
    <path class="cls-1" d="m14.88,12.89c0,.42-.34.76-.76.76s-.76-.34-.76-.76.34-.76.76-.76.76.34.76.76Z"/>
  </g>
</svg>