<svg id="그룹_2" data-name="그룹 2" xmlns="http://www.w3.org/2000/svg" xmlns:xlink="http://www.w3.org/1999/xlink" width="250.577" height="67.289" viewBox="0 0 250.577 67.289">
  <defs>
    <clipPath id="clip-path">
      <rect id="사각형_3" data-name="사각형 3" width="250.577" height="67.289" fill="none"/>
    </clipPath>
  </defs>
  <g id="그룹_1" data-name="그룹 1" clip-path="url(#clip-path)">
    <path id="패스_1" data-name="패스 1" d="M128.81,51.9,104.05,71.882A55.737,55.737,0,0,0,97.7,66.435a.126.126,0,0,0-.024-.016c-4.346-3.057-9.379-8.3-6.237-13.806,2.417-4.3,8.058-3.223,12.355-2.955a12.8,12.8,0,0,0,8.6-2.417,13.047,13.047,0,0,0,5.64-9.669c-2.417-2.417-5.909-4.3-8.6-6.715-.537-2.149-.269-4.3-1.074-6.178a29.845,29.845,0,0,0-1.88-4.3,26.391,26.391,0,0,0-2.318-2.8c1.44-1.308,16.124-13.994,29.849.639C148.465,33.629,128.81,51.9,128.81,51.9" transform="translate(-66.164 -8.217)" fill="#de1f41"/>
    <path id="패스_2" data-name="패스 2" d="M96.471,68.2l-1.707-1.747a52.045,52.045,0,0,0-5.992-5.141l0,0,0,0-.017-.012c-7.659-5.394-10.211-11.707-7-17.321,2.963-5.267,8.944-4.777,13.311-4.42.528.043,1.045.086,1.544.117l.075.006a10.053,10.053,0,0,0,6.776-1.918,10.7,10.7,0,0,0,4.377-6.457c-.971-.826-2.1-1.626-3.271-2.459a46.844,46.844,0,0,1-4.281-3.3L99.666,25l-.2-.8a20.038,20.038,0,0,1-.461-3.114,9.272,9.272,0,0,0-.477-2.657l-.025-.06c-.121-.3-.242-.619-.366-.943a20.638,20.638,0,0,0-1.268-2.877,23.748,23.748,0,0,0-2.011-2.418l-1.9-1.991L94.994,8.29a29.8,29.8,0,0,1,11.422-6.263C112.085.494,120.535.473,128.608,9.08a20.629,20.629,0,0,1,6.018,15.191c-.41,11.986-10.907,21.879-11.354,22.3l-.143.123Zm-7.792-6.959.007.005Zm3.279-4.255c1.937,1.462,3.511,2.752,4.887,4.01l22.828-18.419c.8-.768,9.28-9.18,9.587-18.512a15.247,15.247,0,0,0-4.569-11.311C119.673,7.406,114,5.541,107.819,7.213a23.57,23.57,0,0,0-7.158,3.444q.323.416.635.848l.125.19a23.987,23.987,0,0,1,1.732,3.811c.111.289.219.572.327.843a13.735,13.735,0,0,1,.875,4.251c.048.527.095,1.035.169,1.519.96.8,2.026,1.552,3.141,2.344a37.725,37.725,0,0,1,4.9,3.9l.862.862-.081,1.216a15.707,15.707,0,0,1-6.709,11.64l-.071.052a15.506,15.506,0,0,1-10.339,2.9c-.521-.033-1.06-.077-1.611-.122-4.179-.343-7.005-.407-8.2,1.715C84.2,50.505,88.535,54.517,91.55,56.7l.057.019Zm.011.008.015.012L91.968,57" transform="translate(-58.798 -0.912)" fill="#fff"/>
    <path id="패스_3" data-name="패스 3" d="M137.9,31.578l-3.662-3.93.121-.113,3.652,3.94Z" transform="translate(-98.182 -20.139)" fill="#fff"/>
    <path id="패스_4" data-name="패스 4" d="M2.082,31.974c-.158-.359-.305-.716-.438-1.06a22.07,22.07,0,0,1-.059-16.569l.028-.064C6.2,4.114,16.581-1.6,26.85.393a23.635,23.635,0,0,1,13.1,7.12l-3.888,3.707A18.127,18.127,0,0,0,25.873,5.675l-.032-.006C16.731,3.9,9.448,10.017,6.522,16.461a16.746,16.746,0,0,0,.132,12.516c.1.269.221.551.346.836Z" transform="translate(0 0)" fill="#fff"/>
    <path id="패스_5" data-name="패스 5" d="M14.235,73.237c-.24,0-.481-.009-.725-.026-5.269-.38-9.255-3.3-11.528-8.457a22.151,22.151,0,0,1-1.76-7.282l5.368-.212-2.684.106L5.59,57.25c.019.41.551,10.042,8.307,10.6.7.051,2.817.2,4.674-3.206,2.8-5.139,2.422-13.016,1.4-14.375a.847.847,0,0,0,.181.159L23.194,46c3.831,2.634,3.371,12.6,1.371,18.3s-5.743,8.929-10.33,8.929" transform="translate(-0.162 -33.648)" fill="#fff"/>
    <path id="패스_6" data-name="패스 6" d="M113.7,72.71a3.386,3.386,0,1,0,3.384,3.384A3.39,3.39,0,0,0,113.7,72.71m0,5.372a1.986,1.986,0,1,1,1.985-1.988,1.99,1.99,0,0,1-1.985,1.988" transform="translate(-80.686 -53.18)" fill="#fff"/>
    <path id="패스_7" data-name="패스 7" d="M119.5,79.9a1.986,1.986,0,1,1-1.985-1.985A1.99,1.99,0,0,1,119.5,79.9" transform="translate(-84.498 -56.991)" fill="#fff"/>
    <path id="패스_8" data-name="패스 8" d="M320.736,36.8v3.073h17.107v3.339h-8.716v2.1H339.38v3.457h-24.4V45.306h10.134v-2.1h-8.421V33.4h20.978v3.4Zm-4.52,18.791a4.219,4.219,0,0,1,2.334-3.93c1.921-1.064,4.934-1.448,8.657-1.448s6.736.384,8.657,1.448a4.169,4.169,0,0,1,2.334,3.93,4.1,4.1,0,0,1-2.334,3.9c-1.92,1.093-4.934,1.477-8.657,1.477s-6.736-.384-8.657-1.477a4.146,4.146,0,0,1-2.334-3.9m4.048,0a1.3,1.3,0,0,0,.8,1.211c1.093.591,3.132.739,6.145.739s5.052-.148,6.145-.739a1.3,1.3,0,0,0,.8-1.211,1.367,1.367,0,0,0-.8-1.241c-1.093-.561-3.132-.739-6.145-.739s-5.052.177-6.145.739a1.366,1.366,0,0,0-.8,1.241" transform="translate(-230.374 -24.428)" fill="#fff"/>
    <path id="패스_9" data-name="패스 9" d="M430.766,48.142v-1.6H420.573v-3.4h24.4v3.4H434.755v1.6h8.509v7.8h-16.93v1.27h17.55v3.28h-21.6v-7.8h16.93v-1.27h-16.93v-3.28ZM422.287,33.4h20.978v8.568H422.287Zm16.93,3.25H426.334v2.039h12.882Z" transform="translate(-307.609 -24.428)" fill="#fff"/>
    <path id="패스_10" data-name="패스 10" d="M545.425,38.972V33.949h4.048v16.6h-8.627V55.9h9.986v3.516H526.723V55.9h10.1V50.554h-8.745v-16.6h4.047v5.023Zm0,3.545h-13.3v4.491h13.3Z" transform="translate(-385.248 -24.83)" fill="#fff"/>
    <path id="패스_11" data-name="패스 11" d="M633.68,42.674a4.97,4.97,0,0,1,2.541-4.314c1.95-1.211,4.963-1.743,8.154-1.743s6.2.532,8.154,1.743a4.907,4.907,0,0,1,0,8.6,13.341,13.341,0,0,1-6.086,1.655V52.04h9.987v3.516H632.321V52.04h10.1v-3.4a13.746,13.746,0,0,1-6.2-1.684,4.922,4.922,0,0,1-2.541-4.284m8.6-10.843V28.669h4.107V31.83h9.307v3.486H633.06V31.83Zm-4.55,10.843a1.866,1.866,0,0,0,1.123,1.625,15.7,15.7,0,0,0,11.05,0,1.866,1.866,0,0,0,1.123-1.625,1.907,1.907,0,0,0-1.123-1.655,16.141,16.141,0,0,0-11.05,0,1.907,1.907,0,0,0-1.123,1.655" transform="translate(-462.483 -20.969)" fill="#fff"/>
    <path id="패스_12" data-name="패스 12" d="M742.586,44.125a13.1,13.1,0,0,1-6.2,4.639V45.012c2.482-1.329,4.136-3.516,4.136-8.1v-4.58h3.959V36.8c0,4.58,1.684,6.264,4.107,7.593v3.723a12.249,12.249,0,0,1-6-3.989m-3.339,15.3v-9.6h4.048v6.087h17.048V59.43Zm11.139-19H746.87V36.946h3.516V32.337h3.841V50.773h-3.841ZM756,32.189h3.87V51.246H756Z" transform="translate(-538.593 -23.543)" fill="#fff"/>
    <path id="패스_13" data-name="패스 13" d="M858.794,43.18V46.7h-8.066v7.3h6.854a18.659,18.659,0,0,0,4.55-.384v3.339a15.66,15.66,0,0,1-4.757.561H846.71V32.662h13.355v3.516h-9.336v7Zm9.75,16.132H864.5V46.282h-4.609V42.737H864.5V32.189h4.048Z" transform="translate(-619.288 -23.543)" fill="#fff"/>
    <path id="패스_14" data-name="패스 14" d="M310.423,162.4l3.438-10.624h2.256l3.438,10.624h-2.028l-.644-2.176h-3.8l-.631,2.176Zm4.566-8.676-1.424,4.835H316.4Z" transform="translate(-227.045 -111.01)" fill="#fff"/>
    <path id="패스_15" data-name="패스 15" d="M348.52,155.188V162.4h-1.947V151.776h2.014L352.32,159v-7.225h1.947V162.4h-2.014Z" transform="translate(-253.485 -111.01)" fill="#fff"/>
    <rect id="사각형_2" data-name="사각형 2" width="1.974" height="10.624" transform="translate(102.099 40.766)" fill="#fff"/>
    <path id="패스_16" data-name="패스 16" d="M396.871,162.4l-2.579-6.742V162.4h-1.92V151.776h2.1l3.277,8.528,3.264-8.528h2.1V162.4h-1.92v-6.742L398.6,162.4Z" transform="translate(-286.983 -111.009)" fill="#fff"/>
    <path id="패스_17" data-name="패스 17" d="M434.472,162.4l3.438-10.624h2.256L443.6,162.4h-2.028l-.644-2.176h-3.8L436.5,162.4Zm4.566-8.676-1.424,4.835h2.834Z" transform="translate(-317.775 -111.01)" fill="#fff"/>
    <path id="패스_18" data-name="패스 18" d="M470.621,151.776H472.6v8.945h4.566V162.4h-6.541Z" transform="translate(-344.215 -111.01)" fill="#fff"/>
    <path id="패스_19" data-name="패스 19" d="M518.152,159.888l1.961-8.112h2.015L519.375,162.4H517.1l-1.974-7.709-1.974,7.709h-2.27l-2.767-10.624h2.014l1.961,8.112,2.068-8.112H516.1Z" transform="translate(-371.641 -111.01)" fill="#fff"/>
    <path id="패스_20" data-name="패스 20" d="M562.67,151.776h6.474v1.679h-4.5v2.673h3.949v1.665h-3.949v2.928h4.566V162.4H562.67Z" transform="translate(-411.54 -111.01)" fill="#fff"/>
    <path id="패스_21" data-name="패스 21" d="M590.77,151.776h1.974v8.945h4.566V162.4H590.77Z" transform="translate(-432.092 -111.01)" fill="#fff"/>
    <path id="패스_22" data-name="패스 22" d="M617.57,151.776h6.393v1.679h-4.419v2.821h3.949v1.665h-3.949V162.4H617.57Z" transform="translate(-451.694 -111.01)" fill="#fff"/>
    <path id="패스_23" data-name="패스 23" d="M641.72,162.4l3.438-10.624h2.256l3.438,10.624h-2.028l-.644-2.176h-3.8l-.631,2.176Zm4.566-8.676-1.424,4.835H647.7Z" transform="translate(-469.357 -111.01)" fill="#fff"/>
    <path id="패스_24" data-name="패스 24" d="M683.4,160.09c-.054-1.1-.551-1.545-1.733-1.545h-1.826V162.4h-1.974V151.776h4.257c2.23,0,3.411,1.2,3.411,3.25a2.5,2.5,0,0,1-1.853,2.673c1.115.174,1.585.859,1.665,2.256l.094,1.477a3.32,3.32,0,0,0,.188.967h-1.988a2.9,2.9,0,0,1-.161-.94Zm-1.6-3.223c1.088,0,1.759-.457,1.759-1.706s-.672-1.706-1.759-1.706h-1.961v3.411Z" transform="translate(-495.797 -111.01)" fill="#fff"/>
    <path id="패스_25" data-name="패스 25" d="M710.519,151.776h6.474v1.679h-4.5v2.673h3.949v1.665h-3.949v2.928h4.566V162.4h-6.541Z" transform="translate(-519.677 -111.01)" fill="#fff"/>
    <path id="패스_26" data-name="패스 26" d="M751.872,152.567a4.179,4.179,0,0,1,7.36,2.283h-1.961a1.988,1.988,0,0,0-2.136-2.082,1.9,1.9,0,0,0-1.679.806,5.225,5.225,0,0,0-.578,2.995,5.3,5.3,0,0,0,.578,3.022,1.9,1.9,0,0,0,1.679.806,1.988,1.988,0,0,0,2.136-2.082h1.961a4.189,4.189,0,0,1-7.36,2.283,8.931,8.931,0,0,1,0-8.031" transform="translate(-549.225 -110.498)" fill="#fff"/>
    <path id="패스_27" data-name="패스 27" d="M785.618,151.776h6.474v1.679h-4.5v2.673h3.949v1.665h-3.949v2.928h4.566V162.4h-6.541Z" transform="translate(-574.605 -111.01)" fill="#fff"/>
    <path id="패스_28" data-name="패스 28" d="M815.665,155.188V162.4h-1.947V151.776h2.014L819.466,159v-7.225h1.947V162.4H819.4Z" transform="translate(-595.157 -111.01)" fill="#fff"/>
    <path id="패스_29" data-name="패스 29" d="M844.768,151.776h7.723v1.679h-2.874V162.4h-1.974v-8.945h-2.874Z" transform="translate(-617.867 -111.01)" fill="#fff"/>
    <path id="패스_30" data-name="패스 30" d="M875.917,151.776h6.474v1.679h-4.5v2.673h3.949v1.665h-3.949v2.928h4.566V162.4h-6.541Z" transform="translate(-640.65 -111.01)" fill="#fff"/>
    <path id="패스_31" data-name="패스 31" d="M909.551,160.09c-.054-1.1-.551-1.545-1.733-1.545h-1.826V162.4h-1.974V151.776h4.257c2.23,0,3.411,1.2,3.411,3.25a2.5,2.5,0,0,1-1.853,2.673c1.115.174,1.585.859,1.665,2.256l.094,1.477a3.318,3.318,0,0,0,.188.967h-1.988a2.9,2.9,0,0,1-.161-.94Zm-1.6-3.223c1.088,0,1.759-.457,1.759-1.706s-.671-1.706-1.759-1.706h-1.961v3.411Z" transform="translate(-661.203 -111.01)" fill="#fff"/>
  </g>
</svg>
