<svg xmlns="http://www.w3.org/2000/svg" xmlns:xlink="http://www.w3.org/1999/xlink" width="117.083" height="66.911" viewBox="0 0 117.083 66.911">
  <defs>
    <clipPath id="clip-path">
      <rect id="사각형_3" data-name="사각형 3" width="117.083" height="66.911" transform="translate(0 0)" fill="none"/>
    </clipPath>
    <clipPath id="clip-path-2">
      <rect id="사각형_6" data-name="사각형 6" width="117.083" height="66.911" transform="translate(0 0)" fill="#fff"/>
    </clipPath>
  </defs>
  <g id="그룹_6" data-name="그룹 6" transform="translate(0 0)">
    <g id="그룹_2" data-name="그룹 2">
      <g id="그룹_1" data-name="그룹 1" clip-path="url(#clip-path)">
        <path id="패스_1" data-name="패스 1" d="M80.083,14.07,107.13,4.5,97.975,30.3" transform="translate(2 18.202)" fill="none" stroke="#e60019" stroke-linecap="round" stroke-linejoin="round" stroke-width="7"/>
      </g>
    </g>
    <rect id="사각형_4" data-name="사각형 4" width="2.834" height="9.667" transform="translate(81.354 45.499)" fill="#fff"/>
    <rect id="사각형_5" data-name="사각형 5" width="2.834" height="5.542" transform="translate(81.354 57.374)" fill="#fff"/>
    <g id="그룹_4" data-name="그룹 4">
      <g id="그룹_3" data-name="그룹 3" clip-path="url(#clip-path-2)">
        <path id="패스_2" data-name="패스 2" d="M3.75,63.584h0s0,.04,0,.1v.233l.012.009c.057.781.377,2.637,2.155,2.637H17.25V64.937h-.021V59.562h.021V57.937H3.75Zm2.833-4.022H14.4v5.375H6.583ZM17.25,45.6H2.916v1.625h11.5V54.02H0v1.625H21.5V54.02H17.25ZM83.812,57.375H70.062V59h13.75ZM59.937,59.166h2.834V45.5H59.937v5.625H55.646V52.75h4.291ZM83.9,49.458H78.228v1.625H83.9Zm-48.87,9.935a6.052,6.052,0,0,0,5.018-5.769,5.7,5.7,0,0,0-2.088-4.354H42.11V47.646H35.026V45.333H32.193v2.313H25.11V49.27h4.154a5.692,5.692,0,0,0-2.088,4.354,6.051,6.051,0,0,0,5.017,5.769v2.94H22.672v1.625H44.547V62.333H35.026Zm-5-5.768a3.588,3.588,0,1,1,3.584,3.416,3.5,3.5,0,0,1-3.584-3.416M51.843,65.284l-.024-6.938-2.833.01L49,63.94v.332l.013.01c.059.78.385,2.636,2.163,2.629l12-.038-.005-1.625Zm32.417-.036-11.337.036-.012-2.368H83.979V61.291h-13.9v.065h-.014l.02,2.916.013.01c.059.781.385,2.636,2.163,2.629l12-.038ZM55.145,46.124H46.229v1.625h6.094C52.076,52.213,45.417,56,45.417,56l.75,1.083c9.333-4,8.978-10.959,8.978-10.959m16.6,2.209c.917.583,3.833,3.833,3.583,6.917H77.75s-1.5-6.75-5.583-9.167c0,0-1.668-.75-2.334.25s-3.083,8.833-3.083,8.833H69s1.833-7.416,2.75-6.833" fill="#fff"/>
      </g>
    </g>
  </g>
</svg>
