<svg width="36" height="32" viewBox="0 0 36 32" fill="none" xmlns="http://www.w3.org/2000/svg">
<path d="M18 25.7778C20.25 25.7778 22.158 24.9956 23.742 23.4489C25.326 21.9022 26.1 20 26.1 17.7778C26.1 15.5556 25.308 13.6711 23.742 12.1067C22.176 10.5422 20.25 9.77778 18 9.77778C15.75 9.77778 13.842 10.56 12.258 12.1067C10.674 13.6533 9.9 15.5556 9.9 17.7778C9.9 20 10.692 21.8844 12.258 23.4489C13.824 25.0133 15.75 25.7778 18 25.7778ZM18 22.2222C16.74 22.2222 15.678 21.7956 14.796 20.9244C13.914 20.0533 13.482 19.0044 13.482 17.76C13.482 16.5156 13.914 15.4667 14.796 14.5956C15.66 13.7422 16.74 13.2978 18 13.2978C19.26 13.2978 20.322 13.7244 21.204 14.5956C22.068 15.4489 22.518 16.5156 22.518 17.76C22.518 19.0044 22.086 20.0533 21.204 20.9244C20.322 21.7956 19.26 22.2222 18 22.2222ZM3.6 32C2.61 32 1.764 31.6444 1.062 30.9511C0.36 30.2578 0 29.4222 0 28.4444V7.11111C0 6.13333 0.36 5.29778 1.062 4.60444C1.764 3.91111 2.61 3.55556 3.6 3.55556H9.27L12.6 0H23.4L26.73 3.55556H32.4C33.39 3.55556 34.236 3.91111 34.938 4.60444C35.64 5.29778 36 6.13333 36 7.11111V28.4444C36 29.4222 35.64 30.2578 34.938 30.9511C34.236 31.6444 33.39 32 32.4 32H3.6ZM3.6 28.4444H32.4V7.11111H25.11L21.816 3.55556H14.166L10.872 7.11111H3.6V28.4444Z" fill="white" fill-opacity="0.8"/>
</svg>
